<svg id="Calque_1" data-name="Calque 1" xmlns="http://www.w3.org/2000/svg" viewBox="0 0 24 24"><defs><style>.cls-1{fill:#a9a9a9;}.cls-2{fill:none;}</style></defs><path id="Tracé_471" data-name="Tracé 471" class="cls-1" d="M8.3,20.5H9.78V19H8.3ZM12,12.37a2.21,2.21,0,0,0,2.21-2.21h0V5.72a2.22,2.22,0,1,0-4.43,0v4.43A2.21,2.21,0,0,0,12,12.37Zm-.74,8.13h1.48V19H11.26Zm3,0H15.7V19H14.22Zm3-10.35H15.92A3.83,3.83,0,0,1,12,13.92h0a3.83,3.83,0,0,1-3.92-3.75v0H6.83a5.16,5.16,0,0,0,4.43,5v2.42h1.48V15.12A5.16,5.16,0,0,0,17.17,10.15Z"/><path id="Tracé_472" data-name="Tracé 472" class="cls-2" d="M0,0H24V24H0Z"/></svg>