<svg id="Calque_1" data-name="Calque 1" xmlns="http://www.w3.org/2000/svg" viewBox="0 0 24 24"><defs><style>.cls-1{fill:none;}.cls-2{fill:#a9a9a9;}</style></defs><g id="baseline-speaker_notes-24px" data-name="baseline-speaker notes-24px"><path id="Tracé_481" data-name="Tracé 481" class="cls-1" d="M0,0H24V24H0Z"/><path id="Tracé_482" data-name="Tracé 482" class="cls-2" d="M19.3,4H5.7A1.69,1.69,0,0,0,4,5.7V21l3.4-3.4H19.3A1.7,1.7,0,0,0,21,15.9h0V5.7A1.7,1.7,0,0,0,19.3,4ZM9.1,14.2H7.4V12.5H9.1Zm0-2.55H7.4V10H9.1Zm0-2.55H7.4V7.4H9.1Zm6,5.1H10.8V12.5h4.25Zm2.55-2.55H10.8V10h6.8Zm0-2.55H10.8V7.4h6.8Z"/></g></svg>