<svg id="outline-today-24px" xmlns="http://www.w3.org/2000/svg" width="24" height="24" viewBox="0 0 24 24">
  <g id="Bounding_Boxes">
    <path id="Tracé_2522" data-name="Tracé 2522" d="M0,0H24V24H0Z" fill="none"/>
  </g>
  <g id="Outline">
    <g id="Groupe_117" data-name="Groupe 117">
      <path id="Tracé_2523" data-name="Tracé 2523" d="M19,3H18V1H16V3H8V1H6V3H5A2,2,0,0,0,3,5V19a2,2,0,0,0,2,2H19a2.006,2.006,0,0,0,2-2V5A2.006,2.006,0,0,0,19,3Zm0,16H5V9H19ZM19,7H5V5H19Z" fill="#146671"/>
      <rect id="Rectangle_66" data-name="Rectangle 66" width="5" height="5" transform="translate(7 11)" fill="#146671"/>
    </g>
  </g>
</svg>
