<?xml version="1.0" encoding="UTF-8"?> <svg xmlns="http://www.w3.org/2000/svg" viewBox="0 0 64 64" width="512" height="512"><g id="Bar_graph" data-name="Bar graph"><path d="M61,56H58V15a1,1,0,0,0-1-1H49a1,1,0,0,0-1,1V56H44V23a1,1,0,0,0-1-1H35a1,1,0,0,0-1,1V56H30V29a1,1,0,0,0-1-1H21a1,1,0,0,0-1,1V56H16V35a1,1,0,0,0-1-1H7a1,1,0,0,0-1,1V56H3a1,1,0,0,0,0,2H61a1,1,0,0,0,0-2ZM14,56H8V36h6Zm14,0H22V30h6Zm14,0H36V24h6Zm14,0H50V16h6Z"></path><path d="M8,60H7a1,1,0,0,0,0,2H8a1,1,0,0,0,0-2Z"></path><path d="M15,60H11a1,1,0,0,0,0,2h4a1,1,0,0,0,0-2Z"></path><path d="M22,60H21a1,1,0,0,0,0,2h1a1,1,0,0,0,0-2Z"></path><path d="M29,60H25a1,1,0,0,0,0,2h4a1,1,0,0,0,0-2Z"></path><path d="M36,60H35a1,1,0,0,0,0,2h1a1,1,0,0,0,0-2Z"></path><path d="M43,60H39a1,1,0,0,0,0,2h4a1,1,0,0,0,0-2Z"></path><path d="M50,60H49a1,1,0,0,0,0,2h1a1,1,0,0,0,0-2Z"></path><path d="M57,60H53a1,1,0,0,0,0,2h4a1,1,0,0,0,0-2Z"></path><path d="M7.242,23.757a.993.993,0,0,0,.707-.293l7.779-7.778,5.657,5.657a1,1,0,0,0,1.414,0l8.485-8.485,6.364,6.364a1,1,0,0,0,1.414,0L52.953,5.33,53,8.018A1,1,0,0,0,54,9h.018A1,1,0,0,0,55,7.982l-.088-5.041a1,1,0,0,0-1-.983H53.9L48.991,2A1,1,0,0,0,49,4h.009l2.468-.021L38.355,17.1l-6.364-6.364a1,1,0,0,0-1.414,0l-8.485,8.485-5.657-5.657a1,1,0,0,0-1.414,0L6.535,22.05a1,1,0,0,0,.707,1.707Z"></path><path d="M3,28a1,1,0,0,0,.707-.293l1.414-1.414a1,1,0,1,0-1.414-1.414L2.293,26.293A1,1,0,0,0,3,28Z"></path></g></svg> 