<?xml version="1.0" encoding="UTF-8"?> <svg xmlns="http://www.w3.org/2000/svg" viewBox="0 0 64 64" width="512" height="512"><g id="Business"><path d="M32,10a5,5,0,1,0,5,5A5.006,5.006,0,0,0,32,10Zm0,8a3,3,0,1,1,3-3A3,3,0,0,1,32,18Z"></path><path d="M49,48h2a1,1,0,0,1,1,1,1,1,0,0,0,2,0,3,3,0,0,0-3-3V45a1,1,0,0,0-2,0v1a3,3,0,0,0,0,6h2a1,1,0,0,1,0,2H49a1,1,0,0,1-1-1,1,1,0,0,0-2,0,3,3,0,0,0,3,3v1a1,1,0,0,0,2,0V56a3,3,0,0,0,0-6H49a1,1,0,0,1,0-2Z"></path><path d="M55,39.45V37.16l1.95-5.84a1,1,0,0,0-.14-.9A.983.983,0,0,0,56,30H51V15a1,1,0,0,0-1-1H45V13a1,1,0,0,0-1-1H41.54a9.532,9.532,0,0,0-.67-1.62l1.74-1.74a1.008,1.008,0,0,0,0-1.42L39.78,4.39a1.008,1.008,0,0,0-1.42,0L36.62,6.13A9.532,9.532,0,0,0,35,5.46V3a1,1,0,0,0-1-1H30a1,1,0,0,0-1,1V5.46a9.532,9.532,0,0,0-1.62.67L25.64,4.39a1.008,1.008,0,0,0-1.42,0L21.39,7.22a1.008,1.008,0,0,0,0,1.42l1.74,1.74A9.532,9.532,0,0,0,22.46,12H20a1,1,0,0,0-1,1v1H14a1,1,0,0,0-1,1V28.09a6,6,0,1,0,2,0V16h4v1a1,1,0,0,0,1,1h2.46a9.532,9.532,0,0,0,.67,1.62l-1.74,1.74a1.008,1.008,0,0,0,0,1.42l2.83,2.83a1.008,1.008,0,0,0,1.42,0l1.74-1.74a9.532,9.532,0,0,0,1.62.67V27a1,1,0,0,0,1,1h4a1,1,0,0,0,1-1V24.54a9.532,9.532,0,0,0,1.62-.67l1.74,1.74a1.008,1.008,0,0,0,1.42,0l2.83-2.83a1.008,1.008,0,0,0,0-1.42l-1.74-1.74A9.532,9.532,0,0,0,41.54,18H44a1,1,0,0,0,1-1V16h4V30H44a.983.983,0,0,0-.81.42,1,1,0,0,0-.14.9L45,37.16v2.29A15.288,15.288,0,0,0,38.04,51H26V47a7.008,7.008,0,0,0-7-7H9a7.008,7.008,0,0,0-7,7V61a1,1,0,0,0,1,1H25a1,1,0,0,0,1-1V53H38.05c.49,5.5,5.07,9,11.95,9,7.29,0,12-3.93,12-10A15.227,15.227,0,0,0,55,39.45ZM18,34a4,4,0,1,1-4-4A4,4,0,0,1,18,34ZM43,16H40.78a.985.985,0,0,0-.97.78,8.216,8.216,0,0,1-1.04,2.48,1,1,0,0,0,.14,1.24l1.58,1.57-1.42,1.42L37.5,21.91a1.013,1.013,0,0,0-1.24-.14,8.324,8.324,0,0,1-2.48,1.04.985.985,0,0,0-.78.97V26H31V23.78a.985.985,0,0,0-.78-.97,8.324,8.324,0,0,1-2.48-1.04,1.013,1.013,0,0,0-1.24.14l-1.57,1.58-1.42-1.42,1.58-1.57a1,1,0,0,0,.14-1.24,8.216,8.216,0,0,1-1.04-2.48.985.985,0,0,0-.97-.78H21V14h2.22a.985.985,0,0,0,.97-.78,8.216,8.216,0,0,1,1.04-2.48,1,1,0,0,0-.14-1.24L23.51,7.93l1.42-1.42L26.5,8.09a1,1,0,0,0,1.24.14,8.216,8.216,0,0,1,2.48-1.04A.985.985,0,0,0,31,6.22V4h2V6.22a.985.985,0,0,0,.78.97,8.216,8.216,0,0,1,2.48,1.04,1,1,0,0,0,1.24-.14l1.57-1.58,1.42,1.42L38.91,9.5a1,1,0,0,0-.14,1.24,8.216,8.216,0,0,1,1.04,2.48.985.985,0,0,0,.97.78H43ZM15.38,42l-1,2h-.76l-1-2ZM4,60V47a5,5,0,0,1,2.47-4.29L11.66,60Zm7.01-9.11L8.36,42.06c.21-.02.42-.06.64-.06h1.38l1.58,3.16ZM14.26,60h-.52l-1.43-4.77L13.85,46h.3l1.54,9.23Zm3.36-18H19c.22,0,.43.04.64.06l-2.65,8.83-.95-5.73ZM24,60H16.34l5.19-17.29A5,5,0,0,1,24,47ZM54.61,32l-1.33,4H46.72l-1.33-4ZM53,38v1H47V38ZM50,60c-2.35,0-10-.58-10-8a13.255,13.255,0,0,1,6.31-11h7.38A13.255,13.255,0,0,1,60,52C60,59.42,52.35,60,50,60Z"></path></g></svg> 