<?xml version="1.0" encoding="UTF-8"?> <svg xmlns="http://www.w3.org/2000/svg" viewBox="0 0 64 64" width="512" height="512"><g id="Business-2" data-name="Business"><path d="M55,36H45a7,7,0,0,0-6.4,4.19A7.075,7.075,0,0,0,37,40H27a7.075,7.075,0,0,0-1.6.19A7,7,0,0,0,19,36H9a7.008,7.008,0,0,0-7,7V57a1,1,0,0,0,1,1H20v3a1,1,0,0,0,1,1H43a1,1,0,0,0,1-1V58H61a1,1,0,0,0,1-1V43A7.008,7.008,0,0,0,55,36Zm-3.62,2-1,2h-.76l-1-2Zm-18,4-1,2h-.76l-1-2Zm-18-4-1,2h-.76l-1-2ZM4,56V43a5,5,0,0,1,2.47-4.29L11.66,56Zm7.01-9.11L8.36,38.06c.21-.02.42-.06.64-.06h1.38l1.58,3.16ZM14.26,56h-.52l-1.43-4.77L13.85,42h.3l1.54,9.23Zm3.36-18H19c.22,0,.43.03.64.05l-2.65,8.84-.95-5.73ZM20,47v9H16.34l5.2-17.29a5.011,5.011,0,0,1,2.01,2.21A6.988,6.988,0,0,0,20,47Zm2,13V47a5,5,0,0,1,2.47-4.29L29.66,60Zm7.01-9.11-2.65-8.83c.21-.02.42-.06.64-.06h1.38l1.58,3.16ZM32.26,60h-.52l-1.43-4.77L31.85,46h.3l1.54,9.23Zm3.36-18H37c.22,0,.43.04.64.06l-2.65,8.83-.95-5.73ZM42,60H34.34l5.19-17.29A5,5,0,0,1,42,47Zm2-4V47a6.988,6.988,0,0,0-3.55-6.08,5.011,5.011,0,0,1,2.01-2.21L47.66,56Zm3.01-9.11-2.65-8.84c.21-.02.42-.05.64-.05h1.38l1.58,3.16ZM50.26,56h-.52l-1.43-4.77L49.85,42h.3l1.54,9.23Zm3.36-18H55c.22,0,.43.04.64.06l-2.65,8.83-.95-5.73ZM60,56H52.34l5.19-17.29A5,5,0,0,1,60,43Z"></path><path d="M56,30a6,6,0,1,0-6,6A6.006,6.006,0,0,0,56,30Zm-6,4a4,4,0,1,1,4-4A4,4,0,0,1,50,34Z"></path><path d="M20,30a6,6,0,1,0-6,6A6.006,6.006,0,0,0,20,30Zm-6,4a4,4,0,1,1,4-4A4,4,0,0,1,14,34Z"></path><path d="M38,34a6,6,0,1,0-6,6A6.006,6.006,0,0,0,38,34Zm-6,4a4,4,0,1,1,4-4A4,4,0,0,1,32,38Z"></path><path d="M61,2H3A1,1,0,0,0,2,3V17a1,1,0,0,0,1,1H9.52l3.7,4.625a1.036,1.036,0,0,0,1.562,0L18.48,18h9.04l3.7,4.625a1.036,1.036,0,0,0,1.562,0L36.48,18h9.04l3.7,4.625a1,1,0,0,0,1.562,0L54.48,18H61a1,1,0,0,0,1-1V3A1,1,0,0,0,61,2ZM60,16H54a1,1,0,0,0-.781.375L50,20.4l-3.219-4.024A1,1,0,0,0,46,16H36a1,1,0,0,0-.781.375L32,20.4l-3.219-4.024A1,1,0,0,0,28,16H18a1,1,0,0,0-.781.375L14,20.4l-3.219-4.024A1,1,0,0,0,10,16H4V4H60Z"></path><path d="M9,9h2a1,1,0,0,0,0-2H9A1,1,0,0,0,9,9Z"></path><path d="M15,9H27a1,1,0,0,0,0-2H15a1,1,0,0,0,0,2Z"></path><path d="M37,9h8a1,1,0,0,0,0-2H37a1,1,0,0,0,0,2Z"></path><path d="M9,13h2a1,1,0,0,0,0-2H9a1,1,0,0,0,0,2Z"></path><path d="M15,13H27a1,1,0,0,0,0-2H15a1,1,0,0,0,0,2Z"></path><path d="M37,13h8a1,1,0,0,0,0-2H37a1,1,0,0,0,0,2Z"></path><path d="M49,9h8a1,1,0,0,0,0-2H49a1,1,0,0,0,0,2Z"></path><path d="M49,13h8a1,1,0,0,0,0-2H49a1,1,0,0,0,0,2Z"></path></g></svg> 