<?xml version="1.0" encoding="UTF-8"?> <svg xmlns="http://www.w3.org/2000/svg" viewBox="0 0 64 64" width="512" height="512"><g id="Calculator"><path d="M29,19H27a1,1,0,0,1-1-1,1,1,0,0,0-2,0,3,3,0,0,0,3,3v1a1,1,0,0,0,2,0V21a3,3,0,0,0,0-6H27a1,1,0,0,1,0-2h2a1,1,0,0,1,1,1,1,1,0,0,0,2,0,3,3,0,0,0-3-3V10a1,1,0,0,0-2,0v1a3,3,0,0,0,0,6h2a1,1,0,0,1,0,2Z"></path><path d="M47,19H45a1,1,0,0,1-1-1,1,1,0,0,0-2,0,3,3,0,0,0,3,3v1a1,1,0,0,0,2,0V21a3,3,0,0,0,0-6H45a1,1,0,0,1,0-2h2a1,1,0,0,1,1,1,1,1,0,0,0,2,0,3,3,0,0,0-3-3V10a1,1,0,0,0-2,0v1a3,3,0,0,0,0,6h2a1,1,0,0,1,0,2Z"></path><path d="M38,19H36a1,1,0,0,1-1-1,1,1,0,0,0-2,0,3,3,0,0,0,3,3v1a1,1,0,0,0,2,0V21a3,3,0,0,0,0-6H36a1,1,0,0,1,0-2h2a1,1,0,0,1,1,1,1,1,0,0,0,2,0,3,3,0,0,0-3-3V10a1,1,0,0,0-2,0v1a3,3,0,0,0,0,6h2a1,1,0,0,1,0,2Z"></path><path d="M53,2H11A5.006,5.006,0,0,0,6,7V57a5.006,5.006,0,0,0,5,5H53a5.006,5.006,0,0,0,5-5V7A5.006,5.006,0,0,0,53,2Zm3,55a3,3,0,0,1-3,3H11a3,3,0,0,1-3-3V7a3,3,0,0,1,3-3H53a3,3,0,0,1,3,3Z"></path><path d="M53,6H11a1,1,0,0,0-1,1V25a1,1,0,0,0,1,1H53a1,1,0,0,0,1-1V7A1,1,0,0,0,53,6ZM52,24H12V8H52Z"></path><path d="M21,36H15a3,3,0,0,1-3-3V31a3,3,0,0,1,3-3h6a3,3,0,0,1,3,3v2A3,3,0,0,1,21,36Zm-6-6a1,1,0,0,0-1,1v2a1,1,0,0,0,1,1h6a1,1,0,0,0,1-1V31a1,1,0,0,0-1-1Z"></path><path d="M21,46H15a3,3,0,0,1-3-3V41a3,3,0,0,1,3-3h6a3,3,0,0,1,3,3v2A3,3,0,0,1,21,46Zm-6-6a1,1,0,0,0-1,1v2a1,1,0,0,0,1,1h6a1,1,0,0,0,1-1V41a1,1,0,0,0-1-1Z"></path><path d="M21,56H15a3,3,0,0,1-3-3V51a3,3,0,0,1,3-3h6a3,3,0,0,1,3,3v2A3,3,0,0,1,21,56Zm-6-6a1,1,0,0,0-1,1v2a1,1,0,0,0,1,1h6a1,1,0,0,0,1-1V51a1,1,0,0,0-1-1Z"></path><path d="M35,36H29a3,3,0,0,1-3-3V31a3,3,0,0,1,3-3h6a3,3,0,0,1,3,3v2A3,3,0,0,1,35,36Zm-6-6a1,1,0,0,0-1,1v2a1,1,0,0,0,1,1h6a1,1,0,0,0,1-1V31a1,1,0,0,0-1-1Z"></path><path d="M35,46H29a3,3,0,0,1-3-3V41a3,3,0,0,1,3-3h6a3,3,0,0,1,3,3v2A3,3,0,0,1,35,46Zm-6-6a1,1,0,0,0-1,1v2a1,1,0,0,0,1,1h6a1,1,0,0,0,1-1V41a1,1,0,0,0-1-1Z"></path><path d="M35,56H29a3,3,0,0,1-3-3V51a3,3,0,0,1,3-3h6a3,3,0,0,1,3,3v2A3,3,0,0,1,35,56Zm-6-6a1,1,0,0,0-1,1v2a1,1,0,0,0,1,1h6a1,1,0,0,0,1-1V51a1,1,0,0,0-1-1Z"></path><path d="M49,36H43a3,3,0,0,1-3-3V31a3,3,0,0,1,3-3h6a3,3,0,0,1,3,3v2A3,3,0,0,1,49,36Zm-6-6a1,1,0,0,0-1,1v2a1,1,0,0,0,1,1h6a1,1,0,0,0,1-1V31a1,1,0,0,0-1-1Z"></path><path d="M49,56H43a3,3,0,0,1-3-3V41a3,3,0,0,1,3-3h6a3,3,0,0,1,3,3V53A3,3,0,0,1,49,56ZM43,40a1,1,0,0,0-1,1V53a1,1,0,0,0,1,1h6a1,1,0,0,0,1-1V41a1,1,0,0,0-1-1Z"></path></g></svg> 