<?xml version="1.0" encoding="UTF-8"?> <svg xmlns="http://www.w3.org/2000/svg" viewBox="0 0 64 64" width="512" height="512"><g id="Calculator-2" data-name="Calculator"><path d="M50,48h2a1,1,0,0,1,1,1,1,1,0,0,0,2,0,3,3,0,0,0-3-3V45a1,1,0,0,0-2,0v1a3,3,0,0,0,0,6h2a1,1,0,0,1,0,2H50a1,1,0,0,1-1-1,1,1,0,0,0-2,0,3,3,0,0,0,3,3v1a1,1,0,0,0,2,0V56a3,3,0,0,0,0-6H50a1,1,0,0,1,0-2Z"></path><path d="M13,18H51a1,1,0,0,0,1-1V7a1,1,0,0,0-1-1H13a1,1,0,0,0-1,1V17A1,1,0,0,0,13,18ZM14,8H50v8H14Z"></path><path d="M21,30H15a3,3,0,0,0-3,3v2a3,3,0,0,0,3,3h6a3,3,0,0,0,3-3V33A3,3,0,0,0,21,30Zm1,5a1,1,0,0,1-1,1H15a1,1,0,0,1-1-1V33a1,1,0,0,1,1-1h6a1,1,0,0,1,1,1Z"></path><path d="M21,40H15a3,3,0,0,0-3,3v2a3,3,0,0,0,3,3h6a3,3,0,0,0,3-3V43A3,3,0,0,0,21,40Zm1,5a1,1,0,0,1-1,1H15a1,1,0,0,1-1-1V43a1,1,0,0,1,1-1h6a1,1,0,0,1,1,1Z"></path><path d="M21,50H15a3,3,0,0,0-3,3v2a3,3,0,0,0,3,3h6a3,3,0,0,0,3-3V53A3,3,0,0,0,21,50Zm1,5a1,1,0,0,1-1,1H15a1,1,0,0,1-1-1V53a1,1,0,0,1,1-1h6a1,1,0,0,1,1,1Z"></path><path d="M35,30H29a3,3,0,0,0-3,3v2a3,3,0,0,0,3,3h6a3,3,0,0,0,3-3V33A3,3,0,0,0,35,30Zm1,5a1,1,0,0,1-1,1H29a1,1,0,0,1-1-1V33a1,1,0,0,1,1-1h6a1,1,0,0,1,1,1Z"></path><path d="M35,40H29a3,3,0,0,0-3,3v2a3,3,0,0,0,3,3h6a3,3,0,0,0,3-3V43A3,3,0,0,0,35,40Zm1,5a1,1,0,0,1-1,1H29a1,1,0,0,1-1-1V43a1,1,0,0,1,1-1h6a1,1,0,0,1,1,1Z"></path><path d="M35,50H29a3,3,0,0,0-3,3v2a3,3,0,0,0,3,3h6a3,3,0,0,0,3-3V53A3,3,0,0,0,35,50Zm1,5a1,1,0,0,1-1,1H29a1,1,0,0,1-1-1V53a1,1,0,0,1,1-1h6a1,1,0,0,1,1,1Z"></path><path d="M49,30H43a3,3,0,0,0-3,3v2a3,3,0,0,0,3,3h6a3,3,0,0,0,3-3V33A3,3,0,0,0,49,30Zm1,5a1,1,0,0,1-1,1H43a1,1,0,0,1-1-1V33a1,1,0,0,1,1-1h6a1,1,0,0,1,1,1Z"></path><path d="M49,20H43a3,3,0,0,0-3,3v2a3,3,0,0,0,3,3h6a3,3,0,0,0,3-3V23A3,3,0,0,0,49,20Zm1,5a1,1,0,0,1-1,1H43a1,1,0,0,1-1-1V23a1,1,0,0,1,1-1h6a1,1,0,0,1,1,1Z"></path><path d="M35,20H29a3,3,0,0,0-3,3v2a3,3,0,0,0,3,3h6a3,3,0,0,0,3-3V23A3,3,0,0,0,35,20Zm1,5a1,1,0,0,1-1,1H29a1,1,0,0,1-1-1V23a1,1,0,0,1,1-1h6a1,1,0,0,1,1,1Z"></path><path d="M21,20H15a3,3,0,0,0-3,3v2a3,3,0,0,0,3,3h6a3,3,0,0,0,3-3V23A3,3,0,0,0,21,20Zm1,5a1,1,0,0,1-1,1H15a1,1,0,0,1-1-1V23a1,1,0,0,1,1-1h6a1,1,0,0,1,1,1Z"></path><path d="M56,41.214V7a5.006,5.006,0,0,0-5-5H13A5.006,5.006,0,0,0,8,7V57a5.006,5.006,0,0,0,5,5H51a10.993,10.993,0,0,0,5-20.786ZM13,60a3,3,0,0,1-3-3V7a3,3,0,0,1,3-3H51a3,3,0,0,1,3,3V40.426A10.988,10.988,0,0,0,44.7,60Zm38,0a9,9,0,1,1,9-9A9.01,9.01,0,0,1,51,60Z"></path></g></svg> 