<?xml version="1.0" encoding="UTF-8"?> <svg xmlns="http://www.w3.org/2000/svg" viewBox="0 0 64 64" width="512" height="512"><g id="Certificate"><path d="M12,17V16a3,3,0,0,0,0-6H10a1,1,0,0,1,0-2h2a1,1,0,0,1,1,1,1,1,0,0,0,2,0,3,3,0,0,0-3-3V5a1,1,0,0,0-2,0V6a3,3,0,0,0,0,6h2a1,1,0,0,1,0,2H10a1,1,0,0,1-1-1,1,1,0,0,0-2,0,3,3,0,0,0,3,3v1a1,1,0,0,0,2,0Z"></path><path d="M59,6H18.478A9,9,0,1,0,6,18.478V52a3,3,0,0,0,3,3H38a1,1,0,0,0,0-2H9a1,1,0,0,1-1-1V19.475A8.975,8.975,0,0,0,19.475,8H59a1,1,0,0,1,1,1V52a1,1,0,0,1-1,1H54a1,1,0,0,0,0,2h5a3,3,0,0,0,3-3V9A3,3,0,0,0,59,6ZM11,18a7,7,0,1,1,7-7A7.008,7.008,0,0,1,11,18Z"></path><path d="M55.183,47.346a4.34,4.34,0,0,1,.058-1.518,4.211,4.211,0,0,1,.989-1.048C57.019,44.09,58,43.231,58,42s-.981-2.09-1.77-2.78a4.211,4.211,0,0,1-.989-1.048,4.34,4.34,0,0,1-.058-1.518,3.86,3.86,0,0,0-.7-3.139,3.854,3.854,0,0,0-3.138-.7,4.322,4.322,0,0,1-1.519-.058,4.249,4.249,0,0,1-1.049-.989C48.089,30.981,47.23,30,46,30s-2.09.981-2.779,1.77a4.228,4.228,0,0,1-1.048.989,4.327,4.327,0,0,1-1.52.058,3.852,3.852,0,0,0-3.138.7,3.86,3.86,0,0,0-.7,3.139,4.34,4.34,0,0,1-.058,1.518,4.211,4.211,0,0,1-.989,1.048C34.981,39.91,34,40.769,34,42s.981,2.09,1.77,2.78a4.211,4.211,0,0,1,.989,1.048,4.34,4.34,0,0,1,.058,1.518,3.86,3.86,0,0,0,.7,3.139,3.859,3.859,0,0,0,3.138.7l.347-.02V61a1,1,0,0,0,1.707.707L46,58.414l3.293,3.293A1,1,0,0,0,51,61V51.163l.347.02a3.868,3.868,0,0,0,3.138-.7A3.86,3.86,0,0,0,55.183,47.346Zm-8.476,8.947a1,1,0,0,0-1.414,0L43,58.586v-6.6l.221.249C43.911,53.019,44.77,54,46,54s2.09-.981,2.779-1.77L49,51.98v6.606Zm6.687-11.231a5.387,5.387,0,0,0-.207,2.407c.034.558.085,1.4-.116,1.6s-1.044.15-1.6.116a5.391,5.391,0,0,0-2.408.207,5.238,5.238,0,0,0-1.787,1.519C46.873,51.372,46.323,52,46,52s-.873-.628-1.274-1.086a5.218,5.218,0,0,0-1.789-1.52,3.816,3.816,0,0,0-1.479-.246c-.309,0-.62.019-.927.039-.559.034-1.4.085-1.6-.116s-.15-1.044-.116-1.6a5.387,5.387,0,0,0-.207-2.407,5.232,5.232,0,0,0-1.519-1.788C36.628,42.873,36,42.324,36,42s.628-.873,1.087-1.274a5.232,5.232,0,0,0,1.519-1.788,5.387,5.387,0,0,0,.207-2.407c-.034-.558-.085-1.4.116-1.6s1.043-.15,1.6-.116a5.391,5.391,0,0,0,2.408-.207,5.238,5.238,0,0,0,1.787-1.519C45.127,32.628,45.677,32,46,32s.873.628,1.274,1.086a5.224,5.224,0,0,0,1.788,1.52,5.388,5.388,0,0,0,2.407.207c.559-.034,1.4-.085,1.6.116s.15,1.044.116,1.6a5.387,5.387,0,0,0,.207,2.407,5.221,5.221,0,0,0,1.519,1.788c.459.4,1.087.95,1.087,1.274s-.628.873-1.087,1.274A5.221,5.221,0,0,0,53.394,45.062Z"></path><path d="M46,35a7,7,0,1,0,7,7A7.008,7.008,0,0,0,46,35Zm0,12a5,5,0,1,1,5-5A5.006,5.006,0,0,1,46,47Z"></path><path d="M34,37a1,1,0,0,0-1-1H13a1,1,0,0,0,0,2H33A1,1,0,0,0,34,37Z"></path><path d="M12,25a1,1,0,0,0,1,1H55a1,1,0,0,0,0-2H13A1,1,0,0,0,12,25Z"></path><path d="M13,30H42a1,1,0,0,0,0-2H13a1,1,0,0,0,0,2Z"></path><path d="M13,34H35a1,1,0,0,0,0-2H13a1,1,0,0,0,0,2Z"></path><path d="M13,41a1,1,0,0,0-1,1v6a1,1,0,0,0,1,1H31a1,1,0,0,0,1-1V42a1,1,0,0,0-1-1Zm17,6H14V43H30Z"></path><path d="M39,17a5,5,0,1,0-5,5A5.006,5.006,0,0,0,39,17Zm-8,0a3,3,0,1,1,3,3A3,3,0,0,1,31,17Z"></path><path d="M55,28H50a1,1,0,0,0,0,2h5a1,1,0,0,0,0-2Z"></path></g></svg> 