<?xml version="1.0" encoding="UTF-8"?> <svg xmlns="http://www.w3.org/2000/svg" viewBox="0 0 64 64" width="512" height="512"><g id="Chart"><path d="M54,10H44a1,1,0,0,0-1,1v1H41a1,1,0,0,0-.707.293l-2.221,2.221a12.968,12.968,0,0,0-17.935,6.2L16,18.412V16h4a1,1,0,0,0,1-1V11a1,1,0,0,0-1-1H10a1,1,0,0,0-1,1v4a1,1,0,0,0,1,1h4v3a1,1,0,0,0,.515.874l4.946,2.748a12.986,12.986,0,0,0,24.381,8.713L48,32.721V36H44a1,1,0,0,0-1,1v4a1,1,0,0,0,1,1H54a1,1,0,0,0,1-1V37a1,1,0,0,0-1-1H50V32a1,1,0,0,0-.684-.949l-4.8-1.6A12.886,12.886,0,0,0,39.794,15.62L41.414,14H43v1a1,1,0,0,0,1,1H54a1,1,0,0,0,1-1V11A1,1,0,0,0,54,10ZM11,12h8v2H11ZM53,40H45V38h8ZM21,26a10.941,10.941,0,0,1,.266-2.375l2.249,1.249a1,1,0,1,0,.97-1.748l-2.6-1.444A11.019,11.019,0,0,1,31,15.051v21.9A11.01,11.01,0,0,1,21,26Zm18.684,3.949,2.247.749A11.007,11.007,0,0,1,33,36.949V26.64l9.355-4.316a10.732,10.732,0,0,1,.265,6.495l-2.3-.768a1,1,0,0,0-.632,1.9Zm1.832-9.442L33,24.437V15.051a10.881,10.881,0,0,1,3.576.959l-1.283,1.283a1,1,0,1,0,1.414,1.414l1.66-1.66A11.07,11.07,0,0,1,41.516,20.507ZM53,14H45V12h8Z"></path><path d="M59,44V8a3,3,0,0,0,0-6H5A3,3,0,0,0,5,8V44a3,3,0,0,0,0,6H31v4.14a4,4,0,1,0,2,0V50H59a3,3,0,0,0,0-6ZM4,5A1,1,0,0,1,5,4H59a1,1,0,0,1,0,2H5A1,1,0,0,1,4,5ZM57,8V44H7V8ZM34,58a2,2,0,1,1-2-2A2.006,2.006,0,0,1,34,58ZM59,48H5a1,1,0,0,1,0-2H59a1,1,0,0,1,0,2Z"></path><path d="M11,34H10a1,1,0,0,0,0,2h1a1,1,0,0,0,0-2Z"></path><path d="M11,37H10a1,1,0,0,0,0,2h1a1,1,0,0,0,0-2Z"></path><path d="M11,40H10a1,1,0,0,0,0,2h1a1,1,0,0,0,0-2Z"></path><path d="M18,34H14a1,1,0,0,0,0,2h4a1,1,0,0,0,0-2Z"></path><path d="M18,37H14a1,1,0,0,0,0,2h4a1,1,0,0,0,0-2Z"></path><path d="M18,40H14a1,1,0,0,0,0,2h4a1,1,0,0,0,0-2Z"></path></g></svg> 