<?xml version="1.0" encoding="UTF-8"?> <svg xmlns="http://www.w3.org/2000/svg" viewBox="0 0 64 64" width="512" height="512"><g id="Chart-2" data-name="Chart"><path d="M37,15a5,5,0,1,0-5,5A5.006,5.006,0,0,0,37,15Zm-8,0a3,3,0,1,1,3,3A3,3,0,0,1,29,15Z"></path><path d="M25.765,47.439c-.015.012-.03.021-.044.034A6.982,6.982,0,0,0,23,53v8a1,1,0,0,0,1,1H40a1,1,0,0,0,1-1V53a6.987,6.987,0,0,0-2.72-5.527c-.015-.013-.03-.022-.045-.034A6.957,6.957,0,0,0,34,46H30A6.957,6.957,0,0,0,25.765,47.439ZM36.434,48.66l-1.76,5.624-.649-3.259.737-2.948A4.929,4.929,0,0,1,36.434,48.66Zm-3,9.6L32.885,60h-1.77l-.544-1.737L31.82,52h.36ZM29.238,48.077l.737,2.948-.649,3.259-1.76-5.624A4.929,4.929,0,0,1,29.238,48.077ZM25,53a4.965,4.965,0,0,1,.926-2.88L29.019,60H25Zm14,0v7H34.981l3.093-9.88A4.965,4.965,0,0,1,39,53Zm-6.281-5-.5,2h-.438l-.5-2Z"></path><path d="M59.28,47.47a.219.219,0,0,0-.05-.03A6.924,6.924,0,0,0,55,46H51a6.924,6.924,0,0,0-4.23,1.44.219.219,0,0,0-.05.03A6.989,6.989,0,0,0,44,53v8a1,1,0,0,0,1,1H61a1,1,0,0,0,1-1V53A6.989,6.989,0,0,0,59.28,47.47ZM46,60V53a4.973,4.973,0,0,1,.93-2.88L50.02,60Zm4.33-5.72-1.76-5.62a4.809,4.809,0,0,1,1.67-.58l.74,2.95ZM53.72,48l-.5,2h-.44l-.5-2Zm.17,12H52.11l-.54-1.74L52.82,52h.36l1.25,6.26Zm1.13-8.97.74-2.95a4.809,4.809,0,0,1,1.67.58l-1.76,5.62ZM60,60H55.98l3.09-9.88A4.973,4.973,0,0,1,60,53Z"></path><path d="M58,41a5.009,5.009,0,0,0-4-4.9V31a1,1,0,0,0-1-1H33V28h1a1,1,0,0,0,1-1V24.543a9.991,9.991,0,0,0,1.625-.674l1.738,1.738a1,1,0,0,0,1.414,0l2.83-2.83a1,1,0,0,0,0-1.414l-1.738-1.738A9.991,9.991,0,0,0,41.543,18H44a1,1,0,0,0,1-1V13a1,1,0,0,0-1-1H41.543a9.991,9.991,0,0,0-.674-1.625l1.738-1.738a1,1,0,0,0,0-1.414l-2.83-2.83a1,1,0,0,0-1.414,0L36.625,6.131A9.991,9.991,0,0,0,35,5.457V3a1,1,0,0,0-1-1H30a1,1,0,0,0-1,1V5.457a9.991,9.991,0,0,0-1.625.674L25.637,4.393a1,1,0,0,0-1.414,0l-2.83,2.83a1,1,0,0,0,0,1.414l1.738,1.738A9.991,9.991,0,0,0,22.457,12H20a1,1,0,0,0-1,1v4a1,1,0,0,0,1,1h2.457a9.991,9.991,0,0,0,.674,1.625l-1.738,1.738a1,1,0,0,0,0,1.414l2.83,2.83a1,1,0,0,0,1.414,0l1.738-1.738A9.991,9.991,0,0,0,29,24.543V27a1,1,0,0,0,1,1h1v2H11a1,1,0,0,0-1,1v5.1a5,5,0,1,0,2,0V32H31v4.1a5,5,0,1,0,2,0V32H52v4.1A5,5,0,1,0,58,41ZM30.224,22.805a8.071,8.071,0,0,1-2.48-1.031,1,1,0,0,0-1.241.139L24.93,23.486,23.514,22.07,25.087,20.5a1,1,0,0,0,.139-1.241,8.118,8.118,0,0,1-1.032-2.481A1,1,0,0,0,23.22,16H21V14h2.22a1,1,0,0,0,.974-.775,8.118,8.118,0,0,1,1.032-2.481A1,1,0,0,0,25.087,9.5L23.514,7.93,24.93,6.514,26.5,8.087a1,1,0,0,0,1.241.139,8.118,8.118,0,0,1,2.481-1.032A1,1,0,0,0,31,6.22V4h2V6.22a1,1,0,0,0,.775.974,8.118,8.118,0,0,1,2.481,1.032A1,1,0,0,0,37.5,8.087L39.07,6.514,40.486,7.93,38.913,9.5a1,1,0,0,0-.139,1.241,8.118,8.118,0,0,1,1.032,2.481A1,1,0,0,0,40.78,14H43v2H40.78a1,1,0,0,0-.974.775,8.118,8.118,0,0,1-1.032,2.481,1,1,0,0,0,.139,1.241l1.573,1.573L39.07,23.486,37.5,21.913a1,1,0,0,0-1.241-.139,8.071,8.071,0,0,1-2.48,1.031A1,1,0,0,0,33,23.78V26H31V23.78A1,1,0,0,0,30.224,22.805ZM14,41a3,3,0,1,1-3-3A3,3,0,0,1,14,41Zm21,0a3,3,0,1,1-3-3A3,3,0,0,1,35,41Zm18,3a3,3,0,1,1,3-3A3,3,0,0,1,53,44Z"></path><path d="M4.765,47.439c-.015.012-.03.021-.044.034A6.982,6.982,0,0,0,2,53v8a1,1,0,0,0,1,1H19a1,1,0,0,0,1-1V53a6.987,6.987,0,0,0-2.72-5.527c-.015-.013-.03-.022-.045-.034A6.957,6.957,0,0,0,13,46H9A6.957,6.957,0,0,0,4.765,47.439ZM15.434,48.66l-1.76,5.624-.649-3.259.737-2.948A4.929,4.929,0,0,1,15.434,48.66Zm-3,9.6L11.885,60h-1.77l-.544-1.737L10.82,52h.36ZM8.238,48.077l.737,2.948-.649,3.259L6.566,48.66A4.929,4.929,0,0,1,8.238,48.077ZM4,53a4.965,4.965,0,0,1,.926-2.88L8.019,60H4Zm14,0v7H13.981l3.093-9.88A4.965,4.965,0,0,1,18,53Zm-6.281-5-.5,2h-.438l-.5-2Z"></path></g></svg> 