<?xml version="1.0" encoding="UTF-8"?> <svg xmlns="http://www.w3.org/2000/svg" viewBox="0 0 64 64" width="512" height="512"><g id="Chart-3" data-name="Chart"><path d="M60,48H54V42a1,1,0,0,0-1-1H33V36H43a1,1,0,0,0,1-1V21a7.008,7.008,0,0,0-7-7H27a7.008,7.008,0,0,0-7,7V35a1,1,0,0,0,1,1H31v5H11a1,1,0,0,0-1,1v6H4a1,1,0,0,0-1,1V61a1,1,0,0,0,1,1H20a1,1,0,0,0,1-1V49a1,1,0,0,0-1-1H12V43H31v5H24a1,1,0,0,0-1,1V61a1,1,0,0,0,1,1H40a1,1,0,0,0,1-1V49a1,1,0,0,0-1-1H33V43H52v5H44a1,1,0,0,0-1,1V61a1,1,0,0,0,1,1H60a1,1,0,0,0,1-1V49A1,1,0,0,0,60,48ZM19,50V60H5V50ZM42,21V34H34.34l5.19-17.29A5,5,0,0,1,42,21Zm-6.38-5H37c.22,0,.43.04.64.06l-2.65,8.83-.95-5.73Zm-2.24,0-1,2h-.76l-1-2ZM22,34V21a5,5,0,0,1,2.47-4.29L29.66,34Zm7.01-9.11-2.65-8.83c.21-.02.42-.06.64-.06h1.38l1.58,3.16ZM39,50V60H25V50ZM32.26,34h-.52l-1.43-4.77L31.85,20h.3l1.54,9.23ZM59,60H45V50H59Z"></path><path d="M38,8a6,6,0,1,0-6,6A6.006,6.006,0,0,0,38,8Zm-6,4a4,4,0,1,1,4-4A4,4,0,0,1,32,12Z"></path></g></svg> 