<?xml version="1.0" encoding="UTF-8"?> <svg xmlns="http://www.w3.org/2000/svg" viewBox="0 0 64 64" width="512" height="512"><g id="Chart-4" data-name="Chart"><path d="M14,22a1,1,0,0,0,2,0V21a3,3,0,0,0,0-6H14a1,1,0,0,1,0-2h2a1,1,0,0,1,1,1,1,1,0,0,0,2,0,3,3,0,0,0-3-3V10a1,1,0,0,0-2,0v1a3,3,0,0,0,0,6h2a1,1,0,0,1,0,2H14a1,1,0,0,1-1-1,1,1,0,0,0-2,0,3,3,0,0,0,3,3Z"></path><path d="M59,40H58V8h1a3,3,0,0,0,0-6H5A3,3,0,0,0,5,8V40a3,3,0,0,0,0,6H30.037L19.2,60.4a1,1,0,1,0,1.6,1.2L24.261,57h15.5L43.2,61.6a1,1,0,0,0,1.6-1.2L34.037,46H59a3,3,0,0,0,0-6ZM25.767,55l6.271-8.333L38.267,55ZM4,5A1,1,0,0,1,5,4H59a1,1,0,0,1,0,2H5A1,1,0,0,1,4,5ZM7,8H56V40H7ZM59,44H5a1,1,0,0,1,0-2H59a1,1,0,0,1,0,2Z"></path><path d="M51,36H48V13a1,1,0,0,0-1-1H43a1,1,0,0,0-1,1V36H40V19a1,1,0,0,0-1-1H35a1,1,0,0,0-1,1V36H32V25a1,1,0,0,0-1-1H27a1,1,0,0,0-1,1V36H24V29a1,1,0,0,0-1-1H19a1,1,0,0,0-1,1v7H16V25a1,1,0,0,0-2,0V37a1,1,0,0,0,1,1H51a1,1,0,0,0,0-2ZM20,36V30h2v6Zm8,0V26h2V36Zm8,0V20h2V36Zm8,0V14h2V36Z"></path></g></svg> 