<?xml version="1.0" encoding="UTF-8"?> <svg xmlns="http://www.w3.org/2000/svg" id="Capa_1" height="512" viewBox="0 0 512 512" width="512"><g><circle cx="256" cy="256" fill="#2681ff" r="256"></circle><g><path d="m511.355 274.095-158.382-158.382-8.344 12.533-36.898-36.898-206.434 126.655 32.309 32.309v90.772l-47.309 30 33.75 33.75-14.026 7.77 93.028 93.028c18.316 4.162 37.375 6.368 56.951 6.368 135.3 0 246.07-104.966 255.355-237.905z" fill="#005fe0"></path></g><path d="m217.22 83.645c-8.137 0-14.733 6.596-14.733 14.733v27.335h53.513l10-21.034-10-21.034z" fill="#fff"></path><path d="m370.405 188.003h40.297v30h-40.297z" fill="#ffd300"></path><path d="m101.297 188.003h40.297v30h-40.297z" fill="#fff275"></path><path d="m309.513 98.378c0-8.137-6.596-14.733-14.733-14.733h-38.78v42.068h53.513z" fill="#e5eaee"></path><g><path d="m155.784 115.713-33.73 123.856h133.946l10-61.928-10-61.928z" fill="#ff9e22"></path><path d="m352.973 115.713h-96.973v123.856h133.946z" fill="#ff7037"></path></g><g><g><path d="m140.865 229.598c-21.853 0-39.567 17.715-39.567 39.568v86.919h154.702l10-61.54-10-64.946h-115.135z" fill="#fff275"></path><path d="m410.703 269.166c0-21.853-17.715-39.568-39.567-39.568h-115.136v126.486h154.703z" fill="#ffd300"></path></g><path d="m141.189 418.355h-22.054c-9.852 0-17.838-7.986-17.838-17.838v-29.432h57.73v29.432c0 9.851-7.986 17.838-17.838 17.838z" fill="#09607d"></path><path d="m392.865 418.355h-22.054c-9.852 0-17.838-7.986-17.838-17.838v-29.432h57.73v29.432c0 9.851-7.987 17.838-17.838 17.838z" fill="#04303e"></path><g><g><circle cx="155.784" cy="292.841" fill="#fff" r="24.973"></circle><path d="m117.514 294.544c0-21.136 17.134-38.27 38.27-38.27s38.27 17.134 38.27 38.27z" fill="#ff9e22"></path></g><g><circle cx="356.216" cy="292.841" fill="#e5eaee" r="24.973"></circle><path d="m317.946 294.544c0-21.136 17.134-38.27 38.27-38.27s38.27 17.134 38.27 38.27z" fill="#ff7037"></path></g></g></g><g><path d="m214.162 288.895v20h41.838l6-10-6-10z" fill="#09607d"></path><path d="m214.162 256.274v20h41.838l6-10-6-10z" fill="#09607d"></path><path d="m177.784 144.382-22 85.216h100.216l10-45.139-10-40.077z" fill="#9dcfff"></path><path d="m256 288.895h41.838v20h-41.838z" fill="#04303e"></path><path d="m256 256.274h41.838v20h-41.838z" fill="#04303e"></path><path d="m334.216 144.382h-78.216v85.216h100.216z" fill="#4cb8eb"></path></g><g><path d="m86.297 341.084v30h169.703l10-15-10-15z" fill="#9f9fa4"></path><path d="m256 341.084h169.703v30h-169.703z" fill="#7d8186"></path></g><path d="m197.541 326.084v30h58.459l10-15-10-15z" fill="#fff"></path><path d="m256 326.084h58.459v30h-58.459z" fill="#e5eaee"></path></g></svg> 