<?xml version="1.0" encoding="UTF-8"?> <svg xmlns="http://www.w3.org/2000/svg" viewBox="0 0 64 64" width="512" height="512"><g id="Chart-5" data-name="Chart"><path d="M45,12H61a1,1,0,0,0,1-1V3a1,1,0,0,0-1-1H45a1,1,0,0,0-1,1V6H41a1,1,0,0,0-.94.658l-2.6,7.15a18.9,18.9,0,0,0-19.583,5.527L12,14.526V12h7a1,1,0,0,0,1-1V3a1,1,0,0,0-1-1H3A1,1,0,0,0,2,3v8a1,1,0,0,0,1,1h7v3a1,1,0,0,0,.367.774l6.252,5.116A18.982,18.982,0,1,0,47.707,42.673L52,45.535V52H45a1,1,0,0,0-1,1v8a1,1,0,0,0,1,1H61a1,1,0,0,0,1-1V53a1,1,0,0,0-1-1H54V45a1,1,0,0,0-.445-.832l-4.81-3.206a18.98,18.98,0,0,0-9.4-26.483L41.7,8H44v3A1,1,0,0,0,45,12ZM4,4H18v6H4ZM60,60H46V54H60ZM15,32a16.893,16.893,0,0,1,3.166-9.845l3.2,2.619a1,1,0,1,0,1.266-1.548L19.425,20.6A16.933,16.933,0,0,1,31,15.051v33.9A17.007,17.007,0,0,1,15,32Zm32.067,7.843-2.512-1.675a1,1,0,0,0-1.11,1.664l2.6,1.732A16.989,16.989,0,0,1,33,48.949V32.578l14.18-8.187a16.847,16.847,0,0,1-.113,15.452Zm-.881-17.188L33,30.268V15.051a16.853,16.853,0,0,1,3.774.644l-.714,1.963a1,1,0,0,0,1.88.684l.72-1.98A17.1,17.1,0,0,1,46.186,22.655ZM46,4H60v6H46Z"></path><path d="M5,52H3a1,1,0,0,0,0,2H5a1,1,0,0,0,0-2Z"></path><path d="M5,56H3a1,1,0,0,0,0,2H5a1,1,0,0,0,0-2Z"></path><path d="M5,60H3a1,1,0,0,0,0,2H5a1,1,0,0,0,0-2Z"></path><path d="M21,52H9a1,1,0,0,0,0,2H21a1,1,0,0,0,0-2Z"></path><path d="M21,56H9a1,1,0,0,0,0,2H21a1,1,0,0,0,0-2Z"></path><path d="M21,60H9a1,1,0,0,0,0,2H21a1,1,0,0,0,0-2Z"></path></g></svg> 