<?xml version="1.0" encoding="UTF-8"?> <svg xmlns="http://www.w3.org/2000/svg" viewBox="0 0 64 64" width="512" height="512"><g id="Computer"><path d="M47,18H42a1,1,0,0,0,0,2h2.586L34,30.586l-7.293-7.293a1,1,0,0,0-1.414,0l-10,10a1,1,0,1,0,1.414,1.414L26,25.414l7.293,7.293a1,1,0,0,0,1.414,0L46,21.414V24a1,1,0,0,0,2,0V19A1,1,0,0,0,47,18Z"></path><path d="M59,8H5a3.009,3.009,0,0,0-3,3V47a3.009,3.009,0,0,0,3,3H25v4H21a3.009,3.009,0,0,0-3,3v4a1,1,0,0,0,1,1H45a1,1,0,0,0,1-1V57a3.009,3.009,0,0,0-3-3H39V50H59a3.009,3.009,0,0,0,3-3V11A3.009,3.009,0,0,0,59,8ZM43,56a1,1,0,0,1,1,1v3H20V57a1,1,0,0,1,1-1ZM27,54V50H37v4Zm33-7a1,1,0,0,1-1,1H5a1,1,0,0,1-1-1V44H60Zm0-5H4V11a1,1,0,0,1,1-1H59a1,1,0,0,1,1,1Z"></path><path d="M6,41H58a1,1,0,0,0,1-1V12a1,1,0,0,0-1-1H6a1,1,0,0,0-1,1V40A1,1,0,0,0,6,41ZM7,13H57V39H7Z"></path><path d="M55,45H53a1,1,0,0,0,0,2h2a1,1,0,0,0,0-2Z"></path></g></svg> 