<?xml version="1.0" encoding="UTF-8"?> <svg xmlns="http://www.w3.org/2000/svg" viewBox="0 0 64 64" width="512" height="512"><g id="Contract-2" data-name="Contract"><path d="M56,24H38a1.033,1.033,0,0,0-.71.29l-3.65,3.66a1,1,0,0,0,0,1.41l.87.88-3.4.84-1.17-1.17.71-.63a1.006,1.006,0,0,0,.33-.75.975.975,0,0,0-.34-.74l-3.98-3.54A1,1,0,0,0,26,24H8a1,1,0,0,0-1,1V36a1,1,0,0,0,.31.73L13.99,43a1.007,1.007,0,0,0,1.35.02l.45-.41c.02.02.03.05.05.07l4.36,4.36-1.41,1.42a2.983,2.983,0,0,0,1.96,5.1,2.963,2.963,0,0,0,2.83,2.83,2.943,2.943,0,0,0,2.83,2.83,2.987,2.987,0,0,0,5.1,1.96l1.42-1.41,1.41,1.41a2.928,2.928,0,0,0,2.07.88h.08a2.944,2.944,0,0,0,2.1-.88,3,3,0,0,0,.86-1.96,2.965,2.965,0,0,0,1.96-.86,3.012,3.012,0,0,0,.87-1.98,2.947,2.947,0,0,0,1.96-.85,3.009,3.009,0,0,0,.87-1.97,2.918,2.918,0,0,0,1.96-.86,3,3,0,0,0,0-4.24l-1.41-1.42,2.83-2.83.7.71a1.024,1.024,0,0,0,.71.29,1.007,1.007,0,0,0,.65-.24l6.1-5.21A1.011,1.011,0,0,0,57,39V25A1,1,0,0,0,56,24ZM14.69,40.91,9,35.57V26H25.62l2.86,2.54Zm6.92,10.37a1.014,1.014,0,0,1-1.41,0,.967.967,0,0,1-.29-.7.99.99,0,0,1,.29-.71l2.83-2.83a1,1,0,0,1,1.41,1.42Zm1.42,2.83a1,1,0,0,1,0-1.41l2.83-2.83a1,1,0,0,1,1.7.71.967.967,0,0,1-.29.7l-2.83,2.83A1,1,0,0,1,23.03,54.11Zm2.83,2.83a1,1,0,0,1,0-1.41l2.83-2.83a1,1,0,0,1,1.41,0,1,1,0,0,1,0,1.41l-2.83,2.83A1,1,0,0,1,25.86,56.94Zm7.07,0L30.1,59.77a1.005,1.005,0,0,1-1.71-.71.976.976,0,0,1,.3-.7l2.82-2.83a1.01,1.01,0,0,1,.71-.3,1.005,1.005,0,0,1,.71,1.71Zm12.73-5.66a1.03,1.03,0,0,1-.72.29.929.929,0,0,1-.7-.29l-.7-.7a1.008,1.008,0,0,0-1.42,0,1,1,0,0,0,0,1.41l.71.71a1.019,1.019,0,0,1,.29.7,1.007,1.007,0,0,1-.29.71,1.021,1.021,0,0,1-.72.29,1.01,1.01,0,0,1-.7-.29l-.7-.7a1.008,1.008,0,0,0-1.42,0,1,1,0,0,0,0,1.41l.71.71a1,1,0,0,1,0,1.41,1.057,1.057,0,0,1-.72.29.946.946,0,0,1-.69-.29l-.71-.71a1,1,0,0,0-1.42,1.42l.71.71a1,1,0,0,1,0,1.41,1.183,1.183,0,0,1-.72.29.961.961,0,0,1-.69-.29l-1.42-1.41a2.988,2.988,0,0,0-1.96-5.11,2.963,2.963,0,0,0-2.83-2.83,2.907,2.907,0,0,0-2.83-2.8,2.982,2.982,0,0,0-5.1-1.99l-4.35-4.35L28.45,31.25l.94.94-3.65,3.66a3,3,0,0,0,0,4.24,3.056,3.056,0,0,0,4.24,0l2.24-2.24a1.008,1.008,0,0,1,1.42,0l9.9,9.9,2.12,2.12A1,1,0,0,1,45.66,51.28Zm-1.42-5.65-9.19-9.2a3,3,0,0,0-4.24.01l-2.25,2.24a1,1,0,1,1-1.41-1.42l4.17-4.16,4.84-1.21L47.07,42.8ZM55,38.54l-5.05,4.31L35.76,28.66,38.41,26H55Z"></path><path d="M54,44a1,1,0,0,0-1,1V60H42a1,1,0,0,0,0,2H54a1,1,0,0,0,1-1V45A1,1,0,0,0,54,44Z"></path><path d="M10,23a1,1,0,0,0,1-1V4H53V22a1,1,0,0,0,2,0V3a1,1,0,0,0-1-1H10A1,1,0,0,0,9,3V22A1,1,0,0,0,10,23Z"></path><path d="M24,60H11V42a1,1,0,0,0-2,0V61a1,1,0,0,0,1,1H24a1,1,0,0,0,0-2Z"></path><path d="M24,8H40a1,1,0,0,0,0-2H24a1,1,0,0,0,0,2Z"></path><path d="M24,12H40a1,1,0,0,0,0-2H24a1,1,0,0,0,0,2Z"></path><path d="M48,14H16a1,1,0,0,0,0,2H48a1,1,0,0,0,0-2Z"></path><path d="M48,18H16a1,1,0,0,0,0,2H48a1,1,0,0,0,0-2Z"></path></g></svg> 