<?xml version="1.0" encoding="UTF-8"?> <svg xmlns="http://www.w3.org/2000/svg" height="512" viewBox="0 0 64 64" width="512"><g id="Contract"><path d="m56.26 37.85-15.55-15.56a1.008 1.008 0 0 0 -1.42 0l-5.65 5.66a1 1 0 0 0 0 1.41l.87.88-3.4.84-1.13-1.13.71-.71a1 1 0 0 0 0-1.41l-5.66-5.66a1 1 0 0 0 -1.41 0l-14.85 14.85a1.008 1.008 0 0 0 0 1.42l5.65 5.65a1.014 1.014 0 0 0 1.42 0l.7-.71 3.66 3.66-1.41 1.42a2.983 2.983 0 0 0 1.96 5.1 2.963 2.963 0 0 0 2.83 2.83 2.943 2.943 0 0 0 2.83 2.83 2.987 2.987 0 0 0 5.1 1.96l1.42-1.41 1.41 1.41a2.928 2.928 0 0 0 2.07.88h.08a2.944 2.944 0 0 0 2.1-.88 3 3 0 0 0 .86-1.96 2.965 2.965 0 0 0 1.96-.86 3.012 3.012 0 0 0 .87-1.98 2.947 2.947 0 0 0 1.96-.85 3.009 3.009 0 0 0 .87-1.97 2.918 2.918 0 0 0 1.96-.86 3 3 0 0 0 0-4.24l-1.41-1.42 2.83-2.83.7.71a.99.99 0 0 0 .71.29 1.007 1.007 0 0 0 .71-.29l5.65-5.66a1 1 0 0 0 0-1.41zm-41.13 4.12-4.24-4.24 13.43-13.44 4.24 4.25zm6.48 9.31a1.014 1.014 0 0 1 -1.41 0 .967.967 0 0 1 -.29-.7.99.99 0 0 1 .29-.71l2.83-2.83a1 1 0 0 1 1.41 1.42zm1.42 2.83a1 1 0 0 1 0-1.41l2.83-2.83a1 1 0 0 1 1.7.71.967.967 0 0 1 -.29.7l-2.83 2.83a1 1 0 0 1 -1.41 0zm2.83 2.83a1 1 0 0 1 0-1.41l2.83-2.83a1 1 0 0 1 1.41 0 1 1 0 0 1 0 1.41l-2.83 2.83a1 1 0 0 1 -1.41 0zm7.07 0-2.83 2.83a1.005 1.005 0 0 1 -1.71-.71.976.976 0 0 1 .3-.7l2.82-2.83a1.01 1.01 0 0 1 .71-.3 1.005 1.005 0 0 1 .71 1.71zm12.73-5.66a1.03 1.03 0 0 1 -.72.29.96.96 0 0 1 -.7-.29l-.7-.7a1.008 1.008 0 0 0 -1.42 0 1 1 0 0 0 0 1.41l.71.71a1.019 1.019 0 0 1 .29.7 1.007 1.007 0 0 1 -.29.71 1.039 1.039 0 0 1 -.72.29 1.01 1.01 0 0 1 -.7-.29l-.7-.7a1.008 1.008 0 0 0 -1.42 0 1 1 0 0 0 0 1.41l.71.71a1 1 0 0 1 0 1.41 1.021 1.021 0 0 1 -.72.29.931.931 0 0 1 -.69-.29l-.71-.71a1 1 0 0 0 -1.42 1.42l.71.71a1 1 0 0 1 0 1.41 1.183 1.183 0 0 1 -.72.29 1 1 0 0 1 -.69-.29l-1.42-1.41a2.988 2.988 0 0 0 -1.96-5.11 2.963 2.963 0 0 0 -2.83-2.83 2.907 2.907 0 0 0 -2.83-2.8 2.982 2.982 0 0 0 -5.1-1.99l-3.66-3.66 10.6-10.61.83.83-3.65 3.66a3 3 0 0 0 0 4.24 3.056 3.056 0 0 0 4.24 0l2.24-2.24a1.008 1.008 0 0 1 1.42 0l9.9 9.9 2.12 2.12a1 1 0 0 1 0 1.41zm-1.42-5.65-9.19-9.2a3 3 0 0 0 -4.24.01l-2.25 2.24a1 1 0 1 1 -1.41-1.42l4.17-4.16 4.84-1.21 10.91 10.91zm5.66-2.83-14.14-14.14 4.24-4.25 14.14 14.15z"></path><path d="m32 22a10 10 0 1 0 -10-10 10.011 10.011 0 0 0 10 10zm0-18a8 8 0 1 1 -8 8 8.009 8.009 0 0 1 8-8z"></path><path d="m33 15h-2a1 1 0 0 1 -1-1 1 1 0 0 0 -2 0 3 3 0 0 0 3 3v1a1 1 0 0 0 2 0v-1a3 3 0 0 0 0-6h-2a1 1 0 0 1 0-2h2a1 1 0 0 1 1 1 1 1 0 0 0 2 0 3 3 0 0 0 -3-3v-1a1 1 0 0 0 -2 0v1a3 3 0 0 0 0 6h2a1 1 0 0 1 0 2z"></path></g></svg> 