<?xml version="1.0" encoding="UTF-8"?> <svg xmlns="http://www.w3.org/2000/svg" viewBox="0 0 64 64" width="512" height="512"><g id="File"><path d="M22,42H16a1,1,0,0,1-1-1V35a1,1,0,0,1,1-1h6a1,1,0,0,1,1,1v6A1,1,0,0,1,22,42Zm-5-2h4V36H17Z"></path><path d="M48,37H26a1,1,0,0,1,0-2H48a1,1,0,0,1,0,2Z"></path><path d="M48,41H26a1,1,0,0,1,0-2H48a1,1,0,0,1,0,2Z"></path><path d="M22,55H16a1,1,0,0,1-1-1V48a1,1,0,0,1,1-1h6a1,1,0,0,1,1,1v6A1,1,0,0,1,22,55Zm-5-2h4V49H17Z"></path><path d="M48,50H26a1,1,0,0,1,0-2H48a1,1,0,0,1,0,2Z"></path><path d="M48,54H26a1,1,0,0,1,0-2H48a1,1,0,0,1,0,2Z"></path><path d="M54.707,12.293l-10-10A1,1,0,0,0,44,2H10A1,1,0,0,0,9,3V61a1,1,0,0,0,1,1H54a1,1,0,0,0,1-1V13A1,1,0,0,0,54.707,12.293ZM45,5.414,51.586,12H46a1,1,0,0,1-1-1ZM11,60V4H43v7a3,3,0,0,0,3,3h7V60Z"></path><path d="M16,16h6a1,1,0,0,0,0-2h-.7l4.466-5.36a1,1,0,1,0-1.536-1.28l-4.3,5.159-1.226-1.226a1,1,0,1,0-1.414,1.414L18.586,14H17V10h4a1,1,0,0,0,0-2H16a1,1,0,0,0-1,1v6A1,1,0,0,0,16,16Z"></path><path d="M28,11H38a1,1,0,0,0,0-2H28a1,1,0,0,0,0,2Z"></path><path d="M25,14a1,1,0,0,0,1,1H38a1,1,0,0,0,0-2H26A1,1,0,0,0,25,14Z"></path><path d="M48,22H28a1,1,0,0,0,0,2H48a1,1,0,0,0,0-2Z"></path><path d="M48,26H26a1,1,0,0,0,0,2H48a1,1,0,0,0,0-2Z"></path><path d="M22,27h-.7l4.466-5.36a1,1,0,0,0-1.536-1.28l-4.3,5.159-1.226-1.226a1,1,0,1,0-1.414,1.414L18.586,27H17V23h4a1,1,0,0,0,0-2H16a1,1,0,0,0-1,1v6a1,1,0,0,0,1,1h6a1,1,0,0,0,0-2Z"></path></g></svg> 