<?xml version="1.0" encoding="UTF-8"?> <svg xmlns="http://www.w3.org/2000/svg" viewBox="0 0 64 64" width="512" height="512"><g id="Files"><path d="M17,41V40a3,3,0,0,0,0-6H15a1,1,0,0,1,0-2h2a1,1,0,0,1,1,1,1,1,0,0,0,2,0,3,3,0,0,0-3-3V29a1,1,0,0,0-2,0v1a3,3,0,0,0,0,6h2a1,1,0,0,1,0,2H15a1,1,0,0,1-1-1,1,1,0,0,0-2,0,3,3,0,0,0,3,3v1a1,1,0,0,0,2,0Z"></path><path d="M26,35A10,10,0,1,0,16,45,10.011,10.011,0,0,0,26,35ZM8,35a8,8,0,1,1,8,8A8.009,8.009,0,0,1,8,35Z"></path><path d="M61,2H23a1,1,0,0,0-1,1V5H20a1,1,0,0,0-1,1V8H17a1,1,0,0,0-1,1V21a14,14,0,0,0,0,28V61a1,1,0,0,0,1,1H55a1,1,0,0,0,1-1V59h2a1,1,0,0,0,1-1V56h2a1,1,0,0,0,1-1V3A1,1,0,0,0,61,2ZM16,47A12,12,0,1,1,28,35,12.01,12.01,0,0,1,16,47ZM54,60H18V48.84a13.981,13.981,0,0,0,0-27.68V10H46v6a2.006,2.006,0,0,0,2,2h6ZM48,16V11.41L52.59,16Zm9,41H56V17a1.033,1.033,0,0,0-.29-.71l-8-8A1.033,1.033,0,0,0,47,8H21V7H57Zm3-3H59V6a1,1,0,0,0-1-1H24V4H60Z"></path><path d="M29,20H43a1,1,0,0,0,0-2H29a1,1,0,0,0,0,2Z"></path><path d="M44,23a1,1,0,0,0-1-1H29a1,1,0,0,0,0,2H43A1,1,0,0,0,44,23Z"></path><path d="M29,16H43a1,1,0,0,0,0-2H29a1,1,0,0,0,0,2Z"></path><path d="M25,14H23a1,1,0,0,0,0,2h2a1,1,0,0,0,0-2Z"></path><path d="M25,18H23a1,1,0,0,0,0,2h2a1,1,0,0,0,0-2Z"></path><path d="M51,56H50V39a1,1,0,0,0-1-1H45a1,1,0,0,0-1,1V56H42V45a1,1,0,0,0-1-1H37a1,1,0,0,0-1,1V56H34V49a1,1,0,0,0-1-1H29a1,1,0,0,0-1,1v7H27a1,1,0,0,0,0,2H51a1,1,0,0,0,0-2ZM32,56H30V50h2Zm8,0H38V46h2Zm8,0H46V40h2Z"></path><path d="M42,31a1,1,0,0,0,1,1h1.4L30.375,43.219a1,1,0,0,0,1.25,1.562L46,33.281V35a1,1,0,0,0,2,0V31a1,1,0,0,0-1-1H43A1,1,0,0,0,42,31Z"></path></g></svg> 