<?xml version="1.0" encoding="UTF-8"?> <svg xmlns="http://www.w3.org/2000/svg" viewBox="0 0 64 64" width="512" height="512"><g id="File-3" data-name="File"><path d="M47,45h2a1,1,0,0,1,1,1,1,1,0,0,0,2,0,3,3,0,0,0-3-3V42a1,1,0,0,0-2,0v1a3,3,0,0,0,0,6h2a1,1,0,0,1,0,2H47a1,1,0,0,1-1-1,1,1,0,0,0-2,0,3,3,0,0,0,3,3v1a1,1,0,0,0,2,0V53a3,3,0,0,0,0-6H47a1,1,0,0,1,0-2Z"></path><path d="M12,16H10a1,1,0,0,1-1-1,1,1,0,0,0-2,0,3,3,0,0,0,3,3v1a1,1,0,0,0,2,0V18a3,3,0,0,0,0-6H10a1,1,0,0,1,0-2h2a1,1,0,0,1,1,1,1,1,0,0,0,2,0,3,3,0,0,0-3-3V7a1,1,0,0,0-2,0V8a3,3,0,0,0,0,6h2a1,1,0,0,1,0,2Z"></path><path d="M53,33.45V31.24l2.89-5.79A1,1,0,0,0,55,24H49V13a1.033,1.033,0,0,0-.29-.71l-10-10A1.033,1.033,0,0,0,38,2H4A1,1,0,0,0,3,3V61a1,1,0,0,0,1,1H48c8.37,0,14-4.82,14-12C62,44.42,58.57,36.69,53,33.45ZM53.38,26l-2,4H44.62l-2-4ZM51,32v1H45V32ZM39,5.41,45.59,12H40a1,1,0,0,1-1-1ZM5,60V4H37v7a3.009,3.009,0,0,0,3,3h7V24H41a1,1,0,0,0-.89,1.45L43,31.24v2.22C37.43,36.69,34,44.42,34,50a11.116,11.116,0,0,0,5.74,10Zm43,0c-5.54,0-12-2.62-12-10,0-5.15,3.34-12.34,8.32-15h7.36C56.67,37.67,60,44.86,60,50,60,57.38,53.54,60,48,60Z"></path><path d="M32,8H18a1,1,0,0,0,0,2H32a1,1,0,0,0,0-2Z"></path><path d="M32,12H18a1,1,0,0,0,0,2H32a1,1,0,0,0,0-2Z"></path><path d="M32,16H18a1,1,0,0,0,0,2H32a1,1,0,0,0,0-2Z"></path><path d="M32,52H31V35a1,1,0,0,0-1-1H26a1,1,0,0,0-1,1V52H23V41a1,1,0,0,0-1-1H18a1,1,0,0,0-1,1V52H15V45a1,1,0,0,0-1-1H10a1,1,0,0,0-1,1v7H8a1,1,0,0,0,0,2H32a1,1,0,0,0,0-2ZM11,52V46h2v6Zm8,0V42h2V52Zm8,0V36h2V52Z"></path><path d="M11.219,38.625a1,1,0,0,0,1.406.156L27,27.28V29a1,1,0,0,0,2,0V25a1,1,0,0,0-1-1H24a1,1,0,0,0,0,2h1.4L11.375,37.219A1,1,0,0,0,11.219,38.625Z"></path></g></svg> 