<?xml version="1.0" encoding="UTF-8"?> <svg xmlns="http://www.w3.org/2000/svg" viewBox="0 0 64 64" width="512" height="512"><g id="File-4" data-name="File"><path d="M33,16H31a1,1,0,0,1-1-1,1,1,0,0,0-2,0,3,3,0,0,0,3,3v1a1,1,0,0,0,2,0V18a3,3,0,0,0,0-6H31a1,1,0,0,1,0-2h2a1,1,0,0,1,1,1,1,1,0,0,0,2,0,3,3,0,0,0-3-3V7a1,1,0,0,0-2,0V8a3,3,0,0,0,0,6h2a1,1,0,0,1,0,2Z"></path><path d="M58,12a1,1,0,0,0,1-1V7a5,5,0,0,0-5-5H16a5,5,0,0,0-5,5V52H6a1,1,0,0,0-1,1v4a5,5,0,0,0,5,5H46a5,5,0,0,0,5-5V32.48l7.46-12.92a2.986,2.986,0,0,0,.3-2.28,2.936,2.936,0,0,0-1.39-1.82l-1.74-1a2.956,2.956,0,0,0-2.27-.3,2.916,2.916,0,0,0-1.82,1.4l-.54.92V12ZM51,6a2.006,2.006,0,0,1,2-2h1a3.009,3.009,0,0,1,3,3v3H51ZM10,60a3.009,3.009,0,0,1-3-3V54H41v3a4.951,4.951,0,0,0,1.03,3Zm39-3a3,3,0,1,1-6,0V53a1,1,0,0,0-1-1H13V7a3.009,3.009,0,0,1,3-3H49.56A3.906,3.906,0,0,0,49,6V17.55l-.7-.4a1,1,0,0,0-1.36.37l-3,5.2a1,1,0,0,0,.36,1.36,1.022,1.022,0,0,0,.5.14,1.006,1.006,0,0,0,.87-.5l2.5-4.34.87.51-9.5,16.45-2,3.46a1.032,1.032,0,0,0-.14.44L37.06,46H24a1,1,0,0,0,0,2H38a1.99,1.99,0,0,0,.55-.17l5.6-3.69a.919.919,0,0,0,.31-.34l2-3.46L49,35.95ZM39.77,39.94l1-1.73,3.46,2-1,1.73Zm1.93,3.42-2.58,1.7.18-3.08ZM53.27,16.55a1,1,0,0,1,1.36-.36l1.74,1a1.01,1.01,0,0,1,.36,1.37l-1.5,2.59-3.46-2Zm.96,6.34-9,15.58-3.46-2,9-15.58Z"></path><path d="M24,42H34a1,1,0,0,0,0-2H24a1,1,0,0,0,0,2Z"></path><path d="M24,36H34a1,1,0,0,0,0-2H24a1,1,0,0,0,0,2Z"></path><path d="M24,30H38a1,1,0,0,0,0-2H24a1,1,0,0,0,0,2Z"></path><path d="M24,24H38a1,1,0,0,0,0-2H24a1,1,0,0,0,0,2Z"></path><path d="M20,22H18a1,1,0,0,0,0,2h2a1,1,0,0,0,0-2Z"></path><path d="M20,28H18a1,1,0,0,0,0,2h2a1,1,0,0,0,0-2Z"></path><path d="M20,34H18a1,1,0,0,0,0,2h2a1,1,0,0,0,0-2Z"></path><path d="M20,40H18a1,1,0,0,0,0,2h2a1,1,0,0,0,0-2Z"></path></g></svg> 