<?xml version="1.0" encoding="UTF-8"?> <svg xmlns="http://www.w3.org/2000/svg" viewBox="0 0 64 64" width="512" height="512"><g id="Flowchart"><path d="M57,2H13A5,5,0,0,0,8,7V52H3a1,1,0,0,0-1,1v4a5,5,0,0,0,5,5H49a5,5,0,0,0,5-5V12h7a1,1,0,0,0,1-1V7A5,5,0,0,0,57,2ZM7,60a3.009,3.009,0,0,1-3-3V54H44v3a4.924,4.924,0,0,0,1.03,3ZM52,6V57a3,3,0,0,1-6,0V53a1,1,0,0,0-1-1H10V7a3.009,3.009,0,0,1,3-3H52.56A3.906,3.906,0,0,0,52,6Zm8,4H54V6a2.006,2.006,0,0,1,2-2h1a3.009,3.009,0,0,1,3,3Z"></path><path d="M47,32H42V27a1,1,0,0,0-1-1H32V20h5a1,1,0,0,0,1-1V13a1,1,0,0,0-1-1H25a1,1,0,0,0-1,1v6a1,1,0,0,0,1,1h5v6H21a1,1,0,0,0-1,1v5H15a1,1,0,0,0-1,1v6a1,1,0,0,0,1,1H27a1,1,0,0,0,1-1V33a1,1,0,0,0-1-1H22V28H40v4H35a1,1,0,0,0-1,1v6a1,1,0,0,0,1,1H47a1,1,0,0,0,1-1V33A1,1,0,0,0,47,32ZM26,14H36v4H26Zm0,24H16V34H26Zm20,0H36V34H46Z"></path><path d="M25,10h1a1,1,0,0,0,0-2H25a1,1,0,0,0,0,2Z"></path><path d="M16,42H15a1,1,0,0,0,0,2h1a1,1,0,0,0,0-2Z"></path><path d="M16,45H15a1,1,0,0,0,0,2h1a1,1,0,0,0,0-2Z"></path><path d="M36,42H35a1,1,0,0,0,0,2h1a1,1,0,0,0,0-2Z"></path><path d="M36,45H35a1,1,0,0,0,0,2h1a1,1,0,0,0,0-2Z"></path><path d="M30,10h7a1,1,0,0,0,0-2H30a1,1,0,0,0,0,2Z"></path><path d="M26,42H20a1,1,0,0,0,0,2h6a1,1,0,0,0,0-2Z"></path><path d="M26,45H20a1,1,0,0,0,0,2h6a1,1,0,0,0,0-2Z"></path><path d="M46,42H40a1,1,0,0,0,0,2h6a1,1,0,0,0,0-2Z"></path><path d="M46,45H40a1,1,0,0,0,0,2h6a1,1,0,0,0,0-2Z"></path></g></svg> 