<?xml version="1.0" encoding="UTF-8"?> <svg xmlns="http://www.w3.org/2000/svg" viewBox="0 0 64 64" width="512" height="512"><g id="Gear"><path d="M61,27H55.467a23.839,23.839,0,0,0-3.337-8.057l3.908-3.917a1,1,0,0,0,0-1.413l-5.65-5.65a1,1,0,0,0-1.413,0L45.057,11.87A23.856,23.856,0,0,0,37,8.533V3a1,1,0,0,0-1-1H28a1,1,0,0,0-1,1V8.533a23.856,23.856,0,0,0-8.057,3.337L15.026,7.962a1,1,0,0,0-1.413,0l-5.65,5.65a1,1,0,0,0,0,1.413l3.908,3.917A23.839,23.839,0,0,0,8.533,27H3a1,1,0,0,0-1,1v8a1,1,0,0,0,1,1H8.533a23.839,23.839,0,0,0,3.337,8.057L7.962,48.974a1,1,0,0,0,0,1.413l5.65,5.65a1,1,0,0,0,1.413,0l3.917-3.908A23.856,23.856,0,0,0,27,55.467V61a1,1,0,0,0,1,1h8a1,1,0,0,0,1-1V55.467a23.856,23.856,0,0,0,8.057-3.337l3.917,3.908a1,1,0,0,0,1.413,0l5.65-5.65a1,1,0,0,0,0-1.413L52.13,45.057A23.839,23.839,0,0,0,55.467,37H61a1,1,0,0,0,1-1V28A1,1,0,0,0,61,27Zm-1,8H54.64a1,1,0,0,0-.986.831,21.789,21.789,0,0,1-3.633,8.774,1,1,0,0,0,.111,1.282l3.785,3.792-4.238,4.238-3.793-3.785a1,1,0,0,0-1.282-.111,21.777,21.777,0,0,1-8.774,3.634,1,1,0,0,0-.83.985V60H29V54.64a1,1,0,0,0-.83-.985A21.777,21.777,0,0,1,19.4,50.021a1,1,0,0,0-1.282.111l-3.793,3.785-4.238-4.238,3.785-3.792a1,1,0,0,0,.111-1.282,21.789,21.789,0,0,1-3.633-8.774A1,1,0,0,0,9.36,35H4V29H9.36a1,1,0,0,0,.986-.831A21.789,21.789,0,0,1,13.979,19.4a1,1,0,0,0-.111-1.282l-3.785-3.792,4.238-4.238,3.793,3.785a1,1,0,0,0,1.282.111,21.777,21.777,0,0,1,8.774-3.634A1,1,0,0,0,29,9.36V4h6V9.36a1,1,0,0,0,.83.985A21.777,21.777,0,0,1,44.6,13.979a1,1,0,0,0,1.282-.111l3.793-3.785,4.238,4.238-3.785,3.792a1,1,0,0,0-.111,1.282,21.789,21.789,0,0,1,3.633,8.774A1,1,0,0,0,54.64,29H60Z"></path><path d="M32,14A18,18,0,1,0,50,32,18.021,18.021,0,0,0,32,14Zm0,34A16,16,0,1,1,48,32,16.019,16.019,0,0,1,32,48Z"></path><path d="M32,19A13,13,0,1,0,45,32,13.015,13.015,0,0,0,32,19Zm1,2.051a10.946,10.946,0,0,1,6.034,2.5L33,29.586ZM21,32A11.01,11.01,0,0,1,31,21.051V32a1,1,0,0,0,.293.707l7.741,7.741A10.992,10.992,0,0,1,21,32Zm19.448,7.034L33.414,32l7.034-7.034a10.97,10.97,0,0,1,0,14.068Z"></path></g></svg> 