<?xml version="1.0" encoding="UTF-8"?> <svg xmlns="http://www.w3.org/2000/svg" viewBox="0 0 64 64" width="512" height="512"><g id="Global"><path d="M49,19H47a1,1,0,0,1-1-1,1,1,0,0,0-2,0,3,3,0,0,0,3,3v1a1,1,0,0,0,2,0V21a3,3,0,0,0,0-6H47a1,1,0,0,1,0-2h2a1,1,0,0,1,1,1,1,1,0,0,0,2,0,3,3,0,0,0-3-3V10a1,1,0,0,0-2,0v1a3,3,0,0,0,0,6h2a1,1,0,0,1,0,2Z"></path><path d="M3,13H6V23a1,1,0,0,0,1,1h6a1,1,0,0,0,1-1V13h3a1,1,0,0,0,.789-1.614l-7-9a1.035,1.035,0,0,0-1.578,0l-7,9A1,1,0,0,0,3,13Zm7-8.371L14.955,11H13a1,1,0,0,0-1,1V22H8V12a1,1,0,0,0-1-1H5.045Z"></path><path d="M56.006,32.007c-.014-.018-.034-.026-.048-.043a30.162,30.162,0,0,0-2.6-3.034,14,14,0,1,0-18.736-8.808c-.682-.058-1.345-.1-1.977-.1C32.437,20.01,32.219,20,32,20A29.969,29.969,0,0,0,8.052,31.955c-.018.02-.042.03-.058.052s-.013.035-.024.052A29.951,29.951,0,0,0,4.246,61.382,1,1,0,0,0,5.17,62H58.83a1,1,0,0,0,.924-.618A29.666,29.666,0,0,0,62,50a30.081,30.081,0,0,0-5.97-17.942C56.019,32.042,56.017,32.023,56.006,32.007ZM48.985,49a50.254,50.254,0,0,0-1.5-11.435,31.354,31.354,0,0,0,7.455-3.6A28.081,28.081,0,0,1,59.974,49ZM33,60V51H46.974a48.148,48.148,0,0,1-.995,9ZM18.021,60a48.148,48.148,0,0,1-1-9H31v9Zm-14-11A27.825,27.825,0,0,1,9.062,33.972a31.333,31.333,0,0,0,7.471,3.6A49.463,49.463,0,0,0,15.014,49ZM31,22.069V37.982a47.524,47.524,0,0,1-12.057-1.738C21.366,28.26,25.828,22.708,31,22.069Zm-12.591,16.1A49.62,49.62,0,0,0,31,39.982V49H17.014A48.521,48.521,0,0,1,18.409,38.171ZM33,49V39.982a49.61,49.61,0,0,0,12.584-1.809A48.32,48.32,0,0,1,46.985,49ZM53.761,32.385a30.028,30.028,0,0,1-6.807,3.268,35.519,35.519,0,0,0-2.482-6.121,13.546,13.546,0,0,0,6.72.087A28.042,28.042,0,0,1,53.761,32.385ZM48,4A12,12,0,1,1,36,16,12.013,12.013,0,0,1,48,4ZM41.483,28.381a30.945,30.945,0,0,1,3.564,7.866A47.549,47.549,0,0,1,33,37.982V22.038c.8.021,1.618.084,2.479.188A14.084,14.084,0,0,0,41.483,28.381ZM24.593,23c-3.19,2.737-5.826,7.182-7.522,12.659a30.018,30.018,0,0,1-6.821-3.269A28.063,28.063,0,0,1,24.593,23ZM4.024,51h11a50.324,50.324,0,0,0,.957,9H5.856A27.6,27.6,0,0,1,4.024,51Zm54.12,9H48.017a50.314,50.314,0,0,0,.957-9h11A27.6,27.6,0,0,1,58.144,60Z"></path><path d="M48,26A10,10,0,1,0,38,16,10.011,10.011,0,0,0,48,26ZM48,8a8,8,0,1,1-8,8A8.009,8.009,0,0,1,48,8Z"></path></g></svg> 