<?xml version="1.0" encoding="UTF-8"?> <svg xmlns="http://www.w3.org/2000/svg" viewBox="0 0 64 64" width="512" height="512"><g id="Growth"><path d="M42,10h2a1,1,0,0,1,1,1,1,1,0,0,0,2,0,3,3,0,0,0-3-3V7a1,1,0,0,0-2,0V8a3,3,0,0,0,0,6h2a1,1,0,0,1,0,2H42a1,1,0,0,1-1-1,1,1,0,0,0-2,0,3,3,0,0,0,3,3v1a1,1,0,0,0,2,0V18a3,3,0,0,0,0-6H42a1,1,0,0,1,0-2Z"></path><path d="M61,24a1,1,0,0,0,1-1V3a1,1,0,0,0-1-1H25a1,1,0,0,0-1,1V23a1,1,0,0,0,1,1H42v8.36A8.96,8.96,0,0,0,35,29H31a1,1,0,0,0-1,1,9.014,9.014,0,0,0,9,9h3v2H33.83a1.052,1.052,0,0,1-.71-.29l-.24-.25A4.988,4.988,0,0,0,29.35,39H21.66c-.15,0-.3.01-.5.02a5.1,5.1,0,0,0-3.04,1.44L15.5,43.09l-.93-.94a1.033,1.033,0,0,0-.71-.29h-.01a1.017,1.017,0,0,0-.71.3L2.28,53.3A1.017,1.017,0,0,0,2,54v7a1,1,0,0,0,1,1H24a1.033,1.033,0,0,0,.71-.29l4-4a1.008,1.008,0,0,0,0-1.42l-.8-.79.21-.21a1.052,1.052,0,0,1,.71-.29h13.1a4.9,4.9,0,0,0,2.5-.67l15.52-8.96a4.005,4.005,0,0,0-4-6.94l-10.04,5.8A3.916,3.916,0,0,0,44.66,42a4.122,4.122,0,0,0-.66-.46V36h3a9.014,9.014,0,0,0,9-9,1,1,0,0,0-1-1H51a8.96,8.96,0,0,0-7,3.36V24ZM39,37a7.013,7.013,0,0,1-6.93-6H35a7.013,7.013,0,0,1,6.93,6Zm12-9h2.93A7.013,7.013,0,0,1,47,34H44.07A7.013,7.013,0,0,1,51,28Zm9-6H56.1A5.01,5.01,0,0,1,60,18.1ZM60,4V7.9A5.01,5.01,0,0,1,56.1,4ZM26,4h3.9A5.01,5.01,0,0,1,26,7.9Zm0,18V17.09A5.992,5.992,0,0,1,30.91,22ZM23.59,60H4V54.41l9.87-10.13L26.59,57ZM44.83,47.83a4.053,4.053,0,0,0,.78-1.12l11.34-6.54a1.991,1.991,0,0,1,1.91-.04,1.85,1.85,0,0,1,.82.77,1.949,1.949,0,0,1,.27,1,1.97,1.97,0,0,1-1,1.73L43.42,52.6a2.942,2.942,0,0,1-1.49.4H28.83a2.956,2.956,0,0,0-2.12.88l-.21.21L16.91,44.5l2.63-2.62a2.936,2.936,0,0,1,1.8-.86c.12-.01.22-.02.32-.02h7.69a2.933,2.933,0,0,1,2.11.88l.25.24a2.956,2.956,0,0,0,2.12.88h8.16a2.02,2.02,0,0,1,1.34.5,1.913,1.913,0,0,1,.66,1.29,1.777,1.777,0,0,1-.13.91,1.862,1.862,0,0,1-.45.71A1.983,1.983,0,0,1,42,47H35.42a1,1,0,0,0,0,2H42A4,4,0,0,0,44.83,47.83ZM32.93,22A8,8,0,0,0,26,15.07V9.92A7,7,0,0,0,31.92,4H54.08A7,7,0,0,0,60,9.92v6.16A7,7,0,0,0,54.08,22Z"></path><path d="M54,12H52a1,1,0,0,0,0,2h2a1,1,0,0,0,0-2Z"></path><path d="M34,12H32a1,1,0,0,0,0,2h2a1,1,0,0,0,0-2Z"></path></g></svg> 