<?xml version="1.0" encoding="UTF-8"?> <svg xmlns="http://www.w3.org/2000/svg" viewBox="0 0 64 64" width="512" height="512"><g id="Human"><path d="M20,8a6,6,0,1,0-6,6A6.006,6.006,0,0,0,20,8Zm-6,4a4,4,0,1,1,4-4A4,4,0,0,1,14,12Z"></path><path d="M19,14H9a7.008,7.008,0,0,0-7,7V35a1,1,0,0,0,1,1H25a1,1,0,0,0,1-1V21A7.008,7.008,0,0,0,19,14Zm-3.62,2-1,2h-.76l-1-2ZM4,34V21a5,5,0,0,1,2.47-4.29L11.66,34Zm7.01-9.11L8.36,16.06c.21-.02.42-.06.64-.06h1.38l1.58,3.16ZM14.26,34h-.52l-1.43-4.77L13.85,20h.3l1.54,9.23Zm3.36-18H19c.22,0,.43.04.64.06l-2.65,8.83-.95-5.73ZM24,34H16.34l5.19-17.29A5,5,0,0,1,24,21Z"></path><path d="M55,40H45a7.008,7.008,0,0,0-7,7V61a1,1,0,0,0,1,1H61a1,1,0,0,0,1-1V47A7.008,7.008,0,0,0,55,40Zm-3.62,2-1,2h-.76l-1-2ZM40,60V47a5,5,0,0,1,2.47-4.29L47.66,60Zm7.01-9.11-2.65-8.83c.21-.02.42-.06.64-.06h1.38l1.58,3.16ZM50.26,60h-.52l-1.43-4.77L49.85,46h.3l1.54,9.23Zm3.36-18H55c.22,0,.43.04.64.06l-2.65,8.83-.95-5.73ZM60,60H52.34l5.19-17.29A5,5,0,0,1,60,47Z"></path><path d="M56,34a6,6,0,1,0-6,6A6.006,6.006,0,0,0,56,34Zm-6,4a4,4,0,1,1,4-4A4,4,0,0,1,50,38Z"></path><path d="M32.962,56.982Q32.484,57,32,57A24.932,24.932,0,0,1,9.907,43.69l3.777,1.259a1,1,0,0,0,.632-1.9l-6-2a1,1,0,0,0-1.3.784l-1,6a1,1,0,0,0,.822,1.151A.927.927,0,0,0,7,49a1,1,0,0,0,.985-.835l.49-2.935A26.919,26.919,0,0,0,32,59c.348,0,.693-.006,1.038-.02A1,1,0,0,0,34,57.943,1.018,1.018,0,0,0,32.962,56.982Z"></path><path d="M25.269,7.917A25.014,25.014,0,0,1,55.332,23.048l-3.885-1.943a1,1,0,0,0-.894,1.79l6,3a1,1,0,0,0,1.4-.579l2-6a1,1,0,1,0-1.9-.632l-1.045,3.132A27.032,27.032,0,0,0,24.731,5.99a1,1,0,0,0,.538,1.927Z"></path></g></svg> 