<?xml version="1.0" encoding="UTF-8"?> <svg xmlns="http://www.w3.org/2000/svg" viewBox="0 0 64 64" width="512" height="512"><g id="Insurance"><path d="M11,41h2a1,1,0,0,1,1,1,1,1,0,0,0,2,0,3,3,0,0,0-3-3V38a1,1,0,0,0-2,0v1a3,3,0,0,0,0,6h2a1,1,0,0,1,0,2H11a1,1,0,0,1-1-1,1,1,0,0,0-2,0,3,3,0,0,0,3,3v1a1,1,0,0,0,2,0V49a3,3,0,0,0,0-6H11a1,1,0,0,1,0-2Z"></path><path d="M12,34A10,10,0,1,0,22,44,10.011,10.011,0,0,0,12,34Zm0,18a8,8,0,1,1,8-8A8.009,8.009,0,0,1,12,52Z"></path><path d="M35,6.166V5a3.015,3.015,0,0,0-3-3,3,3,0,0,0-3,3V6.166a28.145,28.145,0,0,0-24.99,27.3,1,1,0,0,0,2,.078A8,8,0,0,1,22,34a1,1,0,0,0,2,0,8.009,8.009,0,0,1,5-7.411V55a1,1,0,0,1-2,0V52a3,3,0,0,0-6,0v3a7,7,0,0,0,14,0V26.589A8.009,8.009,0,0,1,40,34a1,1,0,0,0,2,0,8,8,0,0,1,15.992-.461.987.987,0,0,0,1.037.94,1,1,0,0,0,.961-1.018A28.145,28.145,0,0,0,35,6.166ZM31,5a1,1,0,0,1,1-1,.974.974,0,0,1,.712.306A.957.957,0,0,1,33,5V6.025C32.684,6.014,32.369,6,32.051,6h-.1c-.318,0-.633.013-.949.024ZM14,24a9.975,9.975,0,0,0-6.989,2.854A26.2,26.2,0,0,1,29.446,8.139,28,28,0,0,0,22,27v1.043A9.971,9.971,0,0,0,14,24ZM33,55a5,5,0,0,1-10,0V52a1,1,0,0,1,2,0v3a3,3,0,0,0,6,0V26.069a7.281,7.281,0,0,1,2,0ZM32,24a9.971,9.971,0,0,0-8,4.043V27A26.066,26.066,0,0,1,32,8.382,26.066,26.066,0,0,1,40,27v1.043A9.971,9.971,0,0,0,32,24Zm18,0a9.971,9.971,0,0,0-8,4.043V27A28,28,0,0,0,34.554,8.139,26.2,26.2,0,0,1,56.989,26.854,9.975,9.975,0,0,0,50,24Z"></path><path d="M61,37H37a1,1,0,0,0-1,1V52a1,1,0,0,0,1,1H61a1,1,0,0,0,1-1V38A1,1,0,0,0,61,37ZM56.1,51H41.9A5.016,5.016,0,0,0,38,47.1V42.9A5.016,5.016,0,0,0,41.9,39H56.1A5.016,5.016,0,0,0,60,42.9v4.2A5.016,5.016,0,0,0,56.1,51ZM60,40.816A3,3,0,0,1,58.184,39H60ZM39.816,39A3,3,0,0,1,38,40.816V39ZM38,49.184A3,3,0,0,1,39.816,51H38ZM58.184,51A3,3,0,0,1,60,49.184V51Z"></path><path d="M49,41a4,4,0,1,0,4,4A4,4,0,0,0,49,41Zm0,6a2,2,0,1,1,2-2A2,2,0,0,1,49,47Z"></path><path d="M57,44H56a1,1,0,0,0,0,2h1a1,1,0,0,0,0-2Z"></path><path d="M42,44H41a1,1,0,0,0,0,2h1a1,1,0,0,0,0-2Z"></path></g></svg> 