<?xml version="1.0" encoding="UTF-8"?> <svg xmlns="http://www.w3.org/2000/svg" viewBox="0 0 64 64" width="512" height="512"><g id="Lamp-2" data-name="Lamp"><path d="M59,8H57a1,1,0,0,1,0-2h2a1,1,0,0,1,1,1,1,1,0,0,0,2,0,3,3,0,0,0-3-3V3a1,1,0,0,0-2,0V4a3,3,0,0,0,0,6h2a1,1,0,0,1,0,2H57a1,1,0,0,1-1-1,1,1,0,0,0-2,0,3,3,0,0,0,3,3v1a1,1,0,0,0,2,0V14a3,3,0,0,0,0-6Z"></path><path d="M57,46h2a1,1,0,0,1,1,1,1,1,0,0,0,2,0,3,3,0,0,0-3-3V43a1,1,0,0,0-2,0v1a3,3,0,0,0,0,6h2a1,1,0,0,1,0,2H57a1,1,0,0,1-1-1,1,1,0,0,0-2,0,3,3,0,0,0,3,3v1a1,1,0,0,0,2,0V54a3,3,0,0,0,0-6H57a1,1,0,0,1,0-2Z"></path><path d="M5,46H7a1,1,0,0,1,1,1,1,1,0,0,0,2,0,3,3,0,0,0-3-3V43a1,1,0,0,0-2,0v1a3,3,0,0,0,0,6H7a1,1,0,0,1,0,2H5a1,1,0,0,1-1-1,1,1,0,0,0-2,0,3,3,0,0,0,3,3v1a1,1,0,0,0,2,0V54a3,3,0,0,0,0-6H5a1,1,0,0,1,0-2Z"></path><path d="M7,12H5a1,1,0,0,1-1-1,1,1,0,0,0-2,0,3,3,0,0,0,3,3v1a1,1,0,0,0,2,0V14A3,3,0,0,0,7,8H5A1,1,0,0,1,5,6H7A1,1,0,0,1,8,7a1,1,0,0,0,2,0A3,3,0,0,0,7,4V3A1,1,0,0,0,5,3V4a3,3,0,0,0,0,6H7a1,1,0,0,1,0,2Z"></path><path d="M46,25H42.247c-.057-.144-.114-.283-.174-.418l2.655-2.655a1,1,0,0,0,0-1.414l-4.241-4.24a1,1,0,0,0-1.414,0l-2.654,2.654c-.136-.059-.275-.117-.419-.174V15a1,1,0,0,0-1-1H29a1,1,0,0,0-1,1v3.753c-.144.057-.283.115-.419.174l-2.654-2.654a1.029,1.029,0,0,0-1.414,0l-4.24,4.24a1,1,0,0,0,0,1.414l2.654,2.655c-.06.135-.117.274-.174.418H18a1,1,0,0,0-1,1v6a1,1,0,0,0,1,1h3.753c.057.144.114.283.174.418l-2.654,2.655a1,1,0,0,0,0,1.414l4.24,4.24a1,1,0,0,0,1.414,0l2.654-2.654c.136.059.275.117.419.174V43a1,1,0,0,0,1,1h6a1,1,0,0,0,1-1V39.247c.144-.057.283-.115.419-.174l2.654,2.654a1,1,0,0,0,1.414,0l4.241-4.24a1,1,0,0,0,0-1.414l-2.655-2.655c.06-.135.117-.274.174-.418H46a1,1,0,0,0,1-1V26A1,1,0,0,0,46,25Zm-1,6H41.54a1,1,0,0,0-.952.694,8.225,8.225,0,0,1-.605,1.446,1,1,0,0,0,.17,1.187l2.453,2.453L39.78,39.606l-2.453-2.453a1,1,0,0,0-1.188-.17,8.112,8.112,0,0,1-1.446.605A1,1,0,0,0,34,38.54V42H30V38.54a1,1,0,0,0-.693-.952,8.112,8.112,0,0,1-1.446-.605,1,1,0,0,0-1.188.17L24.22,39.606,21.4,36.78l2.452-2.453a1,1,0,0,0,.17-1.187,8.225,8.225,0,0,1-.605-1.446A1,1,0,0,0,22.46,31H19V27h3.46a1,1,0,0,0,.952-.694,8.225,8.225,0,0,1,.605-1.446,1,1,0,0,0-.17-1.187L21.4,21.22l2.825-2.826,2.453,2.453a1,1,0,0,0,1.188.17,8.112,8.112,0,0,1,1.446-.605A1,1,0,0,0,30,19.46V16h4v3.46a1,1,0,0,0,.693.952,8.112,8.112,0,0,1,1.446.605,1,1,0,0,0,1.188-.17l2.453-2.453,2.826,2.826-2.453,2.453a1,1,0,0,0-.17,1.187,8.225,8.225,0,0,1,.605,1.446A1,1,0,0,0,41.54,27H45Z"></path><path d="M32,23a6,6,0,1,0,6,6A6.006,6.006,0,0,0,32,23Zm0,10a4,4,0,1,1,4-4A4,4,0,0,1,32,33Z"></path><path d="M53.877,42.463l-3.42-3.42A20.96,20.96,0,0,0,53,29.376a20.7,20.7,0,0,0-2.6-10.358l3.481-3.481a1,1,0,0,0-1.414-1.414l-3.144,3.144A21.025,21.025,0,0,0,33.163,8.031a20.815,20.815,0,0,0-15.606,5.721,21.205,21.205,0,0,0-2.935,3.456l-3.085-3.085a1,1,0,0,0-1.414,1.414l3.423,3.423a20.957,20.957,0,0,0,.02,20.06l-3.443,3.443a1,1,0,1,0,1.414,1.414l3.094-3.094a20.979,20.979,0,0,0,6.923,6.439A4.942,4.942,0,0,1,24,51.515V59a3,3,0,0,0,3,3H37a3,3,0,0,0,3-3V51.517a5.094,5.094,0,0,1,2.61-4.391,21.038,21.038,0,0,0,6.782-6.32l3.071,3.071a1,1,0,0,0,1.414-1.414ZM38,59a1,1,0,0,1-1,1H27a1,1,0,0,1-1-1V58H38Zm0-3H26V54H38Zm3.6-10.6A7.074,7.074,0,0,0,38,51.517V52H26v-.485a6.947,6.947,0,0,0-3.45-6.028A19.056,19.056,0,0,1,13,29,19,19,0,0,1,33.056,10.028,19.154,19.154,0,0,1,51,29.341,18.871,18.871,0,0,1,41.6,45.4Z"></path></g></svg> 