<?xml version="1.0" encoding="UTF-8"?> <svg xmlns="http://www.w3.org/2000/svg" viewBox="0 0 64 64" width="512" height="512"><g id="Lamp-3" data-name="Lamp"><path d="M30,6a1,1,0,0,0,1-1V3a1,1,0,0,0-2,0V5A1,1,0,0,0,30,6Z"></path><path d="M16.634,8.849a1,1,0,1,0,1.732-1l-1-1.732a1,1,0,0,0-1.732,1Z"></path><path d="M6.117,17.366l1.733,1a1,1,0,1,0,1-1.732l-1.733-1a1,1,0,0,0-1,1.732Z"></path><path d="M6,30a1,1,0,0,0-1-1H3a1,1,0,0,0,0,2H5A1,1,0,0,0,6,30Z"></path><path d="M7.85,41.634l-1.733,1a1,1,0,1,0,1,1.732l1.733-1a1,1,0,1,0-1-1.732Z"></path><path d="M18,50.785a1,1,0,0,0-1.366.366l-1,1.732a1,1,0,1,0,1.732,1l1-1.732A1,1,0,0,0,18,50.785Z"></path><path d="M43.366,51.151a1,1,0,0,0-1.732,1l1,1.732a1,1,0,0,0,1.732-1Z"></path><path d="M42,9.215a1,1,0,0,0,1.366-.366l1-1.732a1,1,0,0,0-1.732-1l-1,1.732A1,1,0,0,0,42,9.215Z"></path><path d="M39,22a9,9,0,1,0,9,9A9.01,9.01,0,0,0,39,22Zm0,16a7,7,0,1,1,7-7A7.008,7.008,0,0,1,39,38Z"></path><path d="M40,37V36a3,3,0,0,0,0-6H38a1,1,0,0,1,0-2h2a1,1,0,0,1,1,1,1,1,0,0,0,2,0,3,3,0,0,0-3-3V25a1,1,0,0,0-2,0v1a3,3,0,0,0,0,6h2a1,1,0,0,1,0,2H38a1,1,0,0,1-1-1,1,1,0,0,0-2,0,3,3,0,0,0,3,3v1a1,1,0,0,0,2,0Z"></path><path d="M61,17H47.68a22.149,22.149,0,0,0-16.5-8.97,22,22,0,0,0-9.76,42.23.97.97,0,0,1,.58.9V59a3.009,3.009,0,0,0,3,3H35a3.009,3.009,0,0,0,3-3V51.16a.97.97,0,0,1,.58-.9A22.352,22.352,0,0,0,46.08,45H61a1,1,0,0,0,1-1V18A1,1,0,0,0,61,17ZM36,59a1,1,0,0,1-1,1H25a1,1,0,0,1-1-1V58H36Zm0-3H24V54H36Zm1.8-7.58A2.967,2.967,0,0,0,36,51.16V52H24v-.84a2.967,2.967,0,0,0-1.8-2.74A19.988,19.988,0,1,1,45.12,17H33V16a3,3,0,0,0-6,0V46a3,3,0,0,0,6,0V45H43.22A20.184,20.184,0,0,1,37.8,48.42ZM31,16v1H29V16a1,1,0,0,1,2,0ZM29,45h2v1a1,1,0,0,1-2,0Zm31-2H55.09A5.992,5.992,0,0,1,60,38.09Zm0-6.93A8,8,0,0,0,53.07,43H29V19H53.07A8,8,0,0,0,60,25.93Zm0-12.16A5.992,5.992,0,0,1,55.09,19H60Z"></path><path d="M56,32a1,1,0,0,0,0-2H52a1,1,0,0,0,0,2Z"></path></g></svg> 