<?xml version="1.0" encoding="UTF-8"?> <svg xmlns="http://www.w3.org/2000/svg" viewBox="0 0 64 64" width="512" height="512"><g id="Laptop"><path d="M61,52H60V14a3.009,3.009,0,0,0-3-3H7a3.009,3.009,0,0,0-3,3V52H3a1,1,0,0,0-1,1v4a5,5,0,0,0,5,5H57a5,5,0,0,0,5-5V53A1,1,0,0,0,61,52ZM6,14a1,1,0,0,1,1-1H57a1,1,0,0,1,1,1V52H6ZM37,54v1a1,1,0,0,1-1,1H28a1,1,0,0,1-1-1V54Zm23,3a3.009,3.009,0,0,1-3,3H7a3.009,3.009,0,0,1-3-3V54H25v1a3.009,3.009,0,0,0,3,3h8a3.009,3.009,0,0,0,3-3V54H60Z"></path><path d="M57,50V15a1,1,0,0,0-1-1H8a1,1,0,0,0-1,1V50a1,1,0,0,0,1,1H56A1,1,0,0,0,57,50Zm-2-1H9V16H55Z"></path><path d="M12,24h3v3a1,1,0,0,0,.47.848l4.941,3.088A11.987,11.987,0,0,0,43.3,38H47v3H44a1,1,0,0,0-1,1v4a1,1,0,0,0,1,1h8a1,1,0,0,0,1-1V42a1,1,0,0,0-1-1H49V37a1,1,0,0,0-1-1H43.819a11.669,11.669,0,0,0-.871-6.89c-.009-.024-.007-.05-.017-.073s-.04-.049-.056-.077a12.061,12.061,0,0,0-3.794-4.626L41.414,22H43v1a1,1,0,0,0,1,1h8a1,1,0,0,0,1-1V19a1,1,0,0,0-1-1H44a1,1,0,0,0-1,1v1H41a1,1,0,0,0-.707.293l-2.969,2.969A11.947,11.947,0,0,0,21.1,29.009L17,26.446V24h3a1,1,0,0,0,1-1V19a1,1,0,0,0-1-1H12a1,1,0,0,0-1,1v4A1,1,0,0,0,12,24ZM51,45H45V43h6ZM45,20h6v2H45ZM40,38h1.159A10.019,10.019,0,0,1,33,43.949v-9.3L41.466,30.8A9.91,9.91,0,0,1,41.8,36H40a1,1,0,0,0,0,2ZM35.293,26.707a1,1,0,0,0,1.414,0l.947-.947a10.073,10.073,0,0,1,2.981,3.221L33,32.448v-8.4a9.873,9.873,0,0,1,2.823.712l-.53.53A1,1,0,0,0,35.293,26.707ZM31,24.051v19.9a9.989,9.989,0,0,1-8.806-11.9l1.276.8a1,1,0,1,0,1.06-1.7l-1.725-1.078A10.023,10.023,0,0,1,31,24.051ZM13,20h6v2H13Z"></path><path d="M12,41h1a1,1,0,0,0,0-2H12a1,1,0,0,0,0,2Z"></path><path d="M12,44h1a1,1,0,0,0,0-2H12a1,1,0,0,0,0,2Z"></path><path d="M12,47h1a1,1,0,0,0,0-2H12a1,1,0,0,0,0,2Z"></path><path d="M16,41h2a1,1,0,0,0,0-2H16a1,1,0,0,0,0,2Z"></path><path d="M16,44h4a1,1,0,0,0,0-2H16a1,1,0,0,0,0,2Z"></path><path d="M22,45H16a1,1,0,0,0,0,2h6a1,1,0,0,0,0-2Z"></path></g></svg> 