<?xml version="1.0" encoding="UTF-8"?> <svg xmlns="http://www.w3.org/2000/svg" viewBox="0 0 64 64" width="512" height="512"><g id="Like"><path d="M54.71,12.29l-10-10A1.033,1.033,0,0,0,44,2H10A1,1,0,0,0,9,3V39H5a1,1,0,0,0-1,1V57a1,1,0,0,0,1,1H9v3a1,1,0,0,0,1,1H54a1,1,0,0,0,1-1V13A1.033,1.033,0,0,0,54.71,12.29ZM45,5.41,51.59,12H46a1,1,0,0,1-1-1ZM6,56V41h6V56Zm47,4H11V58h2a1,1,0,0,0,1-1v-.29A12.867,12.867,0,0,0,19.63,58H31a2.993,2.993,0,0,0,2.61-4.47,2.744,2.744,0,0,0,.5-.4A2.971,2.971,0,0,0,35,51a2.934,2.934,0,0,0-.39-1.47,2.744,2.744,0,0,0,.5-.4A2.971,2.971,0,0,0,36,47a2.934,2.934,0,0,0-.39-1.47,2.744,2.744,0,0,0,.5-.4,3.01,3.01,0,0,0,.88-2.39A3.073,3.073,0,0,0,33.89,40H25V35a3.009,3.009,0,0,0-3-3H20a1,1,0,0,0-1,1v3a5,5,0,0,1-5,5V40a1,1,0,0,0-1-1H11V4H43v7a3.009,3.009,0,0,0,3,3h7ZM24,42h9.89a1.092,1.092,0,0,1,1.11.91.985.985,0,0,1-.31.8A.928.928,0,0,1,34,44H33a1,1,0,0,0,0,2,1,1,0,0,1,1,1,.949.949,0,0,1-.31.71A.928.928,0,0,1,33,48H32a1,1,0,0,0,0,2,1,1,0,0,1,1,1,.949.949,0,0,1-.31.71A.928.928,0,0,1,32,52H31a1,1,0,0,0,0,2,1,1,0,0,1,1,1,.949.949,0,0,1-.31.71A.928.928,0,0,1,31,56H19.63A10.934,10.934,0,0,1,14,54.45V43a7.008,7.008,0,0,0,7-7V34h1a1,1,0,0,1,1,1v6A1,1,0,0,0,24,42Z"></path><path d="M24,10H40a1,1,0,0,0,0-2H24a1,1,0,0,0,0,2Z"></path><path d="M50,52H38a1,1,0,0,0,0,2H50a1,1,0,0,0,0-2Z"></path><path d="M48,32H28a1,1,0,0,0,0,2H48a1,1,0,0,0,0-2Z"></path><path d="M49,37a1,1,0,0,0-1-1H28a1,1,0,0,0,0,2H48A1,1,0,0,0,49,37Z"></path><path d="M16,18H48a1,1,0,0,0,0-2H16a1,1,0,0,0,0,2Z"></path><path d="M16,22H48a1,1,0,0,0,0-2H16a1,1,0,0,0,0,2Z"></path><path d="M16,26H48a1,1,0,0,0,0-2H16a1,1,0,0,0,0,2Z"></path><path d="M49,29a1,1,0,0,0-1-1H16a1,1,0,0,0,0,2H48A1,1,0,0,0,49,29Z"></path><path d="M50,49h-.586l-1.707-1.707a1,1,0,0,0-1.6.26L45.382,49h-1A2.978,2.978,0,0,0,45,47.171v-.255a2.916,2.916,0,0,0-5.416-1.5l-2.441,4.069a1,1,0,1,0,1.714,1.03L41.3,46.444a.916.916,0,0,1,1.7.472v.255a1,1,0,0,1-.293.708l-1.414,1.414A1,1,0,0,0,42,51h4a1,1,0,0,0,.9-.553l.379-.759,1.019,1.019A1,1,0,0,0,49,51h1a1,1,0,0,0,0-2Z"></path></g></svg> 