<?xml version="1.0" encoding="UTF-8"?> <svg xmlns="http://www.w3.org/2000/svg" viewBox="0 0 64 64" width="512" height="512"><g id="Live"><path d="M59,8H5a3.009,3.009,0,0,0-3,3V47a3.009,3.009,0,0,0,3,3H25v4H21a3.009,3.009,0,0,0-3,3v4a1,1,0,0,0,1,1H45a1,1,0,0,0,1-1V57a3.009,3.009,0,0,0-3-3H39V50H59a3.009,3.009,0,0,0,3-3V11A3.009,3.009,0,0,0,59,8ZM43,56a1,1,0,0,1,1,1v3H20V57a1,1,0,0,1,1-1ZM27,54V50H37v4Zm33-7a1,1,0,0,1-1,1H5a1,1,0,0,1-1-1V44H60Zm0-5H4V11a1,1,0,0,1,1-1H59a1,1,0,0,1,1,1Z"></path><path d="M58,11H6a1,1,0,0,0-1,1V40a1,1,0,0,0,1,1H58a1,1,0,0,0,1-1V12A1,1,0,0,0,58,11ZM35,39V30a2.982,2.982,0,0,1,2.22-2.88l2.26,10.57c0,.01,0,.01.01.01l.27,1.3Zm5.38-6.67L39.24,27h1.04l.69,2.07ZM44.19,39H41.81l-.33-1.54L42.83,30h.34l1.35,7.46Zm-1.8-12h1.22l-.33,1h-.56Zm2.64,2.07L45.72,27h1.04l-1.14,5.33ZM51,39H46.24l.27-1.3c.01,0,.01,0,.01-.01l2.26-10.57A2.982,2.982,0,0,1,51,30Zm6,0H53V30a5,5,0,0,0-5-5H38a5,5,0,0,0-5,5v9H7V13H57Z"></path><path d="M55,45H53a1,1,0,0,0,0,2h2a1,1,0,0,0,0-2Z"></path><path d="M25.49,16.13a.993.993,0,0,0-1,.01L21,18.23V18a1,1,0,0,0-1-1H12a1,1,0,0,0-1,1v6a1,1,0,0,0,1,1h8a1,1,0,0,0,1-1v-.23l3.49,2.09A1,1,0,0,0,25,26a.947.947,0,0,0,.49-.13A.992.992,0,0,0,26,25V17A.992.992,0,0,0,25.49,16.13ZM19,23H13V19h6Zm5,.23-3-1.8v-.86l3-1.8Z"></path><path d="M48,20a5,5,0,1,0-5,5A5.006,5.006,0,0,0,48,20Zm-5,3a3,3,0,1,1,3-3A3,3,0,0,1,43,23Z"></path></g></svg> 