<?xml version="1.0" encoding="UTF-8"?> <svg xmlns="http://www.w3.org/2000/svg" viewBox="0 0 64 64" width="512" height="512"><g id="Mail"><path d="M61.637,30.229,55,24.74V13a1,1,0,0,0-.293-.707l-10-10A1,1,0,0,0,44,2H10A1,1,0,0,0,9,3V24.74L2.363,30.229A1,1,0,0,0,2,31V61a1,1,0,0,0,1,1H61a1,1,0,0,0,1-1V31A1,1,0,0,0,61.637,30.229ZM19.559,46,4,58.875V33.125Zm11.8-7.172a1,1,0,0,1,1.275,0L58.223,60H5.777ZM44.446,46,60,33.126V58.875ZM45,5.414,51.586,12H46a1,1,0,0,1-1-1ZM59.431,31,55,34.668V27.335ZM43,4v7a3,3,0,0,0,3,3h7V36.324L42.877,44.7l-8.964-7.419a3,3,0,0,0-3.826,0L21.128,44.7,11,36.321V4ZM9,34.666,4.569,31,9,27.335Z"></path><path d="M33,18H31a1,1,0,0,1-1-1,1,1,0,0,0-2,0,3,3,0,0,0,3,3v1a1,1,0,0,0,2,0V20a3,3,0,0,0,0-6H31a1,1,0,0,1,0-2h2a1,1,0,0,1,1,1,1,1,0,0,0,2,0,3,3,0,0,0-3-3V9a1,1,0,0,0-2,0v1a3,3,0,0,0,0,6h2a1,1,0,0,1,0,2Z"></path><path d="M18,26H46a1,1,0,0,0,0-2H18a1,1,0,0,0,0,2Z"></path><path d="M18,30H46a1,1,0,0,0,0-2H18a1,1,0,0,0,0,2Z"></path><path d="M18,34H46a1,1,0,0,0,0-2H18a1,1,0,0,0,0,2Z"></path></g></svg> 