<?xml version="1.0" encoding="UTF-8"?> <svg xmlns="http://www.w3.org/2000/svg" viewBox="0 0 64 64" width="512" height="512"><g id="Marketing"><path d="M20,28a6,6,0,1,0-6,6A6.006,6.006,0,0,0,20,28Zm-6,4a4,4,0,1,1,4-4A4,4,0,0,1,14,32Z"></path><path d="M55,34H45a7,7,0,0,0-6.93,6.09A7.6,7.6,0,0,0,37,40H27a7.6,7.6,0,0,0-1.07.09A7,7,0,0,0,19,34H9a7.008,7.008,0,0,0-7,7V55a1,1,0,0,0,1,1H20v5a1,1,0,0,0,1,1H43a1,1,0,0,0,1-1V56H61a1,1,0,0,0,1-1V41A7.008,7.008,0,0,0,55,34Zm-3.62,2-1,2h-.76l-1-2Zm-18,6-1,2h-.76l-1-2Zm-18-6-1,2h-.76l-1-2ZM4,54V41a5,5,0,0,1,2.47-4.29L11.66,54Zm7.01-9.11L8.36,36.06c.21-.02.42-.06.64-.06h1.38l1.58,3.16ZM14.26,54h-.52l-1.43-4.77L13.85,40h.3l1.54,9.23Zm3.36-18H19c.22,0,.43.04.64.06l-2.65,8.83-.95-5.73ZM20,47v7H16.34l5.19-17.29a4.982,4.982,0,0,1,2.44,3.99A7.01,7.01,0,0,0,20,47Zm2,13V47a5,5,0,0,1,2.47-4.29L29.66,60Zm7.01-9.11-2.65-8.83c.21-.02.42-.06.64-.06h1.38l1.58,3.16ZM32.26,60h-.52l-1.43-4.77L31.85,46h.3l1.54,9.23Zm3.36-18H37c.22,0,.43.04.64.06l-2.65,8.83-.95-5.73ZM42,60H34.34l5.19-17.29A5,5,0,0,1,42,47Zm2-6V47a7.01,7.01,0,0,0-3.97-6.3,4.982,4.982,0,0,1,2.44-3.99L47.66,54Zm3.01-9.11-2.65-8.83c.21-.02.42-.06.64-.06h1.38l1.58,3.16ZM50.26,54h-.52l-1.43-4.77L49.85,40h.3l1.54,9.23Zm3.36-18H55c.22,0,.43.04.64.06l-2.65,8.83-.95-5.73ZM60,54H52.34l5.19-17.29A5,5,0,0,1,60,41Z"></path><path d="M56,28a6,6,0,1,0-6,6A6.006,6.006,0,0,0,56,28Zm-6,4a4,4,0,1,1,4-4A4,4,0,0,1,50,32Z"></path><path d="M38,34a6,6,0,1,0-6,6A6.006,6.006,0,0,0,38,34Zm-6,4a4,4,0,1,1,4-4A4,4,0,0,1,32,38Z"></path><path d="M30.48,4.13a.989.989,0,0,0-1.01.02L21.71,9H18a3.009,3.009,0,0,0-3,3v2a3.009,3.009,0,0,0,3,3h3.71l7.76,4.85A1.014,1.014,0,0,0,30,22a.912.912,0,0,0,.48-.13A.99.99,0,0,0,31,21V5A.99.99,0,0,0,30.48,4.13ZM21,15H18a1,1,0,0,1-1-1V12a1,1,0,0,1,1-1h3Zm8,4.2-6-3.75v-4.9L29,6.8Z"></path><path d="M33.293,17.707a1,1,0,0,0,1.414,0,6.665,6.665,0,0,0,0-9.414,1,1,0,0,0-1.414,1.414,4.664,4.664,0,0,1,0,6.586A1,1,0,0,0,33.293,17.707Z"></path><path d="M38.949,21.95a1,1,0,1,0,1.414,1.414,14.673,14.673,0,0,0,0-20.728A1,1,0,0,0,38.949,4.05,12.672,12.672,0,0,1,38.949,21.95Z"></path><path d="M36.121,19.122a1,1,0,1,0,1.414,1.414,10.67,10.67,0,0,0,0-15.072,1,1,0,0,0-1.414,1.414A8.669,8.669,0,0,1,36.121,19.122Z"></path></g></svg> 