<?xml version="1.0" encoding="UTF-8"?> <svg xmlns="http://www.w3.org/2000/svg" viewBox="0 0 64 64" width="512" height="512"><g id="Mobile_phone" data-name="Mobile phone"><path d="M22,49H18a1,1,0,0,0-1,1v4a1,1,0,0,0,1,1h4a1,1,0,0,0,1-1V50A1,1,0,0,0,22,49Zm-1,4H19V51h2Z"></path><path d="M14,49H10a1,1,0,0,0-1,1v4a1,1,0,0,0,1,1h4a1,1,0,0,0,1-1V50A1,1,0,0,0,14,49Zm-1,4H11V51h2Z"></path><path d="M30,49H26a1,1,0,0,0-1,1v4a1,1,0,0,0,1,1h4a1,1,0,0,0,1-1V50A1,1,0,0,0,30,49Zm-1,4H27V51h2Z"></path><path d="M19,7h2a1,1,0,0,0,0-2H19a1,1,0,0,0,0,2Z"></path><path d="M20,41A10,10,0,1,0,10,31,10.011,10.011,0,0,0,20,41Zm0-18a8,8,0,1,1-8,8A8.009,8.009,0,0,1,20,23Z"></path><path d="M21,34H19a1,1,0,0,1-1-1,1,1,0,0,0-2,0,3,3,0,0,0,3,3v1a1,1,0,0,0,2,0V36a3,3,0,0,0,0-6H19a1,1,0,0,1,0-2h2a1,1,0,0,1,1,1,1,1,0,0,0,2,0,3,3,0,0,0-3-3V25a1,1,0,0,0-2,0v1a3,3,0,0,0,0,6h2a1,1,0,0,1,0,2Z"></path><path d="M55.82,14.46h-.01a.076.076,0,0,0-.02-.04A28.136,28.136,0,0,0,37.13,4.18,5.018,5.018,0,0,0,33,2H7A5,5,0,0,0,2,7V57a5,5,0,0,0,5,5H33a5.018,5.018,0,0,0,4.13-2.18A28.136,28.136,0,0,0,55.79,49.58c.01-.01.01-.03.02-.04h.01a27.981,27.981,0,0,0,0-35.08ZM36,57a2.853,2.853,0,0,1-.23,1.13c-.01.02-.01.04-.02.06A3.005,3.005,0,0,1,33,60H7a3.009,3.009,0,0,1-3-3V7A3.009,3.009,0,0,1,7,4H33a3.005,3.005,0,0,1,2.75,1.81c.01.02.01.04.02.06A2.853,2.853,0,0,1,36,7ZM54.77,16.41A25.987,25.987,0,0,1,59.96,31H50.98a43.392,43.392,0,0,0-1.82-11.7A28.7,28.7,0,0,0,54.77,16.41Zm-1.25-1.57a26.345,26.345,0,0,1-5,2.56A24.592,24.592,0,0,0,42.01,7.26,25.742,25.742,0,0,1,53.52,14.84ZM38,6.95c3.52,1.72,6.64,5.72,8.64,11.12A39.265,39.265,0,0,1,38,19.79ZM38,21.8a40.735,40.735,0,0,0,9.27-1.84A41.394,41.394,0,0,1,48.98,31H38ZM38,33H48.98a41.394,41.394,0,0,1-1.71,11.04A40.735,40.735,0,0,0,38,42.2Zm0,24.05V44.21a39.265,39.265,0,0,1,8.64,1.72C44.64,51.33,41.52,55.33,38,57.05Zm4.01-.31A24.592,24.592,0,0,0,48.52,46.6a26.345,26.345,0,0,1,5,2.56A25.742,25.742,0,0,1,42.01,56.74Zm12.76-9.15a28.7,28.7,0,0,0-5.61-2.89A43.392,43.392,0,0,0,50.98,33h8.98A25.987,25.987,0,0,1,54.77,47.59Z"></path><path d="M32,5H27.07a3.006,3.006,0,0,0-2.5,1.34l-.81,1.21a1,1,0,0,1-.83.45H17.07a1,1,0,0,1-.83-.45l-.81-1.21A3.006,3.006,0,0,0,12.93,5H8A3.009,3.009,0,0,0,5,8V56a3.009,3.009,0,0,0,3,3H32a3.009,3.009,0,0,0,3-3V8A3.009,3.009,0,0,0,32,5Zm1,51a1,1,0,0,1-1,1H8a1,1,0,0,1-1-1V8A1,1,0,0,1,8,7h4.93a1,1,0,0,1,.83.45l.81,1.21A3.006,3.006,0,0,0,17.07,10h5.86a3.006,3.006,0,0,0,2.5-1.34l.81-1.21A1,1,0,0,1,27.07,7H32a1,1,0,0,1,1,1Z"></path></g></svg> 