<?xml version="1.0" encoding="UTF-8"?> <svg xmlns="http://www.w3.org/2000/svg" viewBox="0 0 64 64" width="512" height="512"><g id="Mobile_phone-2" data-name="Mobile phone"><path d="M61,15H55a1,1,0,0,0-1,1v1.38l-2.13-1.06A3,3,0,0,0,50.53,16H38V7a5,5,0,0,0-5-5H7A5,5,0,0,0,2,7V57a5,5,0,0,0,5,5H33a5,5,0,0,0,5-5V40h5a1,1,0,0,0,1-1V29.45a9.012,9.012,0,0,0,7.94-.65l1.34-.8.72-.01V30a1,1,0,0,0,1,1h6a1,1,0,0,0,1-1V16A1,1,0,0,0,61,15ZM36,57a3.009,3.009,0,0,1-3,3H7a3.009,3.009,0,0,1-3-3V7A3.009,3.009,0,0,1,7,4H33a3.009,3.009,0,0,1,3,3v9h-.13a2.83,2.83,0,0,0-.87.14V8a3.009,3.009,0,0,0-3-3H27.07a2.977,2.977,0,0,0-2.49,1.33l-.82,1.23a1.024,1.024,0,0,1-.83.44H17.07a1.008,1.008,0,0,1-.83-.45l-.82-1.21A2.963,2.963,0,0,0,12.93,5H8A3.009,3.009,0,0,0,5,8V56a3.009,3.009,0,0,0,3,3H32a3.009,3.009,0,0,0,3-3V40h1ZM14,20V17a1,1,0,0,0-2,0V43a1,1,0,0,0,2,0V40H33V56a1,1,0,0,1-1,1H8a1,1,0,0,1-1-1V8A1,1,0,0,1,8,7h4.93a1.008,1.008,0,0,1,.83.45l.82,1.21A2.963,2.963,0,0,0,17.07,10h5.86a2.977,2.977,0,0,0,2.49-1.33l.82-1.23A1.024,1.024,0,0,1,27.07,7H32a1,1,0,0,1,1,1v9.46L29.82,20Zm2.86,2A4.017,4.017,0,0,1,14,24.86V22ZM14,35.14A4.017,4.017,0,0,1,16.86,38H14ZM42,38H39.14A4.017,4.017,0,0,1,42,35.14Zm0-4.91A5.992,5.992,0,0,0,37.09,38H18.91A5.992,5.992,0,0,0,14,33.09V26.91A5.992,5.992,0,0,0,18.91,22H37.93l-1.12,1.12a3,3,0,1,0,4.24,4.24l.95-.95Zm12-7.1L52.99,26a.966.966,0,0,0-.5.14l-1.58.95a7.072,7.072,0,0,1-6.24.48L44,27.29V24.41l1.27-1.27.52.18a7.1,7.1,0,0,0,4.42,0l1.11-.37a1,1,0,0,0-.64-1.9l-1.1.37a5.022,5.022,0,0,1-3.16,0l-1.1-.37a1.007,1.007,0,0,0-1.03.24l-2,2-2.65,2.66a1.008,1.008,0,0,1-1.42,0,.99.99,0,0,1-.29-.71.967.967,0,0,1,.29-.7l3.89-3.89a1,1,0,0,0-1.42-1.41l-.76.76H33.02l2.23-1.78a1,1,0,0,1,.62-.22H50.53a1.03,1.03,0,0,1,.45.11L54,19.62ZM60,29H56V17h4Z"></path><path d="M21,29H19a1,1,0,0,0,0,2h2a1,1,0,0,0,0-2Z"></path><path d="M34,30a1,1,0,0,0,1,1h2a1,1,0,0,0,0-2H35A1,1,0,0,0,34,30Z"></path><path d="M18,55h4a1,1,0,0,0,1-1V50a1,1,0,0,0-1-1H18a1,1,0,0,0-1,1v4A1,1,0,0,0,18,55Zm1-4h2v2H19Z"></path><path d="M9,50v4a1,1,0,0,0,1,1h4a1,1,0,0,0,1-1V50a1,1,0,0,0-1-1H10A1,1,0,0,0,9,50Zm2,1h2v2H11Z"></path><path d="M26,55h4a1,1,0,0,0,1-1V50a1,1,0,0,0-1-1H26a1,1,0,0,0-1,1v4A1,1,0,0,0,26,55Zm1-4h2v2H27Z"></path><path d="M19,7h2a1,1,0,0,0,0-2H19a1,1,0,0,0,0,2Z"></path><path d="M27,27h2a1,1,0,0,1,1,1,1,1,0,0,0,2,0,3,3,0,0,0-3-3V24a1,1,0,0,0-2,0v1a3,3,0,0,0,0,6h2a1,1,0,0,1,0,2H27a1,1,0,0,1-1-1,1,1,0,0,0-2,0,3,3,0,0,0,3,3v1a1,1,0,0,0,2,0V35a3,3,0,0,0,0-6H27a1,1,0,0,1,0-2Z"></path></g></svg> 