<?xml version="1.0" encoding="UTF-8"?> <svg xmlns="http://www.w3.org/2000/svg" height="512" viewBox="0 0 64 64" width="512"><g id="Money"><path d="m61 16h-5.56a3.98 3.98 0 0 0 -3.44-2h-3a1 1 0 0 0 -1 1v1h-45a1 1 0 0 0 -1 1v44a1 1 0 0 0 1 1h58a1 1 0 0 0 1-1v-44a1 1 0 0 0 -1-1zm-57 2h6.93a8 8 0 0 1 -6.93 6.93zm0 23.07a8 8 0 0 1 6.93 6.93h-6.93zm23 18.93h-23v-2h23zm0-4h-23v-2h23zm0-4h-23v-2h23zm0-11.54a8.956 8.956 0 0 1 0-14.92zm0-17.25a10.987 10.987 0 0 0 0 19.58v5.21h-14.05a10.012 10.012 0 0 0 -8.95-8.95v-12.1a10.012 10.012 0 0 0 8.95-8.95h14.05zm8 36.79h-6v-42h6zm15-44h2a2.006 2.006 0 0 1 2 2v24.54a3.971 3.971 0 0 0 -2-.54h-2zm-13 9.54a8.956 8.956 0 0 1 0 14.92zm0 17.25a10.987 10.987 0 0 0 0-19.58v-5.21h11v25a1 1 0 0 0 1 1h3a2.015 2.015 0 0 1 2 2 2.006 2.006 0 0 1 -2 2h-15zm23 17.21h-23v-2h23zm0-4h-23v-2h23zm0-4h-23v-2h23zm0-4h-4.56a3.906 3.906 0 0 0 .56-2v-28h4z"></path><path d="m10 32a1 1 0 0 0 0 2h6a1 1 0 0 0 0-2z"></path><path d="m31 6h2v2h-2z"></path><path d="m31 10h2v2h-2z"></path><path d="m33 8h2v2h-2z"></path><path d="m29 8h2v2h-2z"></path><path d="m45 2h2v2h-2z"></path><path d="m45 6h2v2h-2z"></path><path d="m47 4h2v2h-2z"></path><path d="m43 4h2v2h-2z"></path><path d="m17 2h2v2h-2z"></path><path d="m17 6h2v2h-2z"></path><path d="m15 4h2v2h-2z"></path><path d="m19 4h2v2h-2z"></path></g></svg> 