<?xml version="1.0" encoding="UTF-8"?> <svg xmlns="http://www.w3.org/2000/svg" viewBox="0 0 64 64" width="512" height="512"><g id="Money_bags" data-name="Money bags"><path d="M21,35A10,10,0,1,0,31,45,10.011,10.011,0,0,0,21,35Zm0,18a8,8,0,1,1,8-8A8.009,8.009,0,0,1,21,53Z"></path><path d="M20,42h2a1,1,0,0,1,1,1,1,1,0,0,0,2,0,3,3,0,0,0-3-3V39a1,1,0,0,0-2,0v1a3,3,0,0,0,0,6h2a1,1,0,0,1,0,2H20a1,1,0,0,1-1-1,1,1,0,0,0-2,0,3,3,0,0,0,3,3v1a1,1,0,0,0,2,0V50a3,3,0,0,0,0-6H20a1,1,0,0,1,0-2Z"></path><path d="M44,44V43a3,3,0,0,0,0-6H42a1,1,0,0,1,0-2h2a1,1,0,0,1,1,1,1,1,0,0,0,2,0,3,3,0,0,0-3-3V32a1,1,0,0,0-2,0v1a3,3,0,0,0,0,6h2a1,1,0,0,1,0,2H42a1,1,0,0,1-1-1,1,1,0,0,0-2,0,3,3,0,0,0,3,3v1a1,1,0,0,0,2,0Z"></path><path d="M51,19.46V16.12L53.97,3.23A1,1,0,0,0,53,2H50a1.033,1.033,0,0,0-.71.29L47.16,4.43,45.83,2.45A1,1,0,0,0,45,2H41a1,1,0,0,0-.83.45L38.84,4.43,36.71,2.29A1.033,1.033,0,0,0,36,2H33a1,1,0,0,0-.97,1.23L35,16.12v3.33a22.22,22.22,0,0,0-6,5.83V23.12l2.97-12.89A1,1,0,0,0,31,9H28a1.033,1.033,0,0,0-.71.29l-2.13,2.14L23.83,9.45A1,1,0,0,0,23,9H19a1,1,0,0,0-.83.45l-1.33,1.98L14.71,9.29A1.033,1.033,0,0,0,14,9H11a1,1,0,0,0-.97,1.23L13,23.12v3.34C6.7,30.48,2,39.19,2,47c0,9.39,7.1,15,19,15,8.19,0,14.11-2.66,17-7.38A31.629,31.629,0,0,0,43,55c11.9,0,19-5.61,19-15C62,32.19,57.3,23.48,51,19.46ZM34.26,4h1.33l2.7,2.71a.991.991,0,0,0,1.54-.16L41.54,4h2.92l1.71,2.55a.991.991,0,0,0,1.54.16L50.41,4h1.33L49.2,15H36.8ZM49,17v2H37V17ZM12.26,11h1.33l2.7,2.71a1.011,1.011,0,0,0,.81.29.989.989,0,0,0,.73-.45L19.54,11h2.92l1.71,2.55a.991.991,0,0,0,1.54.16L28.41,11h1.33L27.2,22H14.8ZM27,24v2H15V24ZM21,60C15.89,60,4,58.73,4,47c0-7.28,4.41-15.39,10.29-19H27.71C33.59,31.61,38,39.72,38,47,38,58.73,26.11,60,21,60ZM36.1,33.99A7.931,7.931,0,0,1,43,30a8,8,0,0,1,0,16,7.879,7.879,0,0,1-3.07-.63A26.329,26.329,0,0,0,36.1,33.99ZM43,53a31.1,31.1,0,0,1-4.08-.26,14.974,14.974,0,0,0,1.06-5.22A10.253,10.253,0,0,0,43,48a10,10,0,0,0,0-20,9.914,9.914,0,0,0-8.1,4.16,23.114,23.114,0,0,0-4.81-4.95A20.5,20.5,0,0,1,36.29,21H49.71C55.59,24.61,60,32.72,60,40,60,51.73,48.11,53,43,53Z"></path></g></svg> 