<?xml version="1.0" encoding="UTF-8"?> <svg xmlns="http://www.w3.org/2000/svg" viewBox="0 0 64 64" width="512" height="512"><g id="Money-2" data-name="Money"><path d="M24,52H22a3,3,0,0,0,0,6h2a3,3,0,0,0,0-6Zm0,4H22a1,1,0,0,1,0-2h2a1,1,0,0,1,0,2Z"></path><path d="M33,52H31a3,3,0,0,0,0,6h2a3,3,0,0,0,0-6Zm0,4H31a1,1,0,0,1,0-2h2a1,1,0,0,1,0,2Z"></path><path d="M42,52H40a3,3,0,0,0,0,6h2a3,3,0,0,0,0-6Zm0,4H40a1,1,0,0,1,0-2h2a1,1,0,0,1,0,2Z"></path><path d="M24,45H22a3,3,0,0,0,0,6h2a3,3,0,0,0,0-6Zm0,4H22a1,1,0,0,1,0-2h2a1,1,0,0,1,0,2Z"></path><path d="M33,45H31a3,3,0,0,0,0,6h2a3,3,0,0,0,0-6Zm0,4H31a1,1,0,0,1,0-2h2a1,1,0,0,1,0,2Z"></path><path d="M42,45H40a3,3,0,0,0,0,6h2a3,3,0,0,0,0-6Zm0,4H40a1,1,0,0,1,0-2h2a1,1,0,0,1,0,2Z"></path><path d="M24,38H22a3,3,0,0,0,0,6h2a3,3,0,0,0,0-6Zm0,4H22a1,1,0,0,1,0-2h2a1,1,0,0,1,0,2Z"></path><path d="M33,38H31a3,3,0,0,0,0,6h2a3,3,0,0,0,0-6Zm0,4H31a1,1,0,0,1,0-2h2a1,1,0,0,1,0,2Z"></path><path d="M42,38H40a3,3,0,0,0,0,6h2a3,3,0,0,0,0-6Zm0,4H40a1,1,0,0,1,0-2h2a1,1,0,0,1,0,2Z"></path><path d="M33,17H31a1,1,0,0,1-1-1,1,1,0,0,0-2,0,3,3,0,0,0,3,3v1a1,1,0,0,0,2,0V19a3,3,0,0,0,0-6H31a1,1,0,0,1,0-2h2a1,1,0,0,1,1,1,1,1,0,0,0,2,0,3,3,0,0,0-3-3V8a1,1,0,0,0-2,0V9a3,3,0,0,0,0,6h2a1,1,0,0,1,0,2Z"></path><path d="M23,33H41a1,1,0,0,0,1-1V26a1,1,0,0,0-1-1H23a1,1,0,0,0-1,1v6A1,1,0,0,0,23,33Zm1-6H40v4H24Z"></path><path d="M46,14H44.82A3.01,3.01,0,0,0,42,12V3c0-.03-.02-.06-.02-.09a.585.585,0,0,0-.04-.19,1.066,1.066,0,0,0-.07-.19c-.02-.03-.02-.06-.04-.08a.435.435,0,0,0-.06-.07l-.15-.15a1.3,1.3,0,0,0-.15-.1,1.336,1.336,0,0,0-.18-.07,1.18,1.18,0,0,0-.2-.04c-.03,0-.06-.02-.09-.02a.292.292,0,0,0-.09.02.711.711,0,0,0-.2.04,1.336,1.336,0,0,0-.18.07c-.03.02-.06.02-.08.04L38,3.8,35.54,2.17a.963.963,0,0,0-1.1,0L31.99,3.8,29.55,2.17a.979.979,0,0,0-1.11,0L26,3.8,23.56,2.17c-.03-.02-.06-.02-.09-.04a1.336,1.336,0,0,0-.18-.07.711.711,0,0,0-.2-.04c-.03,0-.06-.02-.09-.02s-.06.02-.09.02a1.18,1.18,0,0,0-.2.04,1.336,1.336,0,0,0-.18.07,1.3,1.3,0,0,0-.15.1,1,1,0,0,0-.14.15.435.435,0,0,0-.07.06c-.02.03-.02.06-.04.09a1.336,1.336,0,0,0-.07.18.711.711,0,0,0-.04.2c0,.03-.02.06-.02.09v9a3.01,3.01,0,0,0-2.82,2H18a3.009,3.009,0,0,0-3,3V59a3.009,3.009,0,0,0,3,3H46a3.009,3.009,0,0,0,3-3V17A3.009,3.009,0,0,0,46,14ZM24,4.87l1.44.96a.979.979,0,0,0,1.11,0L28.99,4.2l2.45,1.63a.991.991,0,0,0,.55.17,1.023,1.023,0,0,0,.56-.17L34.99,4.2l2.45,1.63a.979.979,0,0,0,1.11,0L40,4.87V22H24ZM21,15a1,1,0,0,1,1-1v9a1,1,0,0,0,1,1H41a1,1,0,0,0,1-1V14a1,1,0,0,1,1,1V33a1,1,0,0,1-1,1H22a1,1,0,0,1-1-1ZM47,59a1,1,0,0,1-1,1H18a1,1,0,0,1-1-1V17a1,1,0,0,1,1-1h1V33a3.009,3.009,0,0,0,3,3H42a3.009,3.009,0,0,0,3-3V16h1a1,1,0,0,1,1,1Z"></path></g></svg> 