<?xml version="1.0" encoding="UTF-8"?> <svg xmlns="http://www.w3.org/2000/svg" viewBox="0 0 64 64" width="512" height="512"><g id="Money-3" data-name="Money"><path d="M11,49h2a1,1,0,0,1,1,1,1,1,0,0,0,2,0,3,3,0,0,0-3-3V46a1,1,0,0,0-2,0v1a3,3,0,0,0,0,6h2a1,1,0,0,1,0,2H11a1,1,0,0,1-1-1,1,1,0,0,0-2,0,3,3,0,0,0,3,3v1a1,1,0,0,0,2,0V57a3,3,0,0,0,0-6H11a1,1,0,0,1,0-2Z"></path><path d="M31,18h2a1,1,0,0,1,1,1,1,1,0,0,0,2,0,3,3,0,0,0-3-3V15a1,1,0,0,0-2,0v1a3,3,0,0,0,0,6h2a1,1,0,0,1,0,2H31a1,1,0,0,1-1-1,1,1,0,0,0-2,0,3,3,0,0,0,3,3v1a1,1,0,0,0,2,0V26a3,3,0,0,0,0-6H31a1,1,0,0,1,0-2Z"></path><path d="M61,44H53V19a1,1,0,0,0-1-1H46V7a5.006,5.006,0,0,0-5-5H23a5.006,5.006,0,0,0-5,5V18H12a1,1,0,0,0-1,1V42.051A10,10,0,1,0,21.949,53H34v8a1,1,0,0,0,1,1H61a1,1,0,0,0,1-1V45A1,1,0,0,0,61,44ZM56.1,60H39.9A5.016,5.016,0,0,0,36,56.1V49.9A5.016,5.016,0,0,0,39.9,46H56.1A5.016,5.016,0,0,0,60,49.9v6.2A5.016,5.016,0,0,0,56.1,60ZM36,47.816V46h1.816A3,3,0,0,1,36,47.816Zm24,0A3,3,0,0,1,58.184,46H60ZM20,7a3,3,0,0,1,3-3H41a3,3,0,0,1,3,3V35a3,3,0,0,1-3,3H23a3,3,0,0,1-3-3ZM12,60a8,8,0,1,1,8-8A8.009,8.009,0,0,1,12,60Zm9.949-9A10.015,10.015,0,0,0,13,42.051V20h5V35a5.006,5.006,0,0,0,5,5H41a5.006,5.006,0,0,0,5-5V20h5V44H35a1,1,0,0,0-1,1v6ZM36,58.184A3,3,0,0,1,37.816,60H36ZM58.184,60A3,3,0,0,1,60,58.184V60Z"></path><path d="M48,49a4,4,0,1,0,4,4A4,4,0,0,0,48,49Zm0,6a2,2,0,1,1,2-2A2,2,0,0,1,48,55Z"></path><path d="M56,52H55a1,1,0,0,0,0,2h1a1,1,0,0,0,0-2Z"></path><path d="M41,52H40a1,1,0,0,0,0,2h1a1,1,0,0,0,0-2Z"></path><path d="M22,34H42a1,1,0,0,0,1-1V9a1,1,0,0,0-1-1H22a1,1,0,0,0-1,1V33A1,1,0,0,0,22,34Zm1-24H41V32H23Z"></path><path d="M31,7h2a1,1,0,0,0,0-2H31a1,1,0,0,0,0,2Z"></path><path d="M34,35H30a1,1,0,0,0,0,2h4a1,1,0,0,0,0-2Z"></path></g></svg> 