<?xml version="1.0" encoding="UTF-8"?> <svg xmlns="http://www.w3.org/2000/svg" viewBox="0 0 64 64" width="512" height="512"><g id="Office"><path d="M48,28h2a1,1,0,0,1,1,1,1,1,0,0,0,2,0,3,3,0,0,0-3-3V25a1,1,0,0,0-2,0v1a3,3,0,0,0,0,6h2a1,1,0,0,1,0,2H48a1,1,0,0,1-1-1,1,1,0,0,0-2,0,3,3,0,0,0,3,3v1a1,1,0,0,0,2,0V36a3,3,0,0,0,0-6H48a1,1,0,0,1,0-2Z"></path><path d="M26,25a6,6,0,1,0-6,6A6.006,6.006,0,0,0,26,25Zm-6,4a4,4,0,1,1,4-4A4,4,0,0,1,20,29Z"></path><path d="M61,51H59.44A3.906,3.906,0,0,0,60,49a3.967,3.967,0,0,0-1.38-3A3.985,3.985,0,0,0,56,39H54.97a10,10,0,1,0-11.94,0H42a3.985,3.985,0,0,0-2.62,7A3.967,3.967,0,0,0,38,49a3.906,3.906,0,0,0,.56,2H32V38a7.008,7.008,0,0,0-7-7H15a7.008,7.008,0,0,0-7,7V51H3a1,1,0,0,0-1,1v4a1,1,0,0,0,1,1H4v4a1,1,0,0,0,2,0V57H58v4a1,1,0,0,0,2,0V57h1a1,1,0,0,0,1-1V52A1,1,0,0,0,61,51ZM41,31a8,8,0,1,1,8,8A8.011,8.011,0,0,1,41,31Zm1,10H56a2,2,0,0,1,0,4V43H54v2H52V43H50v2H48V43H46v2H44V43H42v2a2,2,0,0,1,0-4Zm0,6H56a2,2,0,0,1,0,4V49H54v2H52V49H50v2H48V49H46v2H44V49H42v2a2,2,0,0,1,0-4ZM30,38V51H22.34l5.19-17.29A5,5,0,0,1,30,38Zm-6.38-5H25c.22,0,.43.04.64.06l-2.65,8.83-.95-5.73Zm-2.24,0-1,2h-.76l-1-2Zm-1.53,4h.3l1.54,9.23L20.26,51h-.52l-1.43-4.77ZM15,33h1.38l1.58,3.16-.95,5.73-2.65-8.83C14.57,33.04,14.78,33,15,33Zm-5,5a5,5,0,0,1,2.47-4.29L17.66,51H10ZM60,55H4V53H60Z"></path><path d="M25,16h4v5a1,1,0,0,0,1.6.8L38.333,16H57a1,1,0,0,0,1-1V3a1,1,0,0,0-1-1H25a1,1,0,0,0-1,1V15A1,1,0,0,0,25,16ZM26,4H56V14H38a1,1,0,0,0-.6.2L31,19V15a1,1,0,0,0-1-1H26Z"></path><path d="M29,8h2a1,1,0,0,0,0-2H29a1,1,0,0,0,0,2Z"></path><path d="M32,11a1,1,0,0,0-1-1H29a1,1,0,0,0,0,2h2A1,1,0,0,0,32,11Z"></path><path d="M35,8H53a1,1,0,0,0,0-2H35a1,1,0,0,0,0,2Z"></path><path d="M35,12H53a1,1,0,0,0,0-2H35a1,1,0,0,0,0,2Z"></path></g></svg> 