<?xml version="1.0" encoding="UTF-8"?> <svg xmlns="http://www.w3.org/2000/svg" viewBox="0 0 64 64" width="512" height="512"><g id="Printer"><path d="M33,47H31a1,1,0,0,1-1-1,1,1,0,0,0-2,0,3,3,0,0,0,3,3v1a1,1,0,0,0,2,0V49a3,3,0,0,0,0-6H31a1,1,0,0,1,0-2h2a1,1,0,0,1,1,1,1,1,0,0,0,2,0,3,3,0,0,0-3-3V38a1,1,0,0,0-2,0v1a3,3,0,0,0,0,6h2a1,1,0,0,1,0,2Z"></path><path d="M55,18H53V10a1,1,0,0,0-1-1H49V3a1,1,0,0,0-1-1H16a1,1,0,0,0-1,1V9H12a1,1,0,0,0-1,1v8H9a7.008,7.008,0,0,0-7,7V43a1,1,0,0,0,1,1H15V61a1,1,0,0,0,1,1H48a1,1,0,0,0,1-1V44H61a1,1,0,0,0,1-1V25A7.008,7.008,0,0,0,55,18Zm-6-7h2v7H49ZM17,4H47V18H17ZM50.83,20A3.014,3.014,0,0,1,48,22H16a3.014,3.014,0,0,1-2.83-2ZM13,11h2v7H13Zm2,31H13V39a3.01,3.01,0,0,1,2-2.82ZM47,60H17V36H47Zm4-18H49V36.18A3.01,3.01,0,0,1,51,39Zm9,0H53V39a5,5,0,0,0-5-5H16a5,5,0,0,0-5,5v3H4V25a5,5,0,0,1,5-5h2.1A5.017,5.017,0,0,0,16,24H48a5.017,5.017,0,0,0,4.9-4H55a5,5,0,0,1,5,5Z"></path><path d="M45,28H16a1,1,0,0,0,0,2H45a1,1,0,0,0,0-2Z"></path><path d="M51,28H49a1,1,0,0,0,0,2h2a1,1,0,0,0,0-2Z"></path><path d="M57,28H55a1,1,0,0,0,0,2h2a1,1,0,0,0,0-2Z"></path><path d="M41,53H22a1,1,0,0,0,0,2H41a1,1,0,0,0,0-2Z"></path><path d="M41,56H22a1,1,0,0,0,0,2H41a1,1,0,0,0,0-2Z"></path></g></svg> 