<?xml version="1.0" encoding="UTF-8"?> <svg xmlns="http://www.w3.org/2000/svg" viewBox="0 0 64 64" width="512" height="512"><g id="Scale"><path d="M49,32a1,1,0,0,0,1-1V26h1A11.007,11.007,0,0,0,62,15a1,1,0,0,0-1-1H59.44A3.906,3.906,0,0,0,60,12a3.967,3.967,0,0,0-1.38-3A3.985,3.985,0,0,0,56,2H42a3.985,3.985,0,0,0-2.62,7A3.967,3.967,0,0,0,38,12a3.906,3.906,0,0,0,.56,2H37a1,1,0,0,0-1,1A11.007,11.007,0,0,0,47,26h1v1.27L33,32.13V30a1,1,0,0,0-2,0v2.77L16,37.63V36h1A11.007,11.007,0,0,0,28,25a1,1,0,0,0-1-1H25.44A3.906,3.906,0,0,0,26,22a3.967,3.967,0,0,0-1.38-3,3.951,3.951,0,0,0,0-6A3.985,3.985,0,0,0,22,6H8a3.985,3.985,0,0,0-2.62,7,3.951,3.951,0,0,0,0,6A3.967,3.967,0,0,0,4,22a3.906,3.906,0,0,0,.56,2H3a1,1,0,0,0-1,1A11.007,11.007,0,0,0,13,36h1v5a1,1,0,0,0,2,0V39.73l14.57-4.72-7.28,7.28A1.033,1.033,0,0,0,23,43v2H20a1,1,0,0,0-1,1v9H13a1,1,0,0,0-1,1v5a1,1,0,0,0,1,1H51a1,1,0,0,0,1-1V56a1,1,0,0,0-1-1H45V46a1,1,0,0,0-1-1H41V43a1.033,1.033,0,0,0-.29-.71L33,34.59v-.36l15-4.86V31A1,1,0,0,0,49,32ZM42,4H56a2,2,0,0,1,0,4V6H54V8H52V6H50V8H48V6H46V8H44V6H42V8a2,2,0,0,1,0-4Zm0,6H56a2,2,0,0,1,0,4V12H54v2H52V12H50v2H48V12H46v2H44V12H42v2a2,2,0,0,1,0-4Zm5,14a9.008,9.008,0,0,1-8.94-8H59.94A9.008,9.008,0,0,1,51,24ZM8,8H22a2,2,0,0,1,0,4V10H20v2H18V10H16v2H14V10H12v2H10V10H8v2A2,2,0,0,1,8,8Zm0,6H22a2,2,0,0,1,0,4V16H20v2H18V16H16v2H14V16H12v2H10V16H8v2a2,2,0,0,1,0-4Zm0,6H22a2,2,0,0,1,0,4V22H20v2H18V22H16v2H14V22H12v2H10V22H8v2a2,2,0,0,1,0-4Zm5,14a9.008,9.008,0,0,1-8.94-8H25.94A9.008,9.008,0,0,1,17,34ZM50,57v3H14V57ZM43,47v8H21V47Zm-4-3.59V45H25V43.41l7-7Z"></path></g></svg> 