<?xml version="1.0" encoding="UTF-8"?> <svg xmlns="http://www.w3.org/2000/svg" viewBox="0 0 64 64" width="512" height="512"><g id="Search"><path d="M34,36H30a1,1,0,0,1-1-1,1,1,0,0,0-2,0,3,3,0,0,0,3,3h1v2a1,1,0,0,0,2,0V38h1a3,3,0,0,0,3-3V34a3,3,0,0,0-3-3H30a1,1,0,0,1-1-1V29a1,1,0,0,1,1-1h4a1,1,0,0,1,1,1,1,1,0,0,0,2,0,3,3,0,0,0-3-3H33V24a1,1,0,0,0-2,0v2H30a3,3,0,0,0-3,3v1a3,3,0,0,0,3,3h4a1,1,0,0,1,1,1v1A1,1,0,0,1,34,36Z"></path><path d="M32.021,45a13,13,0,1,0-11.28-6.5A12.921,12.921,0,0,0,32.021,45ZM26.5,22.474A11,11,0,1,1,22.474,37.5,10.93,10.93,0,0,1,26.5,22.474Z"></path><path d="M60.577,53.506l-4.132-4.132a29.54,29.54,0,0,0,4.913-11.167A30,30,0,1,0,2,32,29.733,29.733,0,0,0,3.831,42.345,29.981,29.981,0,0,0,32,62a29.557,29.557,0,0,0,12.314-2.646,28.542,28.542,0,0,0,5.06-2.908l4.132,4.131a5,5,0,1,0,7.071-7.071ZM50.8,43.728a1,1,0,0,0-1.414,0l-.707.707L45.947,41.7A16.8,16.8,0,0,0,48.872,34H53a1,1,0,0,1,1,1v1a3,3,0,0,0,3,3h2.114a27.545,27.545,0,0,1-4.1,8.941ZM24,8V5.185a27.674,27.674,0,0,1,7-1.146V8.4a2.982,2.982,0,0,0,2.35,2.928l5.867,1.3A.994.994,0,0,1,40,13.6v3.387A17.039,17.039,0,0,0,16.991,24H13a.978.978,0,0,1-.713-.306A.965.965,0,0,1,12,23a1,1,0,0,1,1-1h2a3,3,0,0,0,3-3V14a.978.978,0,0,1,.306-.712A.957.957,0,0,1,19,13,5.006,5.006,0,0,0,24,8ZM17,32a15,15,0,1,1,4.394,10.606A14.9,14.9,0,0,1,17,32ZM44.021,44.021c.237-.238.451-.493.673-.743l2.57,2.571-1.416,1.415-2.57-2.57C43.527,44.472,43.782,44.259,44.021,44.021ZM60,32a28.152,28.152,0,0,1-.453,5H57a1,1,0,0,1-1-1V35a3,3,0,0,0-3-3H49a16.893,16.893,0,0,0-4.979-12.021,17.3,17.3,0,0,0-2.069-1.742A.941.941,0,0,0,42,18V13.6a2.982,2.982,0,0,0-2.35-2.928l-5.867-1.3A.994.994,0,0,1,33,8.4V4.025A28.03,28.03,0,0,1,60,32ZM22,5.866V8a3,3,0,0,1-3,3,3.017,3.017,0,0,0-3,3v5a1,1,0,0,1-1,1H13a3,3,0,0,0-3,3,3.015,3.015,0,0,0,3,3h3.1a16.883,16.883,0,0,0,.049,12.137l-.546.724A2.945,2.945,0,0,0,15,40.67l0,7.913-1.65-1.65a2.009,2.009,0,0,1-.546-1.019l-.5-2.5A3.013,3.013,0,0,0,9.36,41H5.5A27.935,27.935,0,0,1,22,5.866ZM32,60a28.085,28.085,0,0,1-12.623-3.012l.9-1.5A1,1,0,0,1,21.13,55h2.04a2.985,2.985,0,0,0,2.127-.883l1.82-1.82a1,1,0,0,1,.713-.3H33a2.98,2.98,0,0,1,2.4,1.2l1.2,1.6A3.03,3.03,0,0,0,39,56h1.82a.993.993,0,0,1,.876.516l.8,1.437A27.618,27.618,0,0,1,32,60Zm12.327-2.868-.88-1.583A2.991,2.991,0,0,0,40.82,54H39a1.015,1.015,0,0,1-.8-.4L37,52a5.029,5.029,0,0,0-4-2H27.83a2.985,2.985,0,0,0-2.127.883l-1.82,1.82a1,1,0,0,1-.713.3H21.13a3.013,3.013,0,0,0-2.568,1.456l-.931,1.555A28.035,28.035,0,0,1,6.27,43H9.36a1.007,1.007,0,0,1,.98.806l.5,2.506a4.016,4.016,0,0,0,1.092,2.035L13.583,50A2,2,0,0,0,17,48.59V40.67a.963.963,0,0,1,.122-.452,17.077,17.077,0,0,0,2.857,3.8A16.979,16.979,0,0,0,41.7,45.948l2.731,2.73-.706.707a1,1,0,0,0,0,1.414l4.217,4.217A27.052,27.052,0,0,1,44.327,57.132Zm14.836,2.031a3,3,0,0,1-4.243,0l-9.071-9.071.7-.7.01-.007,2.83-2.83.006-.009.7-.7,9.071,9.071a3,3,0,0,1,0,4.243Z"></path></g></svg> 