<?xml version="1.0" encoding="UTF-8"?> <svg xmlns="http://www.w3.org/2000/svg" viewBox="0 0 64 64" width="512" height="512"><g id="Time"><path d="M61.62,8.21,59.4,6.46l-.41-2.8a.972.972,0,0,0-.49-.72.954.954,0,0,0-.87-.06L55,3.92,52.37,2.88a.954.954,0,0,0-.87.06.972.972,0,0,0-.49.72l-.41,2.8L48.38,8.21a1.011,1.011,0,0,0,0,1.58l2.22,1.75.41,2.8a.972.972,0,0,0,.49.72.934.934,0,0,0,.87.06L54,14.48V15a1,1,0,0,1-1,1H46a3.009,3.009,0,0,1-3-3V7a5,5,0,0,0-5-5H29a5,5,0,0,0-5,5V8H22a1,1,0,0,0-1,1v3H19a1,1,0,0,0-.97.76L16.84,17.5a22.791,22.791,0,0,0-5.02,2.67L9.45,17.78a1.033,1.033,0,0,0-.71-.29,1.052,1.052,0,0,0-.71.29L3.78,22.03a1.052,1.052,0,0,0-.29.71,1.033,1.033,0,0,0,.29.71l2.39,2.37A22.993,22.993,0,1,0,48,39a22.823,22.823,0,0,0-4.17-13.18l2.39-2.37a1.033,1.033,0,0,0,.29-.71,1.052,1.052,0,0,0-.29-.71l-4.25-4.25a1.014,1.014,0,0,0-1.42,0l-2.37,2.39a22.791,22.791,0,0,0-5.02-2.67l-1.19-4.74A1,1,0,0,0,31,12H29V9a1,1,0,0,0-1-1H26V7a3.009,3.009,0,0,1,3-3h9a3.009,3.009,0,0,1,3,3v6a5,5,0,0,0,5,5h7a3.009,3.009,0,0,0,3-3v-.52l1.63.64a.985.985,0,0,0,.87-.06.972.972,0,0,0,.49-.72l.41-2.8,2.22-1.75a1.011,1.011,0,0,0,0-1.58ZM5.91,22.74l2.83-2.83,1.48,1.48a23.639,23.639,0,0,0-2.83,2.83Zm35.35-2.83,2.83,2.83-1.48,1.48a23.639,23.639,0,0,0-2.83-2.83ZM46,39A21,21,0,1,1,25,18,21.023,21.023,0,0,1,46,39ZM30.22,14l.69,2.77a23.066,23.066,0,0,0-11.82,0L19.78,14ZM27,10v2H23V10Zm30.85.21a.944.944,0,0,0-.37.65l-.29,1.94L56,12.32V9a1,1,0,0,0-2,0v3.32l-1.19.48-.29-1.94a.982.982,0,0,0-.37-.65L50.61,9l1.54-1.21a.944.944,0,0,0,.37-.65l.29-1.94,1.82.73a1.048,1.048,0,0,0,.74,0l1.82-.73.29,1.94a.982.982,0,0,0,.37.65L59.39,9Z"></path><path d="M25,20A19,19,0,1,0,44,39,19.021,19.021,0,0,0,25,20Zm9.345,33.186-1.479-2.561a1,1,0,1,0-1.732,1l1.475,2.555A16.837,16.837,0,0,1,26,55.949V53a1,1,0,0,0-2,0v2.949a16.837,16.837,0,0,1-6.609-1.769l1.475-2.555a1,1,0,1,0-1.732-1l-1.479,2.561a17.143,17.143,0,0,1-4.841-4.841l2.561-1.479a1,1,0,1,0-1-1.732L9.82,46.609A16.837,16.837,0,0,1,8.051,40H11a1,1,0,0,0,0-2H8.051A16.837,16.837,0,0,1,9.82,31.391l2.555,1.475a1,1,0,1,0,1-1.732l-2.561-1.479a17.143,17.143,0,0,1,4.841-4.841l1.479,2.561a1,1,0,1,0,1.732-1L17.391,23.82A16.837,16.837,0,0,1,24,22.051V25a1,1,0,0,0,2,0V22.051a16.837,16.837,0,0,1,6.609,1.769l-1.475,2.555a1,1,0,1,0,1.732,1l1.479-2.561a17.143,17.143,0,0,1,4.841,4.841l-2.562,1.479a1,1,0,1,0,1,1.732l2.556-1.475A16.841,16.841,0,0,1,41.949,38H39a1,1,0,0,0,0,2h2.949a16.841,16.841,0,0,1-1.769,6.609l-2.556-1.475a1,1,0,0,0-1,1.732l2.562,1.479A17.143,17.143,0,0,1,34.345,53.186Z"></path><path d="M26,36.184V29a1,1,0,0,0-2,0v7.184a3,3,0,1,0,2,0ZM25,40a1,1,0,1,1,1-1A1,1,0,0,1,25,40Z"></path></g></svg> 