<?xml version="1.0" encoding="UTF-8"?> <svg xmlns="http://www.w3.org/2000/svg" xmlns:xlink="http://www.w3.org/1999/xlink" id="Calque_1" data-name="Calque 1" viewBox="0 0 70.87 70.87"><defs><style>.cls-1{fill:#f1f2f2;}.cls-2{fill:#fff;}.cls-3,.cls-5{fill:none;}.cls-4{clip-path:url(#clip-path);}.cls-5{stroke:#002c39;stroke-miterlimit:10;stroke-width:0.5px;}.cls-6{clip-path:url(#clip-path-2);}.cls-7{clip-path:url(#clip-path-3);}.cls-8{clip-path:url(#clip-path-4);}.cls-9{clip-path:url(#clip-path-5);}.cls-10{fill:#002c39;}</style><clipPath id="clip-path"><polygon class="cls-1" points="-322.83 -451.12 -322.83 -386.06 -266.45 -418.05 -210.15 -386.06 -210.15 -451.12 -266.49 -483.65 -322.83 -451.12"></polygon></clipPath><clipPath id="clip-path-2"><polygon class="cls-2" points="105.12 -408.39 152.99 -380.75 152.99 -325.48 200.86 -353.12 200.86 -408.39 152.99 -436.03 105.12 -408.39"></polygon></clipPath><clipPath id="clip-path-3"><polygon class="cls-2" points="345.43 -435.49 297.97 -408.09 297.97 -353.28 346.17 -380.82 392.89 -353.28 392.89 -408.09 345.43 -435.49"></polygon></clipPath><clipPath id="clip-path-4"><polygon class="cls-2" points="489.95 -407.94 442.49 -380.54 442.49 -325.74 489.95 -325.48 537.41 -325.74 537.41 -380.54 489.95 -407.94"></polygon></clipPath><clipPath id="clip-path-5"><polygon class="cls-3" points="852.73 -72.42 760.14 -18.96 760.14 87.96 854.16 34.24 945.33 87.96 945.33 -18.96 852.73 -72.42"></polygon></clipPath></defs><polygon class="cls-1" points="-322.83 -451.12 -322.83 -386.06 -266.45 -418.05 -210.15 -386.06 -210.15 -451.12 -266.49 -483.65 -322.83 -451.12"></polygon><g class="cls-4"><line class="cls-5" x1="-677.08" y1="8.53" x2="144.8" y2="-465.8"></line><line class="cls-5" x1="-677.08" y1="18.65" x2="144.8" y2="-455.68"></line><line class="cls-5" x1="-677.08" y1="3.47" x2="144.8" y2="-470.86"></line><line class="cls-5" x1="-677.08" y1="13.59" x2="144.8" y2="-460.74"></line><line class="cls-5" x1="-677.08" y1="23.71" x2="144.8" y2="-450.61"></line><line class="cls-5" x1="-677.08" y1="28.77" x2="144.8" y2="-445.55"></line><line class="cls-5" x1="-677.08" y1="33.84" x2="144.8" y2="-440.49"></line><line class="cls-5" x1="-677.08" y1="38.9" x2="144.8" y2="-435.43"></line><line class="cls-5" x1="-677.08" y1="43.96" x2="144.8" y2="-430.37"></line><line class="cls-5" x1="-677.08" y1="49.02" x2="144.8" y2="-425.31"></line><line class="cls-5" x1="-677.08" y1="54.08" x2="144.8" y2="-420.25"></line><line class="cls-5" x1="-677.08" y1="59.14" x2="144.8" y2="-415.18"></line><line class="cls-5" x1="-677.08" y1="64.2" x2="144.8" y2="-410.12"></line><line class="cls-5" x1="-677.08" y1="69.27" x2="144.8" y2="-405.06"></line><line class="cls-5" x1="-677.08" y1="74.33" x2="144.8" y2="-400"></line><line class="cls-5" x1="-677.08" y1="79.39" x2="144.8" y2="-394.94"></line><line class="cls-5" x1="-677.08" y1="84.45" x2="144.8" y2="-389.88"></line><line class="cls-5" x1="-677.08" y1="89.51" x2="144.8" y2="-384.82"></line><line class="cls-5" x1="-677.08" y1="94.57" x2="144.8" y2="-379.75"></line></g><polygon class="cls-2" points="105.12 -408.39 152.99 -380.75 152.99 -325.48 200.86 -353.12 200.86 -408.39 152.99 -436.03 105.12 -408.39"></polygon><g class="cls-6"><line class="cls-5" x1="-195.92" y1="3.25" x2="502.38" y2="-399.76"></line><line class="cls-5" x1="-195.92" y1="7.55" x2="502.38" y2="-395.46"></line><line class="cls-5" x1="-195.92" y1="11.85" x2="502.38" y2="-391.16"></line><line class="cls-5" x1="-195.92" y1="16.15" x2="502.38" y2="-386.86"></line><line class="cls-5" x1="-195.92" y1="20.45" x2="502.38" y2="-382.56"></line><line class="cls-5" x1="-195.92" y1="24.75" x2="502.38" y2="-378.26"></line><line class="cls-5" x1="-195.92" y1="29.05" x2="502.38" y2="-373.96"></line><line class="cls-5" x1="-195.92" y1="33.35" x2="502.38" y2="-369.66"></line><line class="cls-5" x1="-195.92" y1="37.65" x2="502.38" y2="-365.36"></line><line class="cls-5" x1="-195.92" y1="41.95" x2="502.38" y2="-361.06"></line><line class="cls-5" x1="-195.92" y1="46.25" x2="502.38" y2="-356.75"></line><line class="cls-5" x1="-195.92" y1="50.56" x2="502.38" y2="-352.45"></line><line class="cls-5" x1="-195.92" y1="54.86" x2="502.38" y2="-348.15"></line></g><polygon class="cls-2" points="345.43 -435.49 297.97 -408.09 297.97 -353.28 346.17 -380.82 392.89 -353.28 392.89 -408.09 345.43 -435.49"></polygon><g class="cls-7"><line class="cls-5" x1="-222.56" y1="2.83" x2="469.77" y2="-396.73"></line><line class="cls-5" x1="-222.56" y1="11.36" x2="469.77" y2="-388.2"></line><line class="cls-5" x1="-222.56" y1="19.89" x2="469.77" y2="-379.68"></line><line class="cls-5" x1="-222.56" y1="28.42" x2="469.77" y2="-371.15"></line><line class="cls-5" x1="-222.56" y1="36.94" x2="469.77" y2="-362.62"></line><line class="cls-5" x1="-222.56" y1="45.47" x2="469.77" y2="-354.09"></line><line class="cls-5" x1="-222.56" y1="54" x2="469.77" y2="-345.57"></line><line class="cls-5" x1="-222.56" y1="62.52" x2="469.77" y2="-337.04"></line><line class="cls-5" x1="-222.56" y1="7.1" x2="469.77" y2="-392.47"></line><line class="cls-5" x1="-222.56" y1="15.62" x2="469.77" y2="-383.94"></line><line class="cls-5" x1="-222.56" y1="24.15" x2="469.77" y2="-375.41"></line><line class="cls-5" x1="-222.56" y1="32.68" x2="469.77" y2="-366.89"></line><line class="cls-5" x1="-222.56" y1="41.21" x2="469.77" y2="-358.36"></line><line class="cls-5" x1="-222.56" y1="49.73" x2="469.77" y2="-349.83"></line><line class="cls-5" x1="-222.56" y1="58.26" x2="469.77" y2="-341.3"></line><line class="cls-5" x1="-222.56" y1="66.79" x2="469.77" y2="-332.78"></line><line class="cls-5" x1="-222.56" y1="71.05" x2="469.77" y2="-328.51"></line><line class="cls-5" x1="-222.56" y1="75.32" x2="469.77" y2="-324.25"></line><line class="cls-5" x1="-222.56" y1="79.58" x2="469.77" y2="-319.98"></line><line class="cls-5" x1="-222.56" y1="83.84" x2="469.77" y2="-315.72"></line><line class="cls-5" x1="-222.56" y1="88.11" x2="469.77" y2="-311.46"></line><line class="cls-5" x1="-222.56" y1="92.37" x2="469.77" y2="-307.19"></line><line class="cls-5" x1="-222.56" y1="96.63" x2="469.77" y2="-302.93"></line><line class="cls-5" x1="-222.56" y1="100.9" x2="469.77" y2="-298.67"></line><line class="cls-5" x1="-222.56" y1="105.16" x2="469.77" y2="-294.4"></line><line class="cls-5" x1="-222.56" y1="109.43" x2="469.77" y2="-290.14"></line><line class="cls-5" x1="-222.56" y1="113.69" x2="469.77" y2="-285.88"></line><line class="cls-5" x1="-222.56" y1="117.95" x2="469.77" y2="-281.61"></line><line class="cls-5" x1="-222.56" y1="122.22" x2="469.77" y2="-277.35"></line><line class="cls-5" x1="-222.56" y1="126.48" x2="469.77" y2="-273.08"></line></g><polygon class="cls-2" points="489.95 -407.94 442.49 -380.54 442.49 -325.74 489.95 -325.48 537.41 -325.74 537.41 -380.54 489.95 -407.94"></polygon><g class="cls-8"><line class="cls-5" x1="-78.04" y1="0.53" x2="614.3" y2="-399.03"></line><line class="cls-5" x1="-78.04" y1="4.8" x2="614.3" y2="-394.77"></line><line class="cls-5" x1="-78.04" y1="9.06" x2="614.3" y2="-390.51"></line><line class="cls-5" x1="-78.04" y1="13.32" x2="614.3" y2="-386.24"></line><line class="cls-5" x1="-78.04" y1="17.59" x2="614.3" y2="-381.98"></line><line class="cls-5" x1="-78.04" y1="21.85" x2="614.3" y2="-377.71"></line><line class="cls-5" x1="-78.04" y1="26.11" x2="614.3" y2="-373.45"></line><line class="cls-5" x1="-78.04" y1="30.38" x2="614.3" y2="-369.19"></line><line class="cls-5" x1="-78.04" y1="38.9" x2="614.3" y2="-360.66"></line><line class="cls-5" x1="-78.04" y1="47.43" x2="614.3" y2="-352.13"></line><line class="cls-5" x1="-78.04" y1="55.96" x2="614.3" y2="-343.61"></line><line class="cls-5" x1="-78.04" y1="64.49" x2="614.3" y2="-335.08"></line><line class="cls-5" x1="-78.04" y1="73.01" x2="614.3" y2="-326.55"></line><line class="cls-5" x1="-78.04" y1="81.54" x2="614.3" y2="-318.02"></line><line class="cls-5" x1="-78.04" y1="90.07" x2="614.3" y2="-309.5"></line><line class="cls-5" x1="-78.04" y1="34.64" x2="614.3" y2="-364.92"></line><line class="cls-5" x1="-78.04" y1="43.17" x2="614.3" y2="-356.4"></line><line class="cls-5" x1="-78.04" y1="51.7" x2="614.3" y2="-347.87"></line><line class="cls-5" x1="-78.04" y1="60.22" x2="614.3" y2="-339.34"></line><line class="cls-5" x1="-78.04" y1="68.75" x2="614.3" y2="-330.81"></line><line class="cls-5" x1="-78.04" y1="77.28" x2="614.3" y2="-322.29"></line><line class="cls-5" x1="-78.04" y1="85.81" x2="614.3" y2="-313.76"></line><line class="cls-5" x1="-78.04" y1="94.33" x2="614.3" y2="-305.23"></line><line class="cls-5" x1="-78.04" y1="98.6" x2="614.3" y2="-300.97"></line><line class="cls-5" x1="-78.04" y1="102.86" x2="614.3" y2="-296.7"></line><line class="cls-5" x1="-78.04" y1="107.12" x2="614.3" y2="-292.44"></line><line class="cls-5" x1="-78.04" y1="111.39" x2="614.3" y2="-288.18"></line><line class="cls-5" x1="-78.04" y1="115.65" x2="614.3" y2="-283.91"></line><line class="cls-5" x1="-78.04" y1="119.91" x2="614.3" y2="-279.65"></line><line class="cls-5" x1="-78.04" y1="124.18" x2="614.3" y2="-275.39"></line><line class="cls-5" x1="-78.04" y1="128.44" x2="614.3" y2="-271.12"></line><line class="cls-5" x1="-78.04" y1="132.71" x2="614.3" y2="-266.86"></line><line class="cls-5" x1="-78.04" y1="136.97" x2="614.3" y2="-262.6"></line><line class="cls-5" x1="-78.04" y1="141.23" x2="614.3" y2="-258.33"></line><line class="cls-5" x1="-78.04" y1="145.5" x2="614.3" y2="-254.07"></line><line class="cls-5" x1="-78.04" y1="149.76" x2="614.3" y2="-249.8"></line><line class="cls-5" x1="-78.04" y1="154.02" x2="614.3" y2="-245.54"></line></g><g class="cls-9"><line class="cls-5" x1="-255.41" y1="117.27" x2="1095.32" y2="-662.27"></line><line class="cls-5" x1="-255.41" y1="125.59" x2="1095.32" y2="-653.96"></line><line class="cls-5" x1="-255.41" y1="133.91" x2="1095.32" y2="-645.64"></line><line class="cls-5" x1="-255.41" y1="142.23" x2="1095.32" y2="-637.32"></line><line class="cls-5" x1="-255.41" y1="150.55" x2="1095.32" y2="-629"></line><line class="cls-5" x1="-255.41" y1="158.86" x2="1095.32" y2="-620.68"></line><line class="cls-5" x1="-255.41" y1="167.18" x2="1095.32" y2="-612.36"></line><line class="cls-5" x1="-255.41" y1="175.5" x2="1095.32" y2="-604.05"></line><line class="cls-5" x1="-255.41" y1="183.82" x2="1095.32" y2="-595.73"></line><line class="cls-5" x1="-255.41" y1="192.14" x2="1095.32" y2="-587.41"></line><line class="cls-5" x1="-255.41" y1="200.46" x2="1095.32" y2="-579.09"></line><line class="cls-5" x1="-255.41" y1="208.77" x2="1095.32" y2="-570.77"></line><line class="cls-5" x1="-255.41" y1="217.09" x2="1095.32" y2="-562.45"></line><line class="cls-5" x1="-255.41" y1="225.41" x2="1095.32" y2="-554.13"></line><line class="cls-5" x1="-255.41" y1="233.73" x2="1095.32" y2="-545.82"></line><line class="cls-5" x1="-255.41" y1="242.05" x2="1095.32" y2="-537.5"></line><line class="cls-5" x1="-255.41" y1="250.37" x2="1095.32" y2="-529.18"></line><line class="cls-5" x1="-255.41" y1="258.68" x2="1095.32" y2="-520.86"></line><line class="cls-5" x1="-255.41" y1="267" x2="1095.32" y2="-512.54"></line><line class="cls-5" x1="-255.41" y1="275.32" x2="1095.32" y2="-504.22"></line><line class="cls-5" x1="-255.41" y1="283.64" x2="1095.32" y2="-495.91"></line><line class="cls-5" x1="-255.41" y1="291.96" x2="1095.32" y2="-487.59"></line><line class="cls-5" x1="-255.41" y1="300.28" x2="1095.32" y2="-479.27"></line><line class="cls-5" x1="-255.41" y1="308.6" x2="1095.32" y2="-470.95"></line><line class="cls-5" x1="-255.41" y1="316.91" x2="1095.32" y2="-462.63"></line><line class="cls-5" x1="-255.41" y1="325.23" x2="1095.32" y2="-454.31"></line><line class="cls-5" x1="-255.41" y1="333.55" x2="1095.32" y2="-446"></line><line class="cls-5" x1="-255.41" y1="341.87" x2="1095.32" y2="-437.68"></line><line class="cls-5" x1="-255.41" y1="350.19" x2="1095.32" y2="-429.36"></line><line class="cls-5" x1="-255.41" y1="358.51" x2="1095.32" y2="-421.04"></line><line class="cls-5" x1="-255.41" y1="366.82" x2="1095.32" y2="-412.72"></line><line class="cls-5" x1="-255.41" y1="375.14" x2="1095.32" y2="-404.4"></line><line class="cls-5" x1="-255.41" y1="383.46" x2="1095.32" y2="-396.09"></line><line class="cls-5" x1="-255.41" y1="391.78" x2="1095.32" y2="-387.77"></line><line class="cls-5" x1="-255.41" y1="400.1" x2="1095.32" y2="-379.45"></line><line class="cls-5" x1="-255.41" y1="408.42" x2="1095.32" y2="-371.13"></line><line class="cls-5" x1="-255.41" y1="416.73" x2="1095.32" y2="-362.81"></line><line class="cls-5" x1="-255.41" y1="425.05" x2="1095.32" y2="-354.49"></line><line class="cls-5" x1="-255.41" y1="433.37" x2="1095.32" y2="-346.18"></line><line class="cls-5" x1="-255.41" y1="441.69" x2="1095.32" y2="-337.86"></line><line class="cls-5" x1="-255.41" y1="450.01" x2="1095.32" y2="-329.54"></line><line class="cls-5" x1="-255.41" y1="458.33" x2="1095.32" y2="-321.22"></line><line class="cls-5" x1="-255.41" y1="466.64" x2="1095.32" y2="-312.9"></line><line class="cls-5" x1="-255.41" y1="474.96" x2="1095.32" y2="-304.58"></line><line class="cls-5" x1="-255.41" y1="483.28" x2="1095.32" y2="-296.26"></line><line class="cls-5" x1="-255.41" y1="491.6" x2="1095.32" y2="-287.95"></line><line class="cls-5" x1="-255.41" y1="499.92" x2="1095.32" y2="-279.63"></line><line class="cls-5" x1="-255.41" y1="508.24" x2="1095.32" y2="-271.31"></line><line class="cls-5" x1="-255.41" y1="516.55" x2="1095.32" y2="-262.99"></line><line class="cls-5" x1="-255.41" y1="524.87" x2="1095.32" y2="-254.67"></line><line class="cls-5" x1="-255.41" y1="533.19" x2="1095.32" y2="-246.35"></line><line class="cls-5" x1="-255.41" y1="541.51" x2="1095.32" y2="-238.04"></line><line class="cls-5" x1="-255.41" y1="549.83" x2="1095.32" y2="-229.72"></line><line class="cls-5" x1="-255.41" y1="558.15" x2="1095.32" y2="-221.4"></line><line class="cls-5" x1="-255.41" y1="566.47" x2="1095.32" y2="-213.08"></line><line class="cls-5" x1="-255.41" y1="574.78" x2="1095.32" y2="-204.76"></line><line class="cls-5" x1="-255.41" y1="583.1" x2="1095.32" y2="-196.44"></line><line class="cls-5" x1="-255.41" y1="591.42" x2="1095.32" y2="-188.13"></line><line class="cls-5" x1="-255.41" y1="599.74" x2="1095.32" y2="-179.81"></line><line class="cls-5" x1="-255.41" y1="608.06" x2="1095.32" y2="-171.49"></line><line class="cls-5" x1="-255.41" y1="616.38" x2="1095.32" y2="-163.17"></line><line class="cls-5" x1="-255.41" y1="633.01" x2="1095.32" y2="-146.53"></line><line class="cls-5" x1="-255.41" y1="649.65" x2="1095.32" y2="-129.9"></line><line class="cls-5" x1="-255.41" y1="666.29" x2="1095.32" y2="-113.26"></line><line class="cls-5" x1="-255.41" y1="682.92" x2="1095.32" y2="-96.62"></line><line class="cls-5" x1="-255.41" y1="699.56" x2="1095.32" y2="-79.99"></line><line class="cls-5" x1="-255.41" y1="624.69" x2="1095.32" y2="-154.85"></line><line class="cls-5" x1="-255.41" y1="641.33" x2="1095.32" y2="-138.22"></line><line class="cls-5" x1="-255.41" y1="657.97" x2="1095.32" y2="-121.58"></line><line class="cls-5" x1="-255.41" y1="674.6" x2="1095.32" y2="-104.94"></line><line class="cls-5" x1="-255.41" y1="691.24" x2="1095.32" y2="-88.31"></line><line class="cls-5" x1="-255.41" y1="707.88" x2="1095.32" y2="-71.67"></line><line class="cls-5" x1="-255.41" y1="716.2" x2="1095.32" y2="-63.35"></line><line class="cls-5" x1="-255.41" y1="724.51" x2="1095.32" y2="-55.03"></line><line class="cls-5" x1="-255.41" y1="732.83" x2="1095.32" y2="-46.71"></line><line class="cls-5" x1="-255.41" y1="741.15" x2="1095.32" y2="-38.39"></line><line class="cls-5" x1="-255.41" y1="749.47" x2="1095.32" y2="-30.08"></line><line class="cls-5" x1="-255.41" y1="757.79" x2="1095.32" y2="-21.76"></line><line class="cls-5" x1="-255.41" y1="766.11" x2="1095.32" y2="-13.44"></line><line class="cls-5" x1="-255.41" y1="774.42" x2="1095.32" y2="-5.12"></line><line class="cls-5" x1="-255.41" y1="782.74" x2="1095.32" y2="3.2"></line><line class="cls-5" x1="-255.41" y1="799.38" x2="1095.32" y2="19.83"></line><line class="cls-5" x1="-255.41" y1="816.02" x2="1095.32" y2="36.47"></line><line class="cls-5" x1="-255.41" y1="832.65" x2="1095.32" y2="53.11"></line><line class="cls-5" x1="-255.41" y1="849.29" x2="1095.32" y2="69.74"></line><line class="cls-5" x1="-255.41" y1="791.06" x2="1095.32" y2="11.52"></line><line class="cls-5" x1="-255.41" y1="807.7" x2="1095.32" y2="28.15"></line><line class="cls-5" x1="-255.41" y1="824.34" x2="1095.32" y2="44.79"></line><line class="cls-5" x1="-255.41" y1="840.97" x2="1095.32" y2="61.43"></line></g><path class="cls-10" d="M12,19.28a1.93,1.93,0,0,0-.86-.11,1.85,1.85,0,0,1-1.09.33,5.34,5.34,0,0,0-1.25-.91c-.3-.15-.65-.31-.75-.64-.14-.52-1-.73-1.56-.61a2.29,2.29,0,0,0-2,.49c-.24.2,0,.67.24.9s.45.48.41.78a1.81,1.81,0,0,1-.86.13,1.61,1.61,0,0,0-.49,0,.31.31,0,0,0-.23.37c-.11.19-.24.29-.11.46s.26.25.26.42a.38.38,0,0,1-.24.3,3.92,3.92,0,0,0-.36.16c-.35.23-.36.73-.32,1.15A1.26,1.26,0,0,1,3,23.6a.63.63,0,0,0-.06.4.51.51,0,0,0,.38.25,1.13,1.13,0,0,0,1-.06C5,23.62,6,23.92,6.9,24.11a1.29,1.29,0,0,1,.79.43,1.15,1.15,0,0,1-.06,1.16A6.58,6.58,0,0,0,7,26.77a3.12,3.12,0,0,0,0,1.14,2.72,2.72,0,0,0,.36,1.35,2.49,2.49,0,0,1,.44,1.5,11.5,11.5,0,0,0-.12,1.18A2.26,2.26,0,0,0,9,33.53a3,3,0,0,1,1.45,1.69c.12.36.15.74.25,1.11a3.22,3.22,0,0,0,1.07,1.61,3.57,3.57,0,0,0,1.45.49,1.25,1.25,0,0,1,.69.24c.09.08.15.18.23.26.39.38,1.11.22,1.51.61a4.19,4.19,0,0,1,.26.33,1.17,1.17,0,0,0,1,.43c-.09.29.26.63.15.92s-.35.33-.53.5a1.14,1.14,0,0,0-.23,1.18A3.1,3.1,0,0,0,17,44c.53.59,1.16.88,1.73,1.42a2.26,2.26,0,0,1,.54,2,14.46,14.46,0,0,1-.66,2.09,6.76,6.76,0,0,0-.12,4,4.66,4.66,0,0,0,2.62,3,.4.4,0,0,0,.41-.15.36.36,0,0,0,.05-.42,8.51,8.51,0,0,0-.93-1.15.66.66,0,0,1-.18-.41.87.87,0,0,1,.27-.42,1.07,1.07,0,0,0,.24-.71c0-.24-.15-.48-.14-.72a.62.62,0,0,1,.37-.57,1.87,1.87,0,0,0,.32-.08c.33-.14.27-.64.51-.91a1.36,1.36,0,0,1,.43-.27,2.06,2.06,0,0,0,1.22-1.62c.05-.56-.16-1.25.27-1.61s1-.12,1.51-.2a.72.72,0,0,0,.45-.42.94.94,0,0,0,.07-.62,3.27,3.27,0,0,1-.13-.76,2,2,0,0,1,.54-.94A3.22,3.22,0,0,0,27,43.36a1.27,1.27,0,0,0-.63-1.29,3.07,3.07,0,0,0-1.45-.26,2.5,2.5,0,0,1-1.42-.34,5.4,5.4,0,0,1-.87-1,5.18,5.18,0,0,0-1.9-1.24,1.19,1.19,0,0,0-.83-.16,2.15,2.15,0,0,1-.32.13c-.31.06-.55-.23-.83-.38a1,1,0,0,0-1.44.78,1,1,0,0,1-1-.25c-.12-.19-.17-.45-.38-.54s-.25,0-.34-.1,0-.37,0-.57a.8.8,0,0,0-.48-.75,2.28,2.28,0,0,0-.93-.16,2.23,2.23,0,0,1-.93-.16,1.29,1.29,0,0,1-.54-1.6,1.58,1.58,0,0,1,1.49-.9,1.23,1.23,0,0,1,1.25,1.07c0,.15.25.17.38.09a.54.54,0,0,0,.24-.38c0-.15,0-.31.08-.45a.85.85,0,0,1,.81-.58c.37,0,.63-.37.89-.63a1.08,1.08,0,0,0,.32-1c-.06-.19-.19-.39-.12-.58a.58.58,0,0,1,.34-.29,2.92,2.92,0,0,1,1.27-.23c.38,0,.58-.22.77-.54s.2-.54.42-.7.79,0,1.2,0A1,1,0,0,0,22.9,29a2.86,2.86,0,0,0-.43-.73A3.28,3.28,0,0,1,22,27.17a2.15,2.15,0,0,0-.32-1,2.71,2.71,0,0,0-1.13.17,2.27,2.27,0,0,0-.36-1,.8.8,0,0,0-1-.28,1,1,0,0,0-.32,1,5.71,5.71,0,0,1,.2,1.08c0,.36-.27.77-.63.76a.79.79,0,0,1-.5-.26,2.41,2.41,0,0,0-.59-.56,2.55,2.55,0,0,0-.61-.13,1.32,1.32,0,1,1,.71-2.54,1.63,1.63,0,0,0,.82-2.14,2.33,2.33,0,0,0-2.07-1.35,3.78,3.78,0,0,1-.76-.05c-.7-.18-1.07-.94-1.68-1.33-.4-.26-1.32,0-1.77-.18"></path><path class="cls-10" d="M23.05,16.78c-.26.41,0,1,.43,1.27a6,6,0,0,1,1.19.85,2.32,2.32,0,0,1,.08,2.26,5.14,5.14,0,0,0-.56,2.27,2.49,2.49,0,0,0,.39,1,1.41,1.41,0,0,0,.8.68,1.4,1.4,0,0,0,1.23-.46,4.91,4.91,0,0,1,1.05-.89c.59-.29,1.35-.18,1.87-.59s.54-1.48.72-2.28c.29-1.34,1.45-2.33,1.9-3.62a2.36,2.36,0,0,0,.15-.79,2.21,2.21,0,0,0-1.57-1.87,10.14,10.14,0,0,0-3.06-.18,3.9,3.9,0,0,0-1.73,0c-.84.36-.6,1.18-1.15,1.68s-1.35.09-1.74.67"></path><path class="cls-10" d="M45.75,22c-.48-.47-1.27,0-1.77.43L42.49,23.8a2.59,2.59,0,0,1-1.27.77.94.94,0,0,1-1.11-.73c.34-.32,1,.15,1.33-.2s-.13-.74-.49-.95a5.74,5.74,0,0,0-2.08-.86,2,2,0,0,0-2,.79c-.33.55-.27,1.28-.6,1.83-.2.35-.54.6-.77.93a.88.88,0,0,0-.05,1.11c.23.23.62.23.85.46s.24.48.47.58.56-.15.62-.42a2.11,2.11,0,0,0-.07-.86,1.68,1.68,0,0,1,1.14-2c.19,0,.25.28.17.45s-.26.3-.35.47a.63.63,0,0,0,.38.87c.37.09,1,0,.93.39s-.79.14-1,.47,0,.45,0,.69c0,.47-.52.77-1,.8s-.93-.1-1.39-.06-1,.37-.95.84a12.82,12.82,0,0,1-2,.73c0,.5,1,.55,1,1.05,0,.31-.38.46-.68.44a2.75,2.75,0,0,0-.9-.06.87.87,0,0,0-.4,1.28,1.49,1.49,0,0,0,1.38.58.76.76,0,0,0,.56-.24,1.49,1.49,0,0,0,.19-.56,1.26,1.26,0,0,1,.92-.89c.25-.06.55-.06.68-.28a2,2,0,0,1,1,1.54c.18.24.58-.07.54-.36s-.3-.5-.5-.71-.38-.54-.22-.79a2.87,2.87,0,0,1,2,2.1.55.55,0,0,0,.33-.8c.1-.24.48-.1.59.13s.1.52.26.72c.45.59,1.67-.13,2,.51.27.45-.32,1-.84,1s-1-.31-1.51-.37a8.23,8.23,0,0,0-1.7.26c-.57.07-1.27-.16-1.39-.72a1.64,1.64,0,0,0-.1-.45.58.58,0,0,0-.59-.2c-.95.1-1.91,1.08-2.7.54-.5,1-1.72,1.34-2.41,2.2a2.79,2.79,0,0,0,0,3.32A3.51,3.51,0,0,0,34,40.35a1.45,1.45,0,0,1,.8,0c.26.1.41.34.62.51s.56.26.73.05a1.7,1.7,0,0,0,.14,1.52c.31.49.89.87.88,1.44a3.7,3.7,0,0,1-.26.84c-.37,1.3,1.17,2.37,1.41,3.7.07.36.07.79.37,1a.91.91,0,0,0,.48.13c.86.05,1.94-.2,2.12-1a4.46,4.46,0,0,0,0-.73A2.07,2.07,0,0,1,42.42,46a1.83,1.83,0,0,0,.51-.29A1.17,1.17,0,0,0,43,44.49a2.54,2.54,0,0,1-.34-1.24c.09-.7.83-1.06,1.4-1.47a4,4,0,0,0,1.57-2.64c-.78.25-1.74.45-2.33-.11a2.23,2.23,0,0,1-.46-.71L41.76,36a.42.42,0,0,1-.06-.32c.11-.29.54,0,.7.21A25.59,25.59,0,0,1,44,38.75a6.33,6.33,0,0,0,2.63-1.14,1.43,1.43,0,0,0,.58-.71.59.59,0,0,0-.37-.73,1.45,1.45,0,0,0-.36,0,2.28,2.28,0,0,1-1.81-1c.32-.36.91-.16,1.35,0a10,10,0,0,0,2.47.76,2.19,2.19,0,0,1,.62.17,1.88,1.88,0,0,1,.36.27,7.46,7.46,0,0,1,2.08,3.37c.37.09.63-.38.66-.76s0-.82.27-1.09.57-.24.76-.48.11-.79.39-1,.92.07,1.11.51.26,1,.65,1.25l.64-.09a4.91,4.91,0,0,0,1,3c.37-.19.2-.74,0-1.08s-.45-.86-.12-1.11c.44,0,.65.62,1.09.73s.82-.41.74-.85a1.51,1.51,0,0,0-.84-1c-.35-.39.15-1,.66-1.08s1.07.06,1.54-.18a1.47,1.47,0,0,0,.61-1.62,6.41,6.41,0,0,0-.78-1.68c-.25-.47-.38-1.2.11-1.4a1.19,1.19,0,0,1,.42-.06,3.36,3.36,0,0,0,3-3.85A1.83,1.83,0,0,0,63,27c-.44-.45-1.19-.56-1.52-1.09s.1-1.53.74-1.95,1.43-.61,2-1.09c.16,0,.25-.16.28-.31a1.51,1.51,0,0,0,0-.3.68.68,0,0,1,.46-.63.66.66,0,0,1,.72.28,1.06,1.06,0,0,1,0,1,3.3,3.3,0,0,0-.35.95.68.68,0,0,0,.49.78c.42,0,.68-.45.71-.86a2.59,2.59,0,0,1,.17-1.22c.34-.54,1.28-.66,1.3-1.3s-.62-.81-.74-1.31a1.79,1.79,0,0,1,0-.61,2.41,2.41,0,0,0-.87-2,2.39,2.39,0,0,0-2.19-.39c-.23.08-.46.19-.7.26a3.44,3.44,0,0,1-1.11,0l-2-.13a3.23,3.23,0,0,0-1.75.2c-.77.4-1.2,1.41-2.06,1.51-.61.08-1.15-.34-1.72-.57a2.88,2.88,0,0,0-2.8.43c-.29-.14-.2-.57-.3-.88a.9.9,0,0,0-.79-.54,2.58,2.58,0,0,0-1,.17c-.69.23-1.5.62-1.56,1.34a1.79,1.79,0,0,1-.06.61c-.12.26-.45.35-.66.56a1.35,1.35,0,0,0-.29,1,1.83,1.83,0,0,1-.22,1,1.57,1.57,0,0,1-1.51.18"></path><path class="cls-10" d="M58.7,42.06a1.54,1.54,0,0,0,.69.48,1,1,0,0,0,1,.05,4.45,4.45,0,0,0,.88-1.22c.09-.37,0-.35-.41-.42-.6-.12-2.82.11-2.13,1.11"></path><path class="cls-10" d="M56.52,41.94a5.06,5.06,0,0,0,4.41,2.57c.13-.13-.06-.32-.22-.39-.45-.19-.94-.29-1.4-.45a2.32,2.32,0,0,1-1.19-.81,3.6,3.6,0,0,1-.29-.55c-.27-.52-1.34-1.84-2-1.52.17.36.47.76.69,1.15"></path><path class="cls-10" d="M61.19,45.59c-.23.26-.44.57-.78.65-.19,0-.41,0-.6,0-.59.14-.72.92-.59,1.5a3.09,3.09,0,0,1,.19,1.76.85.85,0,0,0-.11.34.47.47,0,0,0,.22.36c.53.4,1.29.11,1.88-.2a2,2,0,0,1,1.88-.34c.62.34.68,1.2,1.07,1.8A1.24,1.24,0,0,0,66,52a1.79,1.79,0,0,0,.45-.46l.79-1A3.21,3.21,0,0,0,68,49c.13-1.1-.85-2-1.73-2.67a2.77,2.77,0,0,0-.28-1c-.36-.62-1.1-.68-.9.19-.57,0-1-.84-1.68-.92a2.85,2.85,0,0,0-2.2,1"></path></svg> 