<?xml version="1.0" encoding="UTF-8"?> <svg xmlns="http://www.w3.org/2000/svg" xmlns:xlink="http://www.w3.org/1999/xlink" id="Calque_1" data-name="Calque 1" viewBox="0 0 70.87 70.87"><defs><style>.cls-1{fill:#f1f2f2;}.cls-2{fill:#fff;}.cls-3,.cls-5{fill:none;}.cls-4{clip-path:url(#clip-path);}.cls-5{stroke:#002c39;stroke-miterlimit:10;stroke-width:0.5px;}.cls-6{clip-path:url(#clip-path-2);}.cls-7{clip-path:url(#clip-path-3);}.cls-8{clip-path:url(#clip-path-4);}.cls-9{clip-path:url(#clip-path-5);}.cls-10{fill:#002c39;}</style><clipPath id="clip-path"><polygon class="cls-1" points="-84.4 -451.12 -84.4 -386.06 -28.03 -418.05 28.28 -386.06 28.28 -451.12 -28.06 -483.65 -84.4 -451.12"></polygon></clipPath><clipPath id="clip-path-2"><polygon class="cls-1" points="-309.77 -451.45 -253.43 -418.92 -253.43 -353.87 -197.09 -386.4 -197.09 -451.45 -253.43 -483.98 -309.77 -451.45"></polygon></clipPath><clipPath id="clip-path-3"><polygon class="cls-2" points="343.54 -408.39 391.41 -380.75 391.41 -325.48 439.28 -353.12 439.28 -408.39 391.41 -436.03 343.54 -408.39"></polygon></clipPath><clipPath id="clip-path-4"><polygon class="cls-2" points="583.86 -435.49 536.39 -408.09 536.39 -353.28 584.59 -380.82 631.32 -353.28 631.32 -408.09 583.86 -435.49"></polygon></clipPath><clipPath id="clip-path-5"><polygon class="cls-3" points="1091.16 -72.42 998.56 -18.96 998.56 87.96 1092.59 34.24 1183.75 87.96 1183.75 -18.96 1091.16 -72.42"></polygon></clipPath></defs><polygon class="cls-1" points="-84.4 -451.12 -84.4 -386.06 -28.03 -418.05 28.28 -386.06 28.28 -451.12 -28.06 -483.65 -84.4 -451.12"></polygon><g class="cls-4"><line class="cls-5" x1="-438.65" y1="8.53" x2="383.22" y2="-465.8"></line><line class="cls-5" x1="-438.65" y1="18.65" x2="383.22" y2="-455.68"></line><line class="cls-5" x1="-438.65" y1="3.47" x2="383.22" y2="-470.86"></line><line class="cls-5" x1="-438.65" y1="13.59" x2="383.22" y2="-460.74"></line><line class="cls-5" x1="-438.65" y1="23.71" x2="383.22" y2="-450.61"></line><line class="cls-5" x1="-438.65" y1="28.77" x2="383.22" y2="-445.55"></line><line class="cls-5" x1="-438.65" y1="33.84" x2="383.22" y2="-440.49"></line><line class="cls-5" x1="-438.65" y1="38.9" x2="383.22" y2="-435.43"></line><line class="cls-5" x1="-438.65" y1="43.96" x2="383.22" y2="-430.37"></line><line class="cls-5" x1="-438.65" y1="49.02" x2="383.22" y2="-425.31"></line><line class="cls-5" x1="-438.65" y1="54.08" x2="383.22" y2="-420.25"></line><line class="cls-5" x1="-438.65" y1="59.14" x2="383.22" y2="-415.18"></line><line class="cls-5" x1="-438.65" y1="64.2" x2="383.22" y2="-410.12"></line><line class="cls-5" x1="-438.65" y1="69.27" x2="383.22" y2="-405.06"></line><line class="cls-5" x1="-438.65" y1="74.33" x2="383.22" y2="-400"></line><line class="cls-5" x1="-438.65" y1="79.39" x2="383.22" y2="-394.94"></line><line class="cls-5" x1="-438.65" y1="84.45" x2="383.22" y2="-389.88"></line><line class="cls-5" x1="-438.65" y1="89.51" x2="383.22" y2="-384.82"></line><line class="cls-5" x1="-438.65" y1="94.57" x2="383.22" y2="-379.75"></line></g><polygon class="cls-1" points="-309.77 -451.45 -253.43 -418.92 -253.43 -353.87 -197.09 -386.4 -197.09 -451.45 -253.43 -483.98 -309.77 -451.45"></polygon><g class="cls-6"><line class="cls-5" x1="-664.08" y1="7.73" x2="157.79" y2="-466.6"></line><line class="cls-5" x1="-664.08" y1="17.85" x2="157.79" y2="-456.48"></line><line class="cls-5" x1="-664.08" y1="2.67" x2="157.79" y2="-471.66"></line><line class="cls-5" x1="-664.08" y1="12.79" x2="157.79" y2="-461.54"></line><line class="cls-5" x1="-664.08" y1="22.91" x2="157.79" y2="-451.42"></line><line class="cls-5" x1="-664.08" y1="27.97" x2="157.79" y2="-446.35"></line><line class="cls-5" x1="-664.08" y1="33.03" x2="157.79" y2="-441.29"></line><line class="cls-5" x1="-664.08" y1="38.1" x2="157.79" y2="-436.23"></line><line class="cls-5" x1="-664.08" y1="43.16" x2="157.79" y2="-431.17"></line><line class="cls-5" x1="-664.08" y1="48.22" x2="157.79" y2="-426.11"></line><line class="cls-5" x1="-664.08" y1="53.28" x2="157.79" y2="-421.05"></line><line class="cls-5" x1="-664.08" y1="58.34" x2="157.79" y2="-415.99"></line><line class="cls-5" x1="-664.08" y1="63.4" x2="157.79" y2="-410.92"></line><line class="cls-5" x1="-664.08" y1="68.46" x2="157.79" y2="-405.86"></line><line class="cls-5" x1="-664.08" y1="73.53" x2="157.79" y2="-400.8"></line><line class="cls-5" x1="-664.08" y1="78.59" x2="157.79" y2="-395.74"></line><line class="cls-5" x1="-664.08" y1="83.65" x2="157.79" y2="-390.68"></line><line class="cls-5" x1="-664.08" y1="88.71" x2="157.79" y2="-385.62"></line><line class="cls-5" x1="-664.08" y1="93.77" x2="157.79" y2="-380.56"></line></g><polygon class="cls-2" points="343.54 -408.39 391.41 -380.75 391.41 -325.48 439.28 -353.12 439.28 -408.39 391.41 -436.03 343.54 -408.39"></polygon><g class="cls-7"><line class="cls-5" x1="42.5" y1="3.25" x2="740.8" y2="-399.76"></line><line class="cls-5" x1="42.5" y1="7.55" x2="740.8" y2="-395.46"></line><line class="cls-5" x1="42.5" y1="11.85" x2="740.8" y2="-391.16"></line><line class="cls-5" x1="42.5" y1="16.15" x2="740.8" y2="-386.86"></line><line class="cls-5" x1="42.5" y1="20.45" x2="740.8" y2="-382.56"></line><line class="cls-5" x1="42.5" y1="24.75" x2="740.8" y2="-378.26"></line><line class="cls-5" x1="42.5" y1="29.05" x2="740.8" y2="-373.96"></line><line class="cls-5" x1="42.5" y1="33.35" x2="740.8" y2="-369.66"></line><line class="cls-5" x1="42.5" y1="37.65" x2="740.8" y2="-365.36"></line><line class="cls-5" x1="42.5" y1="41.95" x2="740.8" y2="-361.06"></line><line class="cls-5" x1="42.5" y1="46.25" x2="740.8" y2="-356.75"></line><line class="cls-5" x1="42.5" y1="50.56" x2="740.8" y2="-352.45"></line><line class="cls-5" x1="42.5" y1="54.86" x2="740.8" y2="-348.15"></line></g><polygon class="cls-2" points="583.86 -435.49 536.39 -408.09 536.39 -353.28 584.59 -380.82 631.32 -353.28 631.32 -408.09 583.86 -435.49"></polygon><g class="cls-8"><line class="cls-5" x1="15.87" y1="2.83" x2="708.2" y2="-396.73"></line><line class="cls-5" x1="15.87" y1="11.36" x2="708.2" y2="-388.2"></line><line class="cls-5" x1="15.87" y1="19.89" x2="708.2" y2="-379.68"></line><line class="cls-5" x1="15.87" y1="28.42" x2="708.2" y2="-371.15"></line><line class="cls-5" x1="15.87" y1="36.94" x2="708.2" y2="-362.62"></line><line class="cls-5" x1="15.87" y1="45.47" x2="708.2" y2="-354.09"></line><line class="cls-5" x1="15.87" y1="54" x2="708.2" y2="-345.57"></line><line class="cls-5" x1="15.87" y1="62.52" x2="708.2" y2="-337.04"></line><line class="cls-5" x1="15.87" y1="7.1" x2="708.2" y2="-392.47"></line><line class="cls-5" x1="15.87" y1="15.62" x2="708.2" y2="-383.94"></line><line class="cls-5" x1="15.87" y1="24.15" x2="708.2" y2="-375.41"></line><line class="cls-5" x1="15.87" y1="32.68" x2="708.2" y2="-366.89"></line><line class="cls-5" x1="15.87" y1="41.21" x2="708.2" y2="-358.36"></line><line class="cls-5" x1="15.87" y1="49.73" x2="708.2" y2="-349.83"></line><line class="cls-5" x1="15.87" y1="58.26" x2="708.2" y2="-341.3"></line><line class="cls-5" x1="15.87" y1="66.79" x2="708.2" y2="-332.78"></line><line class="cls-5" x1="15.87" y1="71.05" x2="708.2" y2="-328.51"></line><line class="cls-5" x1="15.87" y1="75.32" x2="708.2" y2="-324.25"></line><line class="cls-5" x1="15.87" y1="79.58" x2="708.2" y2="-319.98"></line><line class="cls-5" x1="15.87" y1="83.84" x2="708.2" y2="-315.72"></line><line class="cls-5" x1="15.87" y1="88.11" x2="708.2" y2="-311.46"></line><line class="cls-5" x1="15.87" y1="92.37" x2="708.2" y2="-307.19"></line><line class="cls-5" x1="15.87" y1="96.63" x2="708.2" y2="-302.93"></line><line class="cls-5" x1="15.87" y1="100.9" x2="708.2" y2="-298.67"></line><line class="cls-5" x1="15.87" y1="105.16" x2="708.2" y2="-294.4"></line><line class="cls-5" x1="15.87" y1="109.43" x2="708.2" y2="-290.14"></line><line class="cls-5" x1="15.87" y1="113.69" x2="708.2" y2="-285.88"></line><line class="cls-5" x1="15.87" y1="117.95" x2="708.2" y2="-281.61"></line><line class="cls-5" x1="15.87" y1="122.22" x2="708.2" y2="-277.35"></line><line class="cls-5" x1="15.87" y1="126.48" x2="708.2" y2="-273.08"></line></g><g class="cls-9"><line class="cls-5" x1="-16.98" y1="117.27" x2="1333.75" y2="-662.27"></line><line class="cls-5" x1="-16.98" y1="125.59" x2="1333.75" y2="-653.96"></line><line class="cls-5" x1="-16.98" y1="133.91" x2="1333.75" y2="-645.64"></line><line class="cls-5" x1="-16.98" y1="142.23" x2="1333.75" y2="-637.32"></line><line class="cls-5" x1="-16.98" y1="150.55" x2="1333.75" y2="-629"></line><line class="cls-5" x1="-16.98" y1="158.86" x2="1333.75" y2="-620.68"></line><line class="cls-5" x1="-16.98" y1="167.18" x2="1333.75" y2="-612.36"></line><line class="cls-5" x1="-16.98" y1="175.5" x2="1333.75" y2="-604.05"></line><line class="cls-5" x1="-16.98" y1="183.82" x2="1333.75" y2="-595.73"></line><line class="cls-5" x1="-16.98" y1="192.14" x2="1333.75" y2="-587.41"></line><line class="cls-5" x1="-16.98" y1="200.46" x2="1333.75" y2="-579.09"></line><line class="cls-5" x1="-16.98" y1="208.77" x2="1333.75" y2="-570.77"></line><line class="cls-5" x1="-16.98" y1="217.09" x2="1333.75" y2="-562.45"></line><line class="cls-5" x1="-16.98" y1="225.41" x2="1333.75" y2="-554.13"></line><line class="cls-5" x1="-16.98" y1="233.73" x2="1333.75" y2="-545.82"></line><line class="cls-5" x1="-16.98" y1="242.05" x2="1333.75" y2="-537.5"></line><line class="cls-5" x1="-16.98" y1="250.37" x2="1333.75" y2="-529.18"></line><line class="cls-5" x1="-16.98" y1="258.68" x2="1333.75" y2="-520.86"></line><line class="cls-5" x1="-16.98" y1="267" x2="1333.75" y2="-512.54"></line><line class="cls-5" x1="-16.98" y1="275.32" x2="1333.75" y2="-504.22"></line><line class="cls-5" x1="-16.98" y1="283.64" x2="1333.75" y2="-495.91"></line><line class="cls-5" x1="-16.98" y1="291.96" x2="1333.75" y2="-487.59"></line><line class="cls-5" x1="-16.98" y1="300.28" x2="1333.75" y2="-479.27"></line><line class="cls-5" x1="-16.98" y1="308.6" x2="1333.75" y2="-470.95"></line><line class="cls-5" x1="-16.98" y1="316.91" x2="1333.75" y2="-462.63"></line><line class="cls-5" x1="-16.98" y1="325.23" x2="1333.75" y2="-454.31"></line><line class="cls-5" x1="-16.98" y1="333.55" x2="1333.75" y2="-446"></line><line class="cls-5" x1="-16.98" y1="341.87" x2="1333.75" y2="-437.68"></line><line class="cls-5" x1="-16.98" y1="350.19" x2="1333.75" y2="-429.36"></line><line class="cls-5" x1="-16.98" y1="358.51" x2="1333.75" y2="-421.04"></line><line class="cls-5" x1="-16.98" y1="366.82" x2="1333.75" y2="-412.72"></line><line class="cls-5" x1="-16.98" y1="375.14" x2="1333.75" y2="-404.4"></line><line class="cls-5" x1="-16.98" y1="383.46" x2="1333.75" y2="-396.09"></line><line class="cls-5" x1="-16.98" y1="391.78" x2="1333.75" y2="-387.77"></line><line class="cls-5" x1="-16.98" y1="400.1" x2="1333.75" y2="-379.45"></line><line class="cls-5" x1="-16.98" y1="408.42" x2="1333.75" y2="-371.13"></line><line class="cls-5" x1="-16.98" y1="416.73" x2="1333.75" y2="-362.81"></line><line class="cls-5" x1="-16.98" y1="425.05" x2="1333.75" y2="-354.49"></line><line class="cls-5" x1="-16.98" y1="433.37" x2="1333.75" y2="-346.18"></line><line class="cls-5" x1="-16.98" y1="441.69" x2="1333.75" y2="-337.86"></line><line class="cls-5" x1="-16.98" y1="450.01" x2="1333.75" y2="-329.54"></line><line class="cls-5" x1="-16.98" y1="458.33" x2="1333.75" y2="-321.22"></line><line class="cls-5" x1="-16.98" y1="466.64" x2="1333.75" y2="-312.9"></line><line class="cls-5" x1="-16.98" y1="474.96" x2="1333.75" y2="-304.58"></line><line class="cls-5" x1="-16.98" y1="483.28" x2="1333.75" y2="-296.26"></line><line class="cls-5" x1="-16.98" y1="491.6" x2="1333.75" y2="-287.95"></line><line class="cls-5" x1="-16.98" y1="499.92" x2="1333.75" y2="-279.63"></line><line class="cls-5" x1="-16.98" y1="508.24" x2="1333.75" y2="-271.31"></line><line class="cls-5" x1="-16.98" y1="516.55" x2="1333.75" y2="-262.99"></line><line class="cls-5" x1="-16.98" y1="524.87" x2="1333.75" y2="-254.67"></line><line class="cls-5" x1="-16.98" y1="533.19" x2="1333.75" y2="-246.35"></line><line class="cls-5" x1="-16.98" y1="541.51" x2="1333.75" y2="-238.04"></line><line class="cls-5" x1="-16.98" y1="549.83" x2="1333.75" y2="-229.72"></line><line class="cls-5" x1="-16.98" y1="558.15" x2="1333.75" y2="-221.4"></line><line class="cls-5" x1="-16.98" y1="566.47" x2="1333.75" y2="-213.08"></line><line class="cls-5" x1="-16.98" y1="574.78" x2="1333.75" y2="-204.76"></line><line class="cls-5" x1="-16.98" y1="583.1" x2="1333.75" y2="-196.44"></line><line class="cls-5" x1="-16.98" y1="591.42" x2="1333.75" y2="-188.13"></line><line class="cls-5" x1="-16.98" y1="599.74" x2="1333.75" y2="-179.81"></line><line class="cls-5" x1="-16.98" y1="608.06" x2="1333.75" y2="-171.49"></line><line class="cls-5" x1="-16.98" y1="616.38" x2="1333.75" y2="-163.17"></line><line class="cls-5" x1="-16.98" y1="633.01" x2="1333.75" y2="-146.53"></line><line class="cls-5" x1="-16.98" y1="649.65" x2="1333.75" y2="-129.9"></line><line class="cls-5" x1="-16.98" y1="666.29" x2="1333.75" y2="-113.26"></line><line class="cls-5" x1="-16.98" y1="682.92" x2="1333.75" y2="-96.62"></line><line class="cls-5" x1="-16.98" y1="699.56" x2="1333.75" y2="-79.99"></line><line class="cls-5" x1="-16.98" y1="624.69" x2="1333.75" y2="-154.85"></line><line class="cls-5" x1="-16.98" y1="641.33" x2="1333.75" y2="-138.22"></line><line class="cls-5" x1="-16.98" y1="657.97" x2="1333.75" y2="-121.58"></line><line class="cls-5" x1="-16.98" y1="674.6" x2="1333.75" y2="-104.94"></line><line class="cls-5" x1="-16.98" y1="691.24" x2="1333.75" y2="-88.31"></line><line class="cls-5" x1="-16.98" y1="707.88" x2="1333.75" y2="-71.67"></line><line class="cls-5" x1="-16.98" y1="716.2" x2="1333.75" y2="-63.35"></line><line class="cls-5" x1="-16.98" y1="724.51" x2="1333.75" y2="-55.03"></line><line class="cls-5" x1="-16.98" y1="732.83" x2="1333.75" y2="-46.71"></line><line class="cls-5" x1="-16.98" y1="741.15" x2="1333.75" y2="-38.39"></line><line class="cls-5" x1="-16.98" y1="749.47" x2="1333.75" y2="-30.08"></line><line class="cls-5" x1="-16.98" y1="757.79" x2="1333.75" y2="-21.76"></line><line class="cls-5" x1="-16.98" y1="766.11" x2="1333.75" y2="-13.44"></line><line class="cls-5" x1="-16.98" y1="774.42" x2="1333.75" y2="-5.12"></line><line class="cls-5" x1="-16.98" y1="782.74" x2="1333.75" y2="3.2"></line><line class="cls-5" x1="-16.98" y1="799.38" x2="1333.75" y2="19.83"></line><line class="cls-5" x1="-16.98" y1="816.02" x2="1333.75" y2="36.47"></line><line class="cls-5" x1="-16.98" y1="832.65" x2="1333.75" y2="53.11"></line><line class="cls-5" x1="-16.98" y1="849.29" x2="1333.75" y2="69.74"></line><line class="cls-5" x1="-16.98" y1="791.06" x2="1333.75" y2="11.52"></line><line class="cls-5" x1="-16.98" y1="807.7" x2="1333.75" y2="28.15"></line><line class="cls-5" x1="-16.98" y1="824.34" x2="1333.75" y2="44.79"></line><line class="cls-5" x1="-16.98" y1="840.97" x2="1333.75" y2="61.43"></line></g><path class="cls-10" d="M32.36,8.48a1.93,1.93,0,0,1-3.85,0,1.93,1.93,0,0,1,3.85,0"></path><path class="cls-10" d="M30.43,20.57h0c.9,0,.8.7.8.7v10H32.9V13.45h.84v6.74s0,.57.77.57a.69.69,0,0,0,.77-.57V13.51A2.37,2.37,0,0,0,32.75,11H28.44a2.36,2.36,0,0,0-2.52,2.56v6.68h1V13.45h1V31.24h1.69v-10s-.1-.7.8-.7h0"></path><path class="cls-10" d="M43.49,8.48a1.93,1.93,0,0,1-3.85,0,1.93,1.93,0,0,1,3.85,0"></path><path class="cls-10" d="M41.56,20.57h0c.91,0,.81.7.81.7v10H44V13.45h.85v6.74s0,.57.76.57a.69.69,0,0,0,.77-.57V13.51A2.36,2.36,0,0,0,43.88,11H39.56A2.36,2.36,0,0,0,37,13.51v6.68h1V13.45h1V31.24h1.68v-10s-.09-.7.81-.7h0"></path><path class="cls-10" d="M19.18,23.71a1.93,1.93,0,1,1-1.92-1.79,1.86,1.86,0,0,1,1.92,1.79"></path><path class="cls-10" d="M17.25,35.81h0c.9,0,.8.7.8.7v10h1.68V28.68h.85v6.75s0,.57.77.57a.68.68,0,0,0,.76-.57V28.75a2.37,2.37,0,0,0-2.52-2.57H15.26a2.37,2.37,0,0,0-2.52,2.57v6.68h1V28.68h1v17.8h1.68v-10s-.09-.7.81-.7h0"></path><path class="cls-10" d="M30.31,23.71a1.93,1.93,0,1,1-1.93-1.79,1.86,1.86,0,0,1,1.93,1.79"></path><path class="cls-10" d="M28.38,35.81h0c.9,0,.81.7.81.7v10h1.68V28.68h.85v6.75s0,.57.76.57a.69.69,0,0,0,.77-.57V28.75a2.37,2.37,0,0,0-2.52-2.57H26.38a2.37,2.37,0,0,0-2.52,2.57v6.68h1V28.68h1v17.8h1.68v-10s-.09-.7.81-.7h0"></path><path class="cls-10" d="M41.43,23.71a1.93,1.93,0,1,1-1.92-1.79,1.86,1.86,0,0,1,1.92,1.79"></path><path class="cls-10" d="M39.5,35.81h0c.9,0,.81.7.81.7v10H42V28.68h.84v6.75s0,.57.77.57a.69.69,0,0,0,.77-.57V28.75a2.37,2.37,0,0,0-2.53-2.57H37.51A2.37,2.37,0,0,0,35,28.75v6.68h1V28.68h1v17.8H38.7v-10s-.1-.7.8-.7h0"></path><path class="cls-10" d="M52.56,23.71a1.93,1.93,0,1,1-1.92-1.79,1.86,1.86,0,0,1,1.92,1.79"></path><path class="cls-10" d="M50.63,35.81h0c.91,0,.81.7.81.7v10h1.68V28.68h.85v6.75s0,.57.76.57a.69.69,0,0,0,.77-.57V28.75A2.37,2.37,0,0,0,53,26.18H48.64a2.37,2.37,0,0,0-2.53,2.57v6.68h1V28.68h1v17.8h1.68v-10s-.09-.7.81-.7h0"></path><path class="cls-10" d="M14.38,38.57a1.86,1.86,0,0,1-1.92,1.79,1.8,1.8,0,1,1,0-3.58,1.86,1.86,0,0,1,1.92,1.79"></path><path class="cls-10" d="M12.45,50.67h0c.91,0,.81.69.81.69v10h1.68V43.54h.85v6.74s0,.58.76.58a.68.68,0,0,0,.77-.57V43.61A2.37,2.37,0,0,0,14.77,41H10.46a2.37,2.37,0,0,0-2.52,2.57v6.68H9V43.54h1v17.8h1.68v-10s-.09-.69.81-.69h0"></path><path class="cls-10" d="M25.51,38.57a1.93,1.93,0,1,1-1.93-1.79,1.86,1.86,0,0,1,1.93,1.79"></path><path class="cls-10" d="M23.58,50.67h0c.9,0,.81.69.81.69v10H26V43.54h.84v6.74s0,.58.77.58a.69.69,0,0,0,.77-.57V43.61A2.37,2.37,0,0,0,25.9,41H21.58a2.37,2.37,0,0,0-2.52,2.57v6.68h1V43.54h1v17.8h1.68v-10s-.1-.69.81-.69h0"></path><path class="cls-10" d="M36.63,38.57a1.93,1.93,0,1,1-1.92-1.79,1.86,1.86,0,0,1,1.92,1.79"></path><path class="cls-10" d="M34.7,50.67h0c.91,0,.81.69.81.69v10h1.68V43.54H38v6.74s0,.58.77.58a.68.68,0,0,0,.76-.57V43.61A2.37,2.37,0,0,0,37,41H32.71a2.37,2.37,0,0,0-2.52,2.57v6.68h1V43.54h1v17.8h1.68v-10s-.09-.69.81-.69h0"></path><path class="cls-10" d="M47.76,38.57a1.93,1.93,0,1,1-1.93-1.79,1.86,1.86,0,0,1,1.93,1.79"></path><path class="cls-10" d="M45.83,50.67h0c.9,0,.81.69.81.69v10h1.68V43.54h.85v6.74s0,.58.76.58a.69.69,0,0,0,.77-.57V43.61A2.37,2.37,0,0,0,48.15,41H43.83a2.37,2.37,0,0,0-2.52,2.57v6.68h1V43.54h1v17.8H45v-10s-.1-.69.81-.69h0"></path><path class="cls-10" d="M58.88,38.57A1.93,1.93,0,1,1,57,36.78a1.86,1.86,0,0,1,1.92,1.79"></path><path class="cls-10" d="M57,50.67h0c.9,0,.8.69.8.69v10h1.69V43.54h.84v6.74s0,.58.77.58a.68.68,0,0,0,.76-.57V43.61A2.37,2.37,0,0,0,59.27,41H55a2.37,2.37,0,0,0-2.52,2.57v6.68h1V43.54h1v17.8h1.69v-10s-.1-.69.8-.69h0"></path></svg> 