<?xml version="1.0" encoding="UTF-8"?> <svg xmlns="http://www.w3.org/2000/svg" xmlns:xlink="http://www.w3.org/1999/xlink" id="Calque_1" data-name="Calque 1" viewBox="0 0 70.87 70.87"><defs><style>.cls-1{fill:#f1f2f2;}.cls-2{fill:#fff;}.cls-3,.cls-5{fill:none;}.cls-4{clip-path:url(#clip-path);}.cls-5{stroke:#002c39;stroke-miterlimit:10;stroke-width:0.5px;}.cls-6{clip-path:url(#clip-path-2);}.cls-7{clip-path:url(#clip-path-3);}.cls-8{clip-path:url(#clip-path-4);}.cls-9{clip-path:url(#clip-path-5);}.cls-10{clip-path:url(#clip-path-6);}.cls-11{clip-path:url(#clip-path-7);}.cls-12{clip-path:url(#clip-path-8);}.cls-13{clip-path:url(#clip-path-9);}.cls-14{fill:#002c39;}</style><clipPath id="clip-path"><polygon class="cls-1" points="-442.04 -451.12 -442.04 -386.06 -385.67 -418.05 -329.36 -386.06 -329.36 -451.12 -385.7 -483.65 -442.04 -451.12"></polygon></clipPath><clipPath id="clip-path-2"><polygon class="cls-2" points="-14.1 -408.39 33.77 -380.75 33.77 -325.48 81.64 -353.12 81.64 -408.39 33.77 -436.03 -14.1 -408.39"></polygon></clipPath><clipPath id="clip-path-3"><polygon class="cls-2" points="226.22 -435.49 178.76 -408.09 178.76 -353.28 226.95 -380.82 273.68 -353.28 273.68 -408.09 226.22 -435.49"></polygon></clipPath><clipPath id="clip-path-4"><polygon class="cls-2" points="370.74 -407.94 323.28 -380.54 323.28 -325.74 370.74 -325.48 418.2 -325.74 418.2 -380.54 370.74 -407.94"></polygon></clipPath><clipPath id="clip-path-5"><polygon class="cls-3" points="826.12 408.23 733.52 354.77 640.92 408.23 640.92 515.15 731.26 463.53 826.12 515.15 826.12 408.23"></polygon></clipPath><clipPath id="clip-path-6"><polygon class="cls-3" points="640.92 194.39 733.52 245.95 733.52 354.55 826.12 301.09 826.12 194.17 733.52 140.71 640.92 194.17 640.92 87.47 548.33 34.01 455.73 87.47 548.33 140.82 548.33 247.85 640.92 194.39"></polygon></clipPath><clipPath id="clip-path-7"><polygon class="cls-3" points="733.52 -72.42 640.92 -18.96 640.92 87.96 734.95 34.24 826.12 87.96 826.12 -18.96 733.52 -72.42"></polygon></clipPath><clipPath id="clip-path-8"><polygon class="cls-3" points="1102.95 -179.61 1010.36 -126.15 1010.36 -19.23 1104.38 -72.96 1195.55 -19.23 1195.55 -126.15 1102.95 -179.61"></polygon></clipPath><clipPath id="clip-path-9"><polygon class="cls-2" points="561.64 -305.97 514.18 -333.37 514.18 -388.18 561.64 -415.14 609.1 -388.52 609.1 -333.37 561.64 -305.97"></polygon></clipPath></defs><polygon class="cls-1" points="-442.04 -451.12 -442.04 -386.06 -385.67 -418.05 -329.36 -386.06 -329.36 -451.12 -385.7 -483.65 -442.04 -451.12"></polygon><g class="cls-4"><line class="cls-5" x1="-796.29" y1="8.53" x2="25.58" y2="-465.8"></line><line class="cls-5" x1="-796.29" y1="18.65" x2="25.58" y2="-455.68"></line><line class="cls-5" x1="-796.29" y1="3.47" x2="25.58" y2="-470.86"></line><line class="cls-5" x1="-796.29" y1="13.59" x2="25.58" y2="-460.74"></line><line class="cls-5" x1="-796.29" y1="23.71" x2="25.58" y2="-450.61"></line><line class="cls-5" x1="-796.29" y1="28.77" x2="25.58" y2="-445.55"></line><line class="cls-5" x1="-796.29" y1="33.84" x2="25.58" y2="-440.49"></line><line class="cls-5" x1="-796.29" y1="38.9" x2="25.58" y2="-435.43"></line><line class="cls-5" x1="-796.29" y1="43.96" x2="25.58" y2="-430.37"></line><line class="cls-5" x1="-796.29" y1="49.02" x2="25.58" y2="-425.31"></line><line class="cls-5" x1="-796.29" y1="54.08" x2="25.58" y2="-420.25"></line><line class="cls-5" x1="-796.29" y1="59.14" x2="25.58" y2="-415.18"></line><line class="cls-5" x1="-796.29" y1="64.2" x2="25.58" y2="-410.12"></line><line class="cls-5" x1="-796.29" y1="69.27" x2="25.58" y2="-405.06"></line><line class="cls-5" x1="-796.29" y1="74.33" x2="25.58" y2="-400"></line><line class="cls-5" x1="-796.29" y1="79.39" x2="25.58" y2="-394.94"></line><line class="cls-5" x1="-796.29" y1="84.45" x2="25.58" y2="-389.88"></line><line class="cls-5" x1="-796.29" y1="89.51" x2="25.58" y2="-384.82"></line><line class="cls-5" x1="-796.29" y1="94.57" x2="25.58" y2="-379.75"></line></g><polygon class="cls-2" points="-14.1 -408.39 33.77 -380.75 33.77 -325.48 81.64 -353.12 81.64 -408.39 33.77 -436.03 -14.1 -408.39"></polygon><g class="cls-6"><line class="cls-5" x1="-315.14" y1="3.25" x2="383.16" y2="-399.76"></line><line class="cls-5" x1="-315.14" y1="7.55" x2="383.16" y2="-395.46"></line><line class="cls-5" x1="-315.14" y1="11.85" x2="383.16" y2="-391.16"></line><line class="cls-5" x1="-315.14" y1="16.15" x2="383.16" y2="-386.86"></line><line class="cls-5" x1="-315.14" y1="20.45" x2="383.16" y2="-382.56"></line><line class="cls-5" x1="-315.14" y1="24.75" x2="383.16" y2="-378.26"></line><line class="cls-5" x1="-315.14" y1="29.05" x2="383.16" y2="-373.96"></line><line class="cls-5" x1="-315.14" y1="33.35" x2="383.16" y2="-369.66"></line><line class="cls-5" x1="-315.14" y1="37.65" x2="383.16" y2="-365.36"></line><line class="cls-5" x1="-315.14" y1="41.95" x2="383.16" y2="-361.06"></line><line class="cls-5" x1="-315.14" y1="46.25" x2="383.16" y2="-356.75"></line><line class="cls-5" x1="-315.14" y1="50.56" x2="383.16" y2="-352.45"></line><line class="cls-5" x1="-315.14" y1="54.86" x2="383.16" y2="-348.15"></line></g><polygon class="cls-2" points="226.22 -435.49 178.76 -408.09 178.76 -353.28 226.95 -380.82 273.68 -353.28 273.68 -408.09 226.22 -435.49"></polygon><g class="cls-7"><line class="cls-5" x1="-341.77" y1="2.83" x2="350.56" y2="-396.73"></line><line class="cls-5" x1="-341.77" y1="11.36" x2="350.56" y2="-388.2"></line><line class="cls-5" x1="-341.77" y1="19.89" x2="350.56" y2="-379.68"></line><line class="cls-5" x1="-341.77" y1="28.42" x2="350.56" y2="-371.15"></line><line class="cls-5" x1="-341.77" y1="36.94" x2="350.56" y2="-362.62"></line><line class="cls-5" x1="-341.77" y1="45.47" x2="350.56" y2="-354.09"></line><line class="cls-5" x1="-341.77" y1="54" x2="350.56" y2="-345.57"></line><line class="cls-5" x1="-341.77" y1="62.52" x2="350.56" y2="-337.04"></line><line class="cls-5" x1="-341.77" y1="7.1" x2="350.56" y2="-392.47"></line><line class="cls-5" x1="-341.77" y1="15.62" x2="350.56" y2="-383.94"></line><line class="cls-5" x1="-341.77" y1="24.15" x2="350.56" y2="-375.41"></line><line class="cls-5" x1="-341.77" y1="32.68" x2="350.56" y2="-366.89"></line><line class="cls-5" x1="-341.77" y1="41.21" x2="350.56" y2="-358.36"></line><line class="cls-5" x1="-341.77" y1="49.73" x2="350.56" y2="-349.83"></line><line class="cls-5" x1="-341.77" y1="58.26" x2="350.56" y2="-341.3"></line><line class="cls-5" x1="-341.77" y1="66.79" x2="350.56" y2="-332.78"></line><line class="cls-5" x1="-341.77" y1="71.05" x2="350.56" y2="-328.51"></line><line class="cls-5" x1="-341.77" y1="75.32" x2="350.56" y2="-324.25"></line><line class="cls-5" x1="-341.77" y1="79.58" x2="350.56" y2="-319.98"></line><line class="cls-5" x1="-341.77" y1="83.84" x2="350.56" y2="-315.72"></line><line class="cls-5" x1="-341.77" y1="88.11" x2="350.56" y2="-311.46"></line><line class="cls-5" x1="-341.77" y1="92.37" x2="350.56" y2="-307.19"></line><line class="cls-5" x1="-341.77" y1="96.63" x2="350.56" y2="-302.93"></line><line class="cls-5" x1="-341.77" y1="100.9" x2="350.56" y2="-298.67"></line><line class="cls-5" x1="-341.77" y1="105.16" x2="350.56" y2="-294.4"></line><line class="cls-5" x1="-341.77" y1="109.43" x2="350.56" y2="-290.14"></line><line class="cls-5" x1="-341.77" y1="113.69" x2="350.56" y2="-285.88"></line><line class="cls-5" x1="-341.77" y1="117.95" x2="350.56" y2="-281.61"></line><line class="cls-5" x1="-341.77" y1="122.22" x2="350.56" y2="-277.35"></line><line class="cls-5" x1="-341.77" y1="126.48" x2="350.56" y2="-273.08"></line></g><polygon class="cls-2" points="370.74 -407.94 323.28 -380.54 323.28 -325.74 370.74 -325.48 418.2 -325.74 418.2 -380.54 370.74 -407.94"></polygon><g class="cls-8"><line class="cls-5" x1="-197.25" y1="0.53" x2="495.08" y2="-399.03"></line><line class="cls-5" x1="-197.25" y1="4.8" x2="495.08" y2="-394.77"></line><line class="cls-5" x1="-197.25" y1="9.06" x2="495.08" y2="-390.51"></line><line class="cls-5" x1="-197.25" y1="13.32" x2="495.08" y2="-386.24"></line><line class="cls-5" x1="-197.25" y1="17.59" x2="495.08" y2="-381.98"></line><line class="cls-5" x1="-197.25" y1="21.85" x2="495.08" y2="-377.71"></line><line class="cls-5" x1="-197.25" y1="26.11" x2="495.08" y2="-373.45"></line><line class="cls-5" x1="-197.25" y1="30.38" x2="495.08" y2="-369.19"></line><line class="cls-5" x1="-197.25" y1="38.9" x2="495.08" y2="-360.66"></line><line class="cls-5" x1="-197.25" y1="47.43" x2="495.08" y2="-352.13"></line><line class="cls-5" x1="-197.25" y1="55.96" x2="495.08" y2="-343.61"></line><line class="cls-5" x1="-197.25" y1="64.49" x2="495.08" y2="-335.08"></line><line class="cls-5" x1="-197.25" y1="73.01" x2="495.08" y2="-326.55"></line><line class="cls-5" x1="-197.25" y1="81.54" x2="495.08" y2="-318.02"></line><line class="cls-5" x1="-197.25" y1="90.07" x2="495.08" y2="-309.5"></line><line class="cls-5" x1="-197.25" y1="34.64" x2="495.08" y2="-364.92"></line><line class="cls-5" x1="-197.25" y1="43.17" x2="495.08" y2="-356.4"></line><line class="cls-5" x1="-197.25" y1="51.7" x2="495.08" y2="-347.87"></line><line class="cls-5" x1="-197.25" y1="60.22" x2="495.08" y2="-339.34"></line><line class="cls-5" x1="-197.25" y1="68.75" x2="495.08" y2="-330.81"></line><line class="cls-5" x1="-197.25" y1="77.28" x2="495.08" y2="-322.29"></line><line class="cls-5" x1="-197.25" y1="85.81" x2="495.08" y2="-313.76"></line><line class="cls-5" x1="-197.25" y1="94.33" x2="495.08" y2="-305.23"></line><line class="cls-5" x1="-197.25" y1="98.6" x2="495.08" y2="-300.97"></line><line class="cls-5" x1="-197.25" y1="102.86" x2="495.08" y2="-296.7"></line><line class="cls-5" x1="-197.25" y1="107.12" x2="495.08" y2="-292.44"></line><line class="cls-5" x1="-197.25" y1="111.39" x2="495.08" y2="-288.18"></line><line class="cls-5" x1="-197.25" y1="115.65" x2="495.08" y2="-283.91"></line><line class="cls-5" x1="-197.25" y1="119.91" x2="495.08" y2="-279.65"></line><line class="cls-5" x1="-197.25" y1="124.18" x2="495.08" y2="-275.39"></line><line class="cls-5" x1="-197.25" y1="128.44" x2="495.08" y2="-271.12"></line><line class="cls-5" x1="-197.25" y1="132.71" x2="495.08" y2="-266.86"></line><line class="cls-5" x1="-197.25" y1="136.97" x2="495.08" y2="-262.6"></line><line class="cls-5" x1="-197.25" y1="141.23" x2="495.08" y2="-258.33"></line><line class="cls-5" x1="-197.25" y1="145.5" x2="495.08" y2="-254.07"></line><line class="cls-5" x1="-197.25" y1="149.76" x2="495.08" y2="-249.8"></line><line class="cls-5" x1="-197.25" y1="154.02" x2="495.08" y2="-245.54"></line></g><g class="cls-9"><line class="cls-5" x1="-4.14" y1="330.62" x2="1346.59" y2="-448.92"></line><line class="cls-5" x1="-4.14" y1="338.94" x2="1346.59" y2="-440.61"></line><line class="cls-5" x1="-4.14" y1="347.26" x2="1346.59" y2="-432.29"></line><line class="cls-5" x1="-4.14" y1="355.58" x2="1346.59" y2="-423.97"></line><line class="cls-5" x1="-4.14" y1="363.9" x2="1346.59" y2="-415.65"></line><line class="cls-5" x1="-4.14" y1="372.21" x2="1346.59" y2="-407.33"></line><line class="cls-5" x1="-4.14" y1="380.53" x2="1346.59" y2="-399.01"></line><line class="cls-5" x1="-4.14" y1="388.85" x2="1346.59" y2="-390.69"></line><line class="cls-5" x1="-4.14" y1="397.17" x2="1346.59" y2="-382.38"></line><line class="cls-5" x1="-4.14" y1="405.49" x2="1346.59" y2="-374.06"></line><line class="cls-5" x1="-4.14" y1="413.81" x2="1346.59" y2="-365.74"></line><line class="cls-5" x1="-4.14" y1="422.12" x2="1346.59" y2="-357.42"></line><line class="cls-5" x1="-4.14" y1="430.44" x2="1346.59" y2="-349.1"></line><line class="cls-5" x1="-4.14" y1="438.76" x2="1346.59" y2="-340.78"></line><line class="cls-5" x1="-4.14" y1="447.08" x2="1346.59" y2="-332.47"></line><line class="cls-5" x1="-4.14" y1="455.4" x2="1346.59" y2="-324.15"></line><line class="cls-5" x1="-4.14" y1="463.72" x2="1346.59" y2="-315.83"></line><line class="cls-5" x1="-4.14" y1="472.04" x2="1346.59" y2="-307.51"></line><line class="cls-5" x1="-4.14" y1="480.35" x2="1346.59" y2="-299.19"></line><line class="cls-5" x1="-4.14" y1="488.67" x2="1346.59" y2="-290.87"></line><line class="cls-5" x1="-4.14" y1="496.99" x2="1346.59" y2="-282.56"></line><line class="cls-5" x1="-4.14" y1="505.31" x2="1346.59" y2="-274.24"></line><line class="cls-5" x1="-4.14" y1="513.63" x2="1346.59" y2="-265.92"></line><line class="cls-5" x1="-4.14" y1="521.95" x2="1346.59" y2="-257.6"></line><line class="cls-5" x1="-4.14" y1="530.26" x2="1346.59" y2="-249.28"></line><line class="cls-5" x1="-4.14" y1="538.58" x2="1346.59" y2="-240.96"></line><line class="cls-5" x1="-4.14" y1="546.9" x2="1346.59" y2="-232.65"></line><line class="cls-5" x1="-4.14" y1="555.22" x2="1346.59" y2="-224.33"></line><line class="cls-5" x1="-4.14" y1="563.54" x2="1346.59" y2="-216.01"></line><line class="cls-5" x1="-4.14" y1="571.86" x2="1346.59" y2="-207.69"></line><line class="cls-5" x1="-4.14" y1="580.17" x2="1346.59" y2="-199.37"></line><line class="cls-5" x1="-4.14" y1="588.49" x2="1346.59" y2="-191.05"></line><line class="cls-5" x1="-4.14" y1="596.81" x2="1346.59" y2="-182.74"></line><line class="cls-5" x1="-4.14" y1="605.13" x2="1346.59" y2="-174.42"></line><line class="cls-5" x1="-4.14" y1="613.45" x2="1346.59" y2="-166.1"></line><line class="cls-5" x1="-4.14" y1="621.77" x2="1346.59" y2="-157.78"></line><line class="cls-5" x1="-4.14" y1="630.08" x2="1346.59" y2="-149.46"></line><line class="cls-5" x1="-4.14" y1="638.4" x2="1346.59" y2="-141.14"></line><line class="cls-5" x1="-4.14" y1="646.72" x2="1346.59" y2="-132.82"></line><line class="cls-5" x1="-4.14" y1="655.04" x2="1346.59" y2="-124.51"></line><line class="cls-5" x1="-4.14" y1="663.36" x2="1346.59" y2="-116.19"></line><line class="cls-5" x1="-4.14" y1="671.68" x2="1346.59" y2="-107.87"></line><line class="cls-5" x1="-4.14" y1="679.99" x2="1346.59" y2="-99.55"></line><line class="cls-5" x1="-4.14" y1="688.31" x2="1346.59" y2="-91.23"></line><line class="cls-5" x1="-4.14" y1="696.63" x2="1346.59" y2="-82.91"></line><line class="cls-5" x1="-4.14" y1="704.95" x2="1346.59" y2="-74.6"></line><line class="cls-5" x1="-4.14" y1="713.27" x2="1346.59" y2="-66.28"></line><line class="cls-5" x1="-4.14" y1="721.59" x2="1346.59" y2="-57.96"></line><line class="cls-5" x1="-4.14" y1="729.91" x2="1346.59" y2="-49.64"></line><line class="cls-5" x1="-4.14" y1="738.22" x2="1346.59" y2="-41.32"></line><line class="cls-5" x1="-4.14" y1="746.54" x2="1346.59" y2="-33"></line><line class="cls-5" x1="-4.14" y1="754.86" x2="1346.59" y2="-24.69"></line><line class="cls-5" x1="-4.14" y1="763.18" x2="1346.59" y2="-16.37"></line><line class="cls-5" x1="-4.14" y1="771.5" x2="1346.59" y2="-8.05"></line><line class="cls-5" x1="-4.14" y1="779.82" x2="1346.59" y2="0.27"></line><line class="cls-5" x1="-4.14" y1="788.13" x2="1346.59" y2="8.59"></line><line class="cls-5" x1="-4.14" y1="796.45" x2="1346.59" y2="16.91"></line><line class="cls-5" x1="-4.14" y1="804.77" x2="1346.59" y2="25.22"></line><line class="cls-5" x1="-4.14" y1="813.09" x2="1346.59" y2="33.54"></line><line class="cls-5" x1="-4.14" y1="821.41" x2="1346.59" y2="41.86"></line><line class="cls-5" x1="-4.14" y1="829.73" x2="1346.59" y2="50.18"></line><line class="cls-5" x1="-4.14" y1="846.36" x2="1346.59" y2="66.82"></line><line class="cls-5" x1="-4.14" y1="838.04" x2="1346.59" y2="58.5"></line></g><g class="cls-10"><line class="cls-5" x1="-4.14" y1="330.62" x2="1346.59" y2="-448.92"></line><line class="cls-5" x1="-4.14" y1="338.94" x2="1346.59" y2="-440.61"></line><line class="cls-5" x1="-4.14" y1="347.26" x2="1346.59" y2="-432.29"></line><line class="cls-5" x1="-4.14" y1="355.58" x2="1346.59" y2="-423.97"></line><line class="cls-5" x1="-4.14" y1="363.9" x2="1346.59" y2="-415.65"></line><line class="cls-5" x1="-4.14" y1="372.21" x2="1346.59" y2="-407.33"></line><line class="cls-5" x1="-4.14" y1="380.53" x2="1346.59" y2="-399.01"></line><line class="cls-5" x1="-4.14" y1="388.85" x2="1346.59" y2="-390.69"></line><line class="cls-5" x1="-4.14" y1="397.17" x2="1346.59" y2="-382.38"></line><line class="cls-5" x1="-4.14" y1="405.49" x2="1346.59" y2="-374.06"></line><line class="cls-5" x1="-4.14" y1="413.81" x2="1346.59" y2="-365.74"></line><line class="cls-5" x1="-4.14" y1="422.12" x2="1346.59" y2="-357.42"></line><line class="cls-5" x1="-4.14" y1="430.44" x2="1346.59" y2="-349.1"></line><line class="cls-5" x1="-4.14" y1="438.76" x2="1346.59" y2="-340.78"></line><line class="cls-5" x1="-4.14" y1="447.08" x2="1346.59" y2="-332.47"></line><line class="cls-5" x1="-4.14" y1="455.4" x2="1346.59" y2="-324.15"></line><line class="cls-5" x1="-4.14" y1="463.72" x2="1346.59" y2="-315.83"></line><line class="cls-5" x1="-4.14" y1="472.04" x2="1346.59" y2="-307.51"></line><line class="cls-5" x1="-4.14" y1="480.35" x2="1346.59" y2="-299.19"></line><line class="cls-5" x1="-4.14" y1="488.67" x2="1346.59" y2="-290.87"></line><line class="cls-5" x1="-4.14" y1="496.99" x2="1346.59" y2="-282.56"></line><line class="cls-5" x1="-4.14" y1="505.31" x2="1346.59" y2="-274.24"></line><line class="cls-5" x1="-4.14" y1="513.63" x2="1346.59" y2="-265.92"></line><line class="cls-5" x1="-4.14" y1="521.95" x2="1346.59" y2="-257.6"></line><line class="cls-5" x1="-4.14" y1="530.26" x2="1346.59" y2="-249.28"></line><line class="cls-5" x1="-4.14" y1="538.58" x2="1346.59" y2="-240.96"></line><line class="cls-5" x1="-4.14" y1="546.9" x2="1346.59" y2="-232.65"></line><line class="cls-5" x1="-4.14" y1="555.22" x2="1346.59" y2="-224.33"></line><line class="cls-5" x1="-4.14" y1="563.54" x2="1346.59" y2="-216.01"></line><line class="cls-5" x1="-4.14" y1="571.86" x2="1346.59" y2="-207.69"></line><line class="cls-5" x1="-4.14" y1="580.17" x2="1346.59" y2="-199.37"></line><line class="cls-5" x1="-4.14" y1="588.49" x2="1346.59" y2="-191.05"></line><line class="cls-5" x1="-4.14" y1="596.81" x2="1346.59" y2="-182.74"></line><line class="cls-5" x1="-4.14" y1="605.13" x2="1346.59" y2="-174.42"></line><line class="cls-5" x1="-4.14" y1="613.45" x2="1346.59" y2="-166.1"></line><line class="cls-5" x1="-4.14" y1="621.77" x2="1346.59" y2="-157.78"></line><line class="cls-5" x1="-4.14" y1="630.08" x2="1346.59" y2="-149.46"></line><line class="cls-5" x1="-4.14" y1="638.4" x2="1346.59" y2="-141.14"></line><line class="cls-5" x1="-4.14" y1="646.72" x2="1346.59" y2="-132.82"></line><line class="cls-5" x1="-4.14" y1="655.04" x2="1346.59" y2="-124.51"></line><line class="cls-5" x1="-4.14" y1="663.36" x2="1346.59" y2="-116.19"></line><line class="cls-5" x1="-4.14" y1="671.68" x2="1346.59" y2="-107.87"></line><line class="cls-5" x1="-4.14" y1="679.99" x2="1346.59" y2="-99.55"></line><line class="cls-5" x1="-4.14" y1="688.31" x2="1346.59" y2="-91.23"></line><line class="cls-5" x1="-4.14" y1="696.63" x2="1346.59" y2="-82.91"></line><line class="cls-5" x1="-4.14" y1="704.95" x2="1346.59" y2="-74.6"></line><line class="cls-5" x1="-4.14" y1="713.27" x2="1346.59" y2="-66.28"></line><line class="cls-5" x1="-4.14" y1="721.59" x2="1346.59" y2="-57.96"></line><line class="cls-5" x1="-4.14" y1="729.91" x2="1346.59" y2="-49.64"></line><line class="cls-5" x1="-4.14" y1="738.22" x2="1346.59" y2="-41.32"></line><line class="cls-5" x1="-4.14" y1="746.54" x2="1346.59" y2="-33"></line><line class="cls-5" x1="-4.14" y1="754.86" x2="1346.59" y2="-24.69"></line><line class="cls-5" x1="-4.14" y1="763.18" x2="1346.59" y2="-16.37"></line><line class="cls-5" x1="-4.14" y1="771.5" x2="1346.59" y2="-8.05"></line><line class="cls-5" x1="-4.14" y1="779.82" x2="1346.59" y2="0.27"></line><line class="cls-5" x1="-4.14" y1="788.13" x2="1346.59" y2="8.59"></line><line class="cls-5" x1="-4.14" y1="796.45" x2="1346.59" y2="16.91"></line><line class="cls-5" x1="-4.14" y1="804.77" x2="1346.59" y2="25.22"></line><line class="cls-5" x1="-4.14" y1="813.09" x2="1346.59" y2="33.54"></line><line class="cls-5" x1="-4.14" y1="821.41" x2="1346.59" y2="41.86"></line><line class="cls-5" x1="-4.14" y1="829.73" x2="1346.59" y2="50.18"></line><line class="cls-5" x1="-4.14" y1="846.36" x2="1346.59" y2="66.82"></line><line class="cls-5" x1="-4.14" y1="838.04" x2="1346.59" y2="58.5"></line></g><g class="cls-11"><line class="cls-5" x1="-374.62" y1="117.27" x2="976.11" y2="-662.27"></line><line class="cls-5" x1="-374.62" y1="125.59" x2="976.11" y2="-653.96"></line><line class="cls-5" x1="-374.62" y1="133.91" x2="976.11" y2="-645.64"></line><line class="cls-5" x1="-374.62" y1="142.23" x2="976.11" y2="-637.32"></line><line class="cls-5" x1="-374.62" y1="150.55" x2="976.11" y2="-629"></line><line class="cls-5" x1="-374.62" y1="158.86" x2="976.11" y2="-620.68"></line><line class="cls-5" x1="-374.62" y1="167.18" x2="976.11" y2="-612.36"></line><line class="cls-5" x1="-374.62" y1="175.5" x2="976.11" y2="-604.05"></line><line class="cls-5" x1="-374.62" y1="183.82" x2="976.11" y2="-595.73"></line><line class="cls-5" x1="-374.62" y1="192.14" x2="976.11" y2="-587.41"></line><line class="cls-5" x1="-374.62" y1="200.46" x2="976.11" y2="-579.09"></line><line class="cls-5" x1="-374.62" y1="208.77" x2="976.11" y2="-570.77"></line><line class="cls-5" x1="-374.62" y1="217.09" x2="976.11" y2="-562.45"></line><line class="cls-5" x1="-374.62" y1="225.41" x2="976.11" y2="-554.13"></line><line class="cls-5" x1="-374.62" y1="233.73" x2="976.11" y2="-545.82"></line><line class="cls-5" x1="-374.62" y1="242.05" x2="976.11" y2="-537.5"></line><line class="cls-5" x1="-374.62" y1="250.37" x2="976.11" y2="-529.18"></line><line class="cls-5" x1="-374.62" y1="258.68" x2="976.11" y2="-520.86"></line><line class="cls-5" x1="-374.62" y1="267" x2="976.11" y2="-512.54"></line><line class="cls-5" x1="-374.62" y1="275.32" x2="976.11" y2="-504.22"></line><line class="cls-5" x1="-374.62" y1="283.64" x2="976.11" y2="-495.91"></line><line class="cls-5" x1="-374.62" y1="291.96" x2="976.11" y2="-487.59"></line><line class="cls-5" x1="-374.62" y1="300.28" x2="976.11" y2="-479.27"></line><line class="cls-5" x1="-374.62" y1="308.6" x2="976.11" y2="-470.95"></line><line class="cls-5" x1="-374.62" y1="316.91" x2="976.11" y2="-462.63"></line><line class="cls-5" x1="-374.62" y1="325.23" x2="976.11" y2="-454.31"></line><line class="cls-5" x1="-374.62" y1="333.55" x2="976.11" y2="-446"></line><line class="cls-5" x1="-374.62" y1="341.87" x2="976.11" y2="-437.68"></line><line class="cls-5" x1="-374.62" y1="350.19" x2="976.11" y2="-429.36"></line><line class="cls-5" x1="-374.62" y1="358.51" x2="976.11" y2="-421.04"></line><line class="cls-5" x1="-374.62" y1="366.82" x2="976.11" y2="-412.72"></line><line class="cls-5" x1="-374.62" y1="375.14" x2="976.11" y2="-404.4"></line><line class="cls-5" x1="-374.62" y1="383.46" x2="976.11" y2="-396.09"></line><line class="cls-5" x1="-374.62" y1="391.78" x2="976.11" y2="-387.77"></line><line class="cls-5" x1="-374.62" y1="400.1" x2="976.11" y2="-379.45"></line><line class="cls-5" x1="-374.62" y1="408.42" x2="976.11" y2="-371.13"></line><line class="cls-5" x1="-374.62" y1="416.73" x2="976.11" y2="-362.81"></line><line class="cls-5" x1="-374.62" y1="425.05" x2="976.11" y2="-354.49"></line><line class="cls-5" x1="-374.62" y1="433.37" x2="976.11" y2="-346.18"></line><line class="cls-5" x1="-374.62" y1="441.69" x2="976.11" y2="-337.86"></line><line class="cls-5" x1="-374.62" y1="450.01" x2="976.11" y2="-329.54"></line><line class="cls-5" x1="-374.62" y1="458.33" x2="976.11" y2="-321.22"></line><line class="cls-5" x1="-374.62" y1="466.64" x2="976.11" y2="-312.9"></line><line class="cls-5" x1="-374.62" y1="474.96" x2="976.11" y2="-304.58"></line><line class="cls-5" x1="-374.62" y1="483.28" x2="976.11" y2="-296.26"></line><line class="cls-5" x1="-374.62" y1="491.6" x2="976.11" y2="-287.95"></line><line class="cls-5" x1="-374.62" y1="499.92" x2="976.11" y2="-279.63"></line><line class="cls-5" x1="-374.62" y1="508.24" x2="976.11" y2="-271.31"></line><line class="cls-5" x1="-374.62" y1="516.55" x2="976.11" y2="-262.99"></line><line class="cls-5" x1="-374.62" y1="524.87" x2="976.11" y2="-254.67"></line><line class="cls-5" x1="-374.62" y1="533.19" x2="976.11" y2="-246.35"></line><line class="cls-5" x1="-374.62" y1="541.51" x2="976.11" y2="-238.04"></line><line class="cls-5" x1="-374.62" y1="549.83" x2="976.11" y2="-229.72"></line><line class="cls-5" x1="-374.62" y1="558.15" x2="976.11" y2="-221.4"></line><line class="cls-5" x1="-374.62" y1="566.47" x2="976.11" y2="-213.08"></line><line class="cls-5" x1="-374.62" y1="574.78" x2="976.11" y2="-204.76"></line><line class="cls-5" x1="-374.62" y1="583.1" x2="976.11" y2="-196.44"></line><line class="cls-5" x1="-374.62" y1="591.42" x2="976.11" y2="-188.13"></line><line class="cls-5" x1="-374.62" y1="599.74" x2="976.11" y2="-179.81"></line><line class="cls-5" x1="-374.62" y1="608.06" x2="976.11" y2="-171.49"></line><line class="cls-5" x1="-374.62" y1="616.38" x2="976.11" y2="-163.17"></line><line class="cls-5" x1="-374.62" y1="633.01" x2="976.11" y2="-146.53"></line><line class="cls-5" x1="-374.62" y1="649.65" x2="976.11" y2="-129.9"></line><line class="cls-5" x1="-374.62" y1="666.29" x2="976.11" y2="-113.26"></line><line class="cls-5" x1="-374.62" y1="682.92" x2="976.11" y2="-96.62"></line><line class="cls-5" x1="-374.62" y1="699.56" x2="976.11" y2="-79.99"></line><line class="cls-5" x1="-374.62" y1="624.69" x2="976.11" y2="-154.85"></line><line class="cls-5" x1="-374.62" y1="641.33" x2="976.11" y2="-138.22"></line><line class="cls-5" x1="-374.62" y1="657.97" x2="976.11" y2="-121.58"></line><line class="cls-5" x1="-374.62" y1="674.6" x2="976.11" y2="-104.94"></line><line class="cls-5" x1="-374.62" y1="691.24" x2="976.11" y2="-88.31"></line><line class="cls-5" x1="-374.62" y1="707.88" x2="976.11" y2="-71.67"></line><line class="cls-5" x1="-374.62" y1="716.2" x2="976.11" y2="-63.35"></line><line class="cls-5" x1="-374.62" y1="724.51" x2="976.11" y2="-55.03"></line><line class="cls-5" x1="-374.62" y1="732.83" x2="976.11" y2="-46.71"></line><line class="cls-5" x1="-374.62" y1="741.15" x2="976.11" y2="-38.39"></line><line class="cls-5" x1="-374.62" y1="749.47" x2="976.11" y2="-30.08"></line><line class="cls-5" x1="-374.62" y1="757.79" x2="976.11" y2="-21.76"></line><line class="cls-5" x1="-374.62" y1="766.11" x2="976.11" y2="-13.44"></line><line class="cls-5" x1="-374.62" y1="774.42" x2="976.11" y2="-5.12"></line><line class="cls-5" x1="-374.62" y1="782.74" x2="976.11" y2="3.2"></line><line class="cls-5" x1="-374.62" y1="799.38" x2="976.11" y2="19.83"></line><line class="cls-5" x1="-374.62" y1="816.02" x2="976.11" y2="36.47"></line><line class="cls-5" x1="-374.62" y1="832.65" x2="976.11" y2="53.11"></line><line class="cls-5" x1="-374.62" y1="849.29" x2="976.11" y2="69.74"></line><line class="cls-5" x1="-374.62" y1="791.06" x2="976.11" y2="11.52"></line><line class="cls-5" x1="-374.62" y1="807.7" x2="976.11" y2="28.15"></line><line class="cls-5" x1="-374.62" y1="824.34" x2="976.11" y2="44.79"></line><line class="cls-5" x1="-374.62" y1="840.97" x2="976.11" y2="61.43"></line></g><g class="cls-12"><line class="cls-5" x1="-5.19" y1="10.08" x2="1345.54" y2="-769.47"></line><line class="cls-5" x1="-5.19" y1="18.4" x2="1345.54" y2="-761.15"></line><line class="cls-5" x1="-5.19" y1="26.72" x2="1345.54" y2="-752.83"></line><line class="cls-5" x1="-5.19" y1="35.04" x2="1345.54" y2="-744.51"></line><line class="cls-5" x1="-5.19" y1="43.35" x2="1345.54" y2="-736.19"></line><line class="cls-5" x1="-5.19" y1="51.67" x2="1345.54" y2="-727.87"></line><line class="cls-5" x1="-5.19" y1="59.99" x2="1345.54" y2="-719.56"></line><line class="cls-5" x1="-5.19" y1="68.31" x2="1345.54" y2="-711.24"></line><line class="cls-5" x1="-5.19" y1="76.63" x2="1345.54" y2="-702.92"></line><line class="cls-5" x1="-5.19" y1="84.95" x2="1345.54" y2="-694.6"></line><line class="cls-5" x1="-5.19" y1="93.26" x2="1345.54" y2="-686.28"></line><line class="cls-5" x1="-5.19" y1="101.58" x2="1345.54" y2="-677.96"></line><line class="cls-5" x1="-5.19" y1="109.9" x2="1345.54" y2="-669.65"></line><line class="cls-5" x1="-5.19" y1="118.22" x2="1345.54" y2="-661.33"></line><line class="cls-5" x1="-5.19" y1="126.54" x2="1345.54" y2="-653.01"></line><line class="cls-5" x1="-5.19" y1="134.86" x2="1345.54" y2="-644.69"></line><line class="cls-5" x1="-5.19" y1="143.17" x2="1345.54" y2="-636.37"></line><line class="cls-5" x1="-5.19" y1="151.49" x2="1345.54" y2="-628.05"></line><line class="cls-5" x1="-5.19" y1="159.81" x2="1345.54" y2="-619.74"></line><line class="cls-5" x1="-5.19" y1="168.13" x2="1345.54" y2="-611.42"></line><line class="cls-5" x1="-5.19" y1="176.45" x2="1345.54" y2="-603.1"></line><line class="cls-5" x1="-5.19" y1="184.77" x2="1345.54" y2="-594.78"></line><line class="cls-5" x1="-5.19" y1="193.08" x2="1345.54" y2="-586.46"></line><line class="cls-5" x1="-5.19" y1="201.4" x2="1345.54" y2="-578.14"></line><line class="cls-5" x1="-5.19" y1="209.72" x2="1345.54" y2="-569.83"></line><line class="cls-5" x1="-5.19" y1="218.04" x2="1345.54" y2="-561.51"></line><line class="cls-5" x1="-5.19" y1="226.36" x2="1345.54" y2="-553.19"></line><line class="cls-5" x1="-5.19" y1="234.68" x2="1345.54" y2="-544.87"></line><line class="cls-5" x1="-5.19" y1="242.99" x2="1345.54" y2="-536.55"></line><line class="cls-5" x1="-5.19" y1="251.31" x2="1345.54" y2="-528.23"></line><line class="cls-5" x1="-5.19" y1="259.63" x2="1345.54" y2="-519.91"></line><line class="cls-5" x1="-5.19" y1="267.95" x2="1345.54" y2="-511.6"></line><line class="cls-5" x1="-5.19" y1="276.27" x2="1345.54" y2="-503.28"></line><line class="cls-5" x1="-5.19" y1="284.59" x2="1345.54" y2="-494.96"></line><line class="cls-5" x1="-5.19" y1="292.91" x2="1345.54" y2="-486.64"></line><line class="cls-5" x1="-5.19" y1="301.22" x2="1345.54" y2="-478.32"></line><line class="cls-5" x1="-5.19" y1="309.54" x2="1345.54" y2="-470"></line><line class="cls-5" x1="-5.19" y1="317.86" x2="1345.54" y2="-461.69"></line><line class="cls-5" x1="-5.19" y1="326.18" x2="1345.54" y2="-453.37"></line><line class="cls-5" x1="-5.19" y1="334.5" x2="1345.54" y2="-445.05"></line><line class="cls-5" x1="-5.19" y1="342.82" x2="1345.54" y2="-436.73"></line><line class="cls-5" x1="-5.19" y1="351.13" x2="1345.54" y2="-428.41"></line><line class="cls-5" x1="-5.19" y1="359.45" x2="1345.54" y2="-420.09"></line><line class="cls-5" x1="-5.19" y1="367.77" x2="1345.54" y2="-411.78"></line><line class="cls-5" x1="-5.19" y1="376.09" x2="1345.54" y2="-403.46"></line><line class="cls-5" x1="-5.19" y1="384.41" x2="1345.54" y2="-395.14"></line><line class="cls-5" x1="-5.19" y1="392.73" x2="1345.54" y2="-386.82"></line><line class="cls-5" x1="-5.19" y1="401.04" x2="1345.54" y2="-378.5"></line><line class="cls-5" x1="-5.19" y1="409.36" x2="1345.54" y2="-370.18"></line><line class="cls-5" x1="-5.19" y1="417.68" x2="1345.54" y2="-361.87"></line><line class="cls-5" x1="-5.19" y1="426" x2="1345.54" y2="-353.55"></line><line class="cls-5" x1="-5.19" y1="434.32" x2="1345.54" y2="-345.23"></line><line class="cls-5" x1="-5.19" y1="442.64" x2="1345.54" y2="-336.91"></line><line class="cls-5" x1="-5.19" y1="450.95" x2="1345.54" y2="-328.59"></line><line class="cls-5" x1="-5.19" y1="459.27" x2="1345.54" y2="-320.27"></line><line class="cls-5" x1="-5.19" y1="467.59" x2="1345.54" y2="-311.96"></line><line class="cls-5" x1="-5.19" y1="475.91" x2="1345.54" y2="-303.64"></line><line class="cls-5" x1="-5.19" y1="484.23" x2="1345.54" y2="-295.32"></line><line class="cls-5" x1="-5.19" y1="492.55" x2="1345.54" y2="-287"></line><line class="cls-5" x1="-5.19" y1="500.86" x2="1345.54" y2="-278.68"></line><line class="cls-5" x1="-5.19" y1="509.18" x2="1345.54" y2="-270.36"></line><line class="cls-5" x1="-5.19" y1="525.82" x2="1345.54" y2="-253.73"></line><line class="cls-5" x1="-5.19" y1="542.46" x2="1345.54" y2="-237.09"></line><line class="cls-5" x1="-5.19" y1="559.09" x2="1345.54" y2="-220.45"></line><line class="cls-5" x1="-5.19" y1="575.73" x2="1345.54" y2="-203.82"></line><line class="cls-5" x1="-5.19" y1="592.37" x2="1345.54" y2="-187.18"></line><line class="cls-5" x1="-5.19" y1="517.5" x2="1345.54" y2="-262.04"></line><line class="cls-5" x1="-5.19" y1="534.14" x2="1345.54" y2="-245.41"></line><line class="cls-5" x1="-5.19" y1="550.78" x2="1345.54" y2="-228.77"></line><line class="cls-5" x1="-5.19" y1="567.41" x2="1345.54" y2="-212.13"></line><line class="cls-5" x1="-5.19" y1="584.05" x2="1345.54" y2="-195.5"></line><line class="cls-5" x1="-5.19" y1="600.69" x2="1345.54" y2="-178.86"></line><line class="cls-5" x1="-5.19" y1="609" x2="1345.54" y2="-170.54"></line><line class="cls-5" x1="-5.19" y1="617.32" x2="1345.54" y2="-162.22"></line><line class="cls-5" x1="-5.19" y1="625.64" x2="1345.54" y2="-153.91"></line><line class="cls-5" x1="-5.19" y1="633.96" x2="1345.54" y2="-145.59"></line><line class="cls-5" x1="-5.19" y1="642.28" x2="1345.54" y2="-137.27"></line><line class="cls-5" x1="-5.19" y1="650.6" x2="1345.54" y2="-128.95"></line><line class="cls-5" x1="-5.19" y1="658.91" x2="1345.54" y2="-120.63"></line><line class="cls-5" x1="-5.19" y1="667.23" x2="1345.54" y2="-112.31"></line><line class="cls-5" x1="-5.19" y1="675.55" x2="1345.54" y2="-104"></line><line class="cls-5" x1="-5.19" y1="692.19" x2="1345.54" y2="-87.36"></line><line class="cls-5" x1="-5.19" y1="708.82" x2="1345.54" y2="-70.72"></line><line class="cls-5" x1="-5.19" y1="725.46" x2="1345.54" y2="-54.08"></line><line class="cls-5" x1="-5.19" y1="742.1" x2="1345.54" y2="-37.45"></line><line class="cls-5" x1="-5.19" y1="758.73" x2="1345.54" y2="-20.81"></line><line class="cls-5" x1="-5.19" y1="775.37" x2="1345.54" y2="-4.17"></line><line class="cls-5" x1="-5.19" y1="792.01" x2="1345.54" y2="12.46"></line><line class="cls-5" x1="-5.19" y1="683.87" x2="1345.54" y2="-95.68"></line><line class="cls-5" x1="-5.19" y1="700.51" x2="1345.54" y2="-79.04"></line><line class="cls-5" x1="-5.19" y1="717.14" x2="1345.54" y2="-62.4"></line><line class="cls-5" x1="-5.19" y1="733.78" x2="1345.54" y2="-45.77"></line><line class="cls-5" x1="-5.19" y1="750.42" x2="1345.54" y2="-29.13"></line><line class="cls-5" x1="-5.19" y1="767.05" x2="1345.54" y2="-12.49"></line><line class="cls-5" x1="-5.19" y1="783.69" x2="1345.54" y2="4.14"></line><line class="cls-5" x1="-5.19" y1="800.33" x2="1345.54" y2="20.78"></line><line class="cls-5" x1="-5.19" y1="808.65" x2="1345.54" y2="29.1"></line><line class="cls-5" x1="-5.19" y1="816.96" x2="1345.54" y2="37.42"></line><line class="cls-5" x1="-5.19" y1="825.28" x2="1345.54" y2="45.74"></line><line class="cls-5" x1="-5.19" y1="833.6" x2="1345.54" y2="54.05"></line><line class="cls-5" x1="-5.19" y1="841.92" x2="1345.54" y2="62.37"></line><line class="cls-5" x1="-5.19" y1="850.24" x2="1345.54" y2="70.69"></line></g><polygon class="cls-2" points="561.64 -305.97 514.18 -333.37 514.18 -388.18 561.64 -415.14 609.1 -388.52 609.1 -333.37 561.64 -305.97"></polygon><g class="cls-13"><line class="cls-5" x1="7.58" y1="1.69" x2="699.91" y2="-397.87"></line><line class="cls-5" x1="7.58" y1="5.95" x2="699.91" y2="-393.61"></line><line class="cls-5" x1="7.58" y1="10.22" x2="699.91" y2="-389.35"></line><line class="cls-5" x1="7.58" y1="14.48" x2="699.91" y2="-385.08"></line></g><g id="mddtRp"><path class="cls-14" d="M29.09,47q0-5.86,0-11.73c0-1-.08-2.14,1.25-2.13s1.3,1.18,1.31,2.14q0,10.74,0,21.5c0,.65,0,1.3,0,2,0,1,.25,2,1.53,1.92s.94-1.17.95-1.93c0-3.85,0-7.7,0-11.55,0-.53,0-1.06,0-1.59.07-.89.09-2,1.31-2s1.23,1.07,1.23,2c0,4.5,0,9,0,13.5,0,.71-.08,1.53,1,1.57a1.43,1.43,0,0,0,1.66-1.44c0-.23,0-.47,0-.71V57.07q0-10.49,0-21a13.25,13.25,0,0,1,.07-1.78c.09-.7.45-1.26,1.25-1.23a1.21,1.21,0,0,1,1.15,1.16,9.37,9.37,0,0,1,.1,1.59Q42,47,42,58.06c0,3.79-1.23,5-5,5-1.24,0-2.48,0-3.73,0-2.74,0-4.12-1.38-4.15-4.18C29.06,54.91,29.1,50.94,29.09,47Z"></path><path class="cls-14" d="M57.35,43c0,3.73,0,7.46,0,11.19,0,3.22-1.22,4.53-4.44,4.74a20.09,20.09,0,0,1-5.31-.16C45,58.27,43.34,54.22,44.75,52a1.12,1.12,0,0,1,1.2-.57,1.08,1.08,0,0,1,.95.93A13.57,13.57,0,0,1,47,54.52c0,1.07.31,1.91,1.58,1.88s1.09-1,1.09-1.81c0-4.27,0-8.53,0-12.79a8.45,8.45,0,0,1,.11-1.59,1,1,0,0,1,1-.87,1.06,1.06,0,0,1,1.21.82,8.92,8.92,0,0,1,.22,1.93c0,4.08,0,8.17,0,12.26,0,.79-.4,2,1,2s1.46-1.11,1.46-2.15q0-11.19,0-22.38a12.69,12.69,0,0,1,.13-1.95,1.12,1.12,0,0,1,1.06-1,1.17,1.17,0,0,1,1.26,1,9.46,9.46,0,0,1,.12,1.77C57.36,35.45,57.35,39.24,57.35,43Z"></path><path class="cls-14" d="M13.77,42.72c0-3.84,0-7.69,0-11.54,0-1-.25-2.32,1.23-2.28,1.32,0,1.11,1.31,1.11,2.22,0,7.34,0,14.69,0,22a17.36,17.36,0,0,0,.05,1.77,1.49,1.49,0,0,0,1.66,1.48c1.07,0,1-.85,1-1.54,0-4.21,0-8.41,0-12.61a12.17,12.17,0,0,1,.05-1.6c.08-.7.39-1.27,1.2-1.29s1.17.52,1.26,1.23a12,12,0,0,1,.06,1.59c0,4.15,0,8.29,0,12.43,0,.77-.27,1.83,1.07,1.79,1.1,0,1.55-.73,1.58-1.76a22,22,0,0,1,.12-2.3,1.05,1.05,0,0,1,1.14-.92,1,1,0,0,1,1,.83c.14,1.52.4,3.08-.26,4.54a3.37,3.37,0,0,1-2.74,2,22.51,22.51,0,0,1-6.19,0A3.54,3.54,0,0,1,13.78,55c0-4.09,0-8.17,0-12.26Z"></path><path class="cls-14" d="M24.1,38.35c0-1.77,0-3.55,0-5.32a6,6,0,0,1,5.32-6.13,52.69,52.69,0,0,1,12,0A6,6,0,0,1,47,33.05c.09,3.72,0,7.45,0,11.18,0,.9-.06,2-1.25,2s-1.29-1.05-1.3-2c0-3.55,0-7.1,0-10.65,0-3-1.4-4.32-4.38-4.34s-6.15,0-9.23,0c-2.76,0-4.12,1.39-4.15,4.17,0,3.26,0,6.51,0,9.77a11.25,11.25,0,0,1-.07,1.42c-.1.79-.29,1.62-1.29,1.6s-1.18-.83-1.19-1.65C24.09,42.5,24.1,40.43,24.1,38.35Z"></path><path class="cls-14" d="M11.13,34.62c0,1.89,0,3.78,0,5.68,0,.82-.16,1.62-1.17,1.67s-1.29-.78-1.31-1.57c-.07-4.25-.37-8.52.18-12.76a5.87,5.87,0,0,1,4.95-4.94c3.71-.54,7.45-.25,11.17-.2.81,0,1.59.36,1.5,1.37S25.53,25,24.73,25c-3,0-5.92,0-8.88,0-3.26,0-4.67,1.42-4.71,4.63,0,1.66,0,3.32,0,5Z"></path><path class="cls-14" d="M62.35,34.52c0,1.77,0,3.55,0,5.32,0,.93.13,2.13-1.23,2.12s-1.27-1.24-1.29-2.15c0-3.13,0-6.27,0-9.4,0-4.36-1.07-5.41-5.47-5.41H47.39c-.9,0-1.76-.19-1.75-1.28s.89-1.21,1.67-1.22a63.32,63.32,0,0,1,9.74.18,6.11,6.11,0,0,1,5.28,6c.06,1.95,0,3.9,0,5.85Z"></path><path class="cls-14" d="M55.93,14.17a6.36,6.36,0,0,1-6,6.48A6.43,6.43,0,0,1,49.84,7.8C53.06,7.74,55.9,10.7,55.93,14.17Zm-2.58.09c0-2.31-1.39-3.88-3.45-3.88a3.56,3.56,0,0,0-3.59,3.79,3.64,3.64,0,0,0,3.5,3.9C51.87,18.11,53.33,16.53,53.35,14.26Z"></path><path class="cls-14" d="M29.44,18.5a6.36,6.36,0,0,1,6-6.47,6.39,6.39,0,0,1,6.21,6.45,6.48,6.48,0,0,1-6.1,6.4A6.39,6.39,0,0,1,29.44,18.5Zm9.62.05a3.59,3.59,0,0,0-3.43-3.93A3.45,3.45,0,0,0,32,18.33c0,2.29,1.37,3.91,3.4,4A3.66,3.66,0,0,0,39.06,18.55Z"></path><path class="cls-14" d="M15.18,14.23a6.21,6.21,0,0,1,6-6.44,6.3,6.3,0,0,1,6,6.43,6.29,6.29,0,0,1-6,6.43A6.18,6.18,0,0,1,15.18,14.23Zm5.93-3.85a3.79,3.79,0,0,0-3.54,3.92,3.73,3.73,0,0,0,3.68,3.77,3.79,3.79,0,0,0,3.54-3.92A3.75,3.75,0,0,0,21.11,10.38Z"></path></g></svg> 