<?xml version="1.0" encoding="UTF-8"?> <svg xmlns="http://www.w3.org/2000/svg" xmlns:xlink="http://www.w3.org/1999/xlink" id="Calque_1" data-name="Calque 1" viewBox="0 0 70.87 70.87"><defs><style>.cls-1{fill:#fff;}.cls-2,.cls-4{fill:none;}.cls-3{clip-path:url(#clip-path);}.cls-4{stroke:#002c39;stroke-miterlimit:10;stroke-width:0.5px;}.cls-5{clip-path:url(#clip-path-2);}.cls-6{clip-path:url(#clip-path-3);}.cls-7{clip-path:url(#clip-path-4);}.cls-8{clip-path:url(#clip-path-5);}.cls-9{clip-path:url(#clip-path-6);}.cls-10{clip-path:url(#clip-path-7);}.cls-11{clip-path:url(#clip-path-8);}</style><clipPath id="clip-path"><polygon class="cls-1" points="-133.31 -408.39 -85.44 -380.75 -85.44 -325.48 -37.57 -353.12 -37.57 -408.39 -85.44 -436.03 -133.31 -408.39"></polygon></clipPath><clipPath id="clip-path-2"><polygon class="cls-1" points="107.01 -435.49 59.55 -408.09 59.55 -353.28 107.74 -380.82 154.47 -353.28 154.47 -408.09 107.01 -435.49"></polygon></clipPath><clipPath id="clip-path-3"><polygon class="cls-1" points="251.53 -407.94 204.07 -380.54 204.07 -325.74 251.53 -325.48 298.99 -325.74 298.99 -380.54 251.53 -407.94"></polygon></clipPath><clipPath id="clip-path-4"><polygon class="cls-2" points="706.9 408.23 614.31 354.77 521.71 408.23 521.71 515.15 612.05 463.53 706.9 515.15 706.9 408.23"></polygon></clipPath><clipPath id="clip-path-5"><polygon class="cls-2" points="521.71 194.39 614.31 245.95 614.31 354.55 706.9 301.09 706.9 194.17 614.31 140.71 521.71 194.17 521.71 87.47 429.12 34.01 336.52 87.47 429.12 140.82 429.12 247.85 521.71 194.39"></polygon></clipPath><clipPath id="clip-path-6"><polygon class="cls-2" points="614.31 -72.42 521.71 -18.96 521.71 87.96 615.74 34.24 706.9 87.96 706.9 -18.96 614.31 -72.42"></polygon></clipPath><clipPath id="clip-path-7"><polygon class="cls-2" points="983.74 -179.61 891.15 -126.15 891.15 -19.23 985.17 -72.96 1076.34 -19.23 1076.34 -126.15 983.74 -179.61"></polygon></clipPath><clipPath id="clip-path-8"><polygon class="cls-1" points="442.43 -305.97 394.97 -333.37 394.97 -388.18 442.43 -415.14 489.89 -388.52 489.89 -333.37 442.43 -305.97"></polygon></clipPath></defs><polygon class="cls-1" points="-133.31 -408.39 -85.44 -380.75 -85.44 -325.48 -37.57 -353.12 -37.57 -408.39 -85.44 -436.03 -133.31 -408.39"></polygon><g class="cls-3"><line class="cls-4" x1="-434.35" y1="3.25" x2="263.95" y2="-399.76"></line><line class="cls-4" x1="-434.35" y1="7.55" x2="263.95" y2="-395.46"></line><line class="cls-4" x1="-434.35" y1="11.85" x2="263.95" y2="-391.16"></line><line class="cls-4" x1="-434.35" y1="16.15" x2="263.95" y2="-386.86"></line><line class="cls-4" x1="-434.35" y1="20.45" x2="263.95" y2="-382.56"></line><line class="cls-4" x1="-434.35" y1="24.75" x2="263.95" y2="-378.26"></line><line class="cls-4" x1="-434.35" y1="29.05" x2="263.95" y2="-373.96"></line><line class="cls-4" x1="-434.35" y1="33.35" x2="263.95" y2="-369.66"></line><line class="cls-4" x1="-434.35" y1="37.65" x2="263.95" y2="-365.36"></line><line class="cls-4" x1="-434.35" y1="41.95" x2="263.95" y2="-361.06"></line><line class="cls-4" x1="-434.35" y1="46.25" x2="263.95" y2="-356.75"></line><line class="cls-4" x1="-434.35" y1="50.56" x2="263.95" y2="-352.45"></line><line class="cls-4" x1="-434.35" y1="54.86" x2="263.95" y2="-348.15"></line></g><polygon class="cls-1" points="107.01 -435.49 59.55 -408.09 59.55 -353.28 107.74 -380.82 154.47 -353.28 154.47 -408.09 107.01 -435.49"></polygon><g class="cls-5"><line class="cls-4" x1="-460.98" y1="2.83" x2="231.35" y2="-396.73"></line><line class="cls-4" x1="-460.98" y1="11.36" x2="231.35" y2="-388.2"></line><line class="cls-4" x1="-460.98" y1="19.89" x2="231.35" y2="-379.68"></line><line class="cls-4" x1="-460.98" y1="28.42" x2="231.35" y2="-371.15"></line><line class="cls-4" x1="-460.98" y1="36.94" x2="231.35" y2="-362.62"></line><line class="cls-4" x1="-460.98" y1="45.47" x2="231.35" y2="-354.09"></line><line class="cls-4" x1="-460.98" y1="54" x2="231.35" y2="-345.57"></line><line class="cls-4" x1="-460.98" y1="62.52" x2="231.35" y2="-337.04"></line><line class="cls-4" x1="-460.98" y1="7.1" x2="231.35" y2="-392.47"></line><line class="cls-4" x1="-460.98" y1="15.62" x2="231.35" y2="-383.94"></line><line class="cls-4" x1="-460.98" y1="24.15" x2="231.35" y2="-375.41"></line><line class="cls-4" x1="-460.98" y1="32.68" x2="231.35" y2="-366.89"></line><line class="cls-4" x1="-460.98" y1="41.21" x2="231.35" y2="-358.36"></line><line class="cls-4" x1="-460.98" y1="49.73" x2="231.35" y2="-349.83"></line><line class="cls-4" x1="-460.98" y1="58.26" x2="231.35" y2="-341.3"></line><line class="cls-4" x1="-460.98" y1="66.79" x2="231.35" y2="-332.78"></line><line class="cls-4" x1="-460.98" y1="71.05" x2="231.35" y2="-328.51"></line><line class="cls-4" x1="-460.98" y1="75.32" x2="231.35" y2="-324.25"></line><line class="cls-4" x1="-460.98" y1="79.58" x2="231.35" y2="-319.98"></line><line class="cls-4" x1="-460.98" y1="83.84" x2="231.35" y2="-315.72"></line><line class="cls-4" x1="-460.98" y1="88.11" x2="231.35" y2="-311.46"></line><line class="cls-4" x1="-460.98" y1="92.37" x2="231.35" y2="-307.19"></line><line class="cls-4" x1="-460.98" y1="96.63" x2="231.35" y2="-302.93"></line><line class="cls-4" x1="-460.98" y1="100.9" x2="231.35" y2="-298.67"></line><line class="cls-4" x1="-460.98" y1="105.16" x2="231.35" y2="-294.4"></line><line class="cls-4" x1="-460.98" y1="109.43" x2="231.35" y2="-290.14"></line><line class="cls-4" x1="-460.98" y1="113.69" x2="231.35" y2="-285.88"></line><line class="cls-4" x1="-460.98" y1="117.95" x2="231.35" y2="-281.61"></line><line class="cls-4" x1="-460.98" y1="122.22" x2="231.35" y2="-277.35"></line><line class="cls-4" x1="-460.98" y1="126.48" x2="231.35" y2="-273.08"></line></g><polygon class="cls-1" points="251.53 -407.94 204.07 -380.54 204.07 -325.74 251.53 -325.48 298.99 -325.74 298.99 -380.54 251.53 -407.94"></polygon><g class="cls-6"><line class="cls-4" x1="-316.46" y1="0.53" x2="375.87" y2="-399.03"></line><line class="cls-4" x1="-316.46" y1="4.8" x2="375.87" y2="-394.77"></line><line class="cls-4" x1="-316.46" y1="9.06" x2="375.87" y2="-390.51"></line><line class="cls-4" x1="-316.46" y1="13.32" x2="375.87" y2="-386.24"></line><line class="cls-4" x1="-316.46" y1="17.59" x2="375.87" y2="-381.98"></line><line class="cls-4" x1="-316.46" y1="21.85" x2="375.87" y2="-377.71"></line><line class="cls-4" x1="-316.46" y1="26.11" x2="375.87" y2="-373.45"></line><line class="cls-4" x1="-316.46" y1="30.38" x2="375.87" y2="-369.19"></line><line class="cls-4" x1="-316.46" y1="38.9" x2="375.87" y2="-360.66"></line><line class="cls-4" x1="-316.46" y1="47.43" x2="375.87" y2="-352.13"></line><line class="cls-4" x1="-316.46" y1="55.96" x2="375.87" y2="-343.61"></line><line class="cls-4" x1="-316.46" y1="64.49" x2="375.87" y2="-335.08"></line><line class="cls-4" x1="-316.46" y1="73.01" x2="375.87" y2="-326.55"></line><line class="cls-4" x1="-316.46" y1="81.54" x2="375.87" y2="-318.02"></line><line class="cls-4" x1="-316.46" y1="90.07" x2="375.87" y2="-309.5"></line><line class="cls-4" x1="-316.46" y1="34.64" x2="375.87" y2="-364.92"></line><line class="cls-4" x1="-316.46" y1="43.17" x2="375.87" y2="-356.4"></line><line class="cls-4" x1="-316.46" y1="51.7" x2="375.87" y2="-347.87"></line><line class="cls-4" x1="-316.46" y1="60.22" x2="375.87" y2="-339.34"></line><line class="cls-4" x1="-316.46" y1="68.75" x2="375.87" y2="-330.81"></line><line class="cls-4" x1="-316.46" y1="77.28" x2="375.87" y2="-322.29"></line><line class="cls-4" x1="-316.46" y1="85.81" x2="375.87" y2="-313.76"></line><line class="cls-4" x1="-316.46" y1="94.33" x2="375.87" y2="-305.23"></line><line class="cls-4" x1="-316.46" y1="98.6" x2="375.87" y2="-300.97"></line><line class="cls-4" x1="-316.46" y1="102.86" x2="375.87" y2="-296.7"></line><line class="cls-4" x1="-316.46" y1="107.12" x2="375.87" y2="-292.44"></line><line class="cls-4" x1="-316.46" y1="111.39" x2="375.87" y2="-288.18"></line><line class="cls-4" x1="-316.46" y1="115.65" x2="375.87" y2="-283.91"></line><line class="cls-4" x1="-316.46" y1="119.91" x2="375.87" y2="-279.65"></line><line class="cls-4" x1="-316.46" y1="124.18" x2="375.87" y2="-275.39"></line><line class="cls-4" x1="-316.46" y1="128.44" x2="375.87" y2="-271.12"></line><line class="cls-4" x1="-316.46" y1="132.71" x2="375.87" y2="-266.86"></line><line class="cls-4" x1="-316.46" y1="136.97" x2="375.87" y2="-262.6"></line><line class="cls-4" x1="-316.46" y1="141.23" x2="375.87" y2="-258.33"></line><line class="cls-4" x1="-316.46" y1="145.5" x2="375.87" y2="-254.07"></line><line class="cls-4" x1="-316.46" y1="149.76" x2="375.87" y2="-249.8"></line><line class="cls-4" x1="-316.46" y1="154.02" x2="375.87" y2="-245.54"></line></g><g class="cls-7"><line class="cls-4" x1="-123.35" y1="330.62" x2="1227.38" y2="-448.92"></line><line class="cls-4" x1="-123.35" y1="338.94" x2="1227.38" y2="-440.61"></line><line class="cls-4" x1="-123.35" y1="347.26" x2="1227.38" y2="-432.29"></line><line class="cls-4" x1="-123.35" y1="355.58" x2="1227.38" y2="-423.97"></line><line class="cls-4" x1="-123.35" y1="363.9" x2="1227.38" y2="-415.65"></line><line class="cls-4" x1="-123.35" y1="372.21" x2="1227.38" y2="-407.33"></line><line class="cls-4" x1="-123.35" y1="380.53" x2="1227.38" y2="-399.01"></line><line class="cls-4" x1="-123.35" y1="388.85" x2="1227.38" y2="-390.69"></line><line class="cls-4" x1="-123.35" y1="397.17" x2="1227.38" y2="-382.38"></line><line class="cls-4" x1="-123.35" y1="405.49" x2="1227.38" y2="-374.06"></line><line class="cls-4" x1="-123.35" y1="413.81" x2="1227.38" y2="-365.74"></line><line class="cls-4" x1="-123.35" y1="422.12" x2="1227.38" y2="-357.42"></line><line class="cls-4" x1="-123.35" y1="430.44" x2="1227.38" y2="-349.1"></line><line class="cls-4" x1="-123.35" y1="438.76" x2="1227.38" y2="-340.78"></line><line class="cls-4" x1="-123.35" y1="447.08" x2="1227.38" y2="-332.47"></line><line class="cls-4" x1="-123.35" y1="455.4" x2="1227.38" y2="-324.15"></line><line class="cls-4" x1="-123.35" y1="463.72" x2="1227.38" y2="-315.83"></line><line class="cls-4" x1="-123.35" y1="472.04" x2="1227.38" y2="-307.51"></line><line class="cls-4" x1="-123.35" y1="480.35" x2="1227.38" y2="-299.19"></line><line class="cls-4" x1="-123.35" y1="488.67" x2="1227.38" y2="-290.87"></line><line class="cls-4" x1="-123.35" y1="496.99" x2="1227.38" y2="-282.56"></line><line class="cls-4" x1="-123.35" y1="505.31" x2="1227.38" y2="-274.24"></line><line class="cls-4" x1="-123.35" y1="513.63" x2="1227.38" y2="-265.92"></line><line class="cls-4" x1="-123.35" y1="521.95" x2="1227.38" y2="-257.6"></line><line class="cls-4" x1="-123.35" y1="530.26" x2="1227.38" y2="-249.28"></line><line class="cls-4" x1="-123.35" y1="538.58" x2="1227.38" y2="-240.96"></line><line class="cls-4" x1="-123.35" y1="546.9" x2="1227.38" y2="-232.65"></line><line class="cls-4" x1="-123.35" y1="555.22" x2="1227.38" y2="-224.33"></line><line class="cls-4" x1="-123.35" y1="563.54" x2="1227.38" y2="-216.01"></line><line class="cls-4" x1="-123.35" y1="571.86" x2="1227.38" y2="-207.69"></line><line class="cls-4" x1="-123.35" y1="580.17" x2="1227.38" y2="-199.37"></line><line class="cls-4" x1="-123.35" y1="588.49" x2="1227.38" y2="-191.05"></line><line class="cls-4" x1="-123.35" y1="596.81" x2="1227.38" y2="-182.74"></line><line class="cls-4" x1="-123.35" y1="605.13" x2="1227.38" y2="-174.42"></line><line class="cls-4" x1="-123.35" y1="613.45" x2="1227.38" y2="-166.1"></line><line class="cls-4" x1="-123.35" y1="621.77" x2="1227.38" y2="-157.78"></line><line class="cls-4" x1="-123.35" y1="630.08" x2="1227.38" y2="-149.46"></line><line class="cls-4" x1="-123.35" y1="638.4" x2="1227.38" y2="-141.14"></line><line class="cls-4" x1="-123.35" y1="646.72" x2="1227.38" y2="-132.82"></line><line class="cls-4" x1="-123.35" y1="655.04" x2="1227.38" y2="-124.51"></line><line class="cls-4" x1="-123.35" y1="663.36" x2="1227.38" y2="-116.19"></line><line class="cls-4" x1="-123.35" y1="671.68" x2="1227.38" y2="-107.87"></line><line class="cls-4" x1="-123.35" y1="679.99" x2="1227.38" y2="-99.55"></line><line class="cls-4" x1="-123.35" y1="688.31" x2="1227.38" y2="-91.23"></line><line class="cls-4" x1="-123.35" y1="696.63" x2="1227.38" y2="-82.91"></line><line class="cls-4" x1="-123.35" y1="704.95" x2="1227.38" y2="-74.6"></line><line class="cls-4" x1="-123.35" y1="713.27" x2="1227.38" y2="-66.28"></line><line class="cls-4" x1="-123.35" y1="721.59" x2="1227.38" y2="-57.96"></line><line class="cls-4" x1="-123.35" y1="729.91" x2="1227.38" y2="-49.64"></line><line class="cls-4" x1="-123.35" y1="738.22" x2="1227.38" y2="-41.32"></line><line class="cls-4" x1="-123.35" y1="746.54" x2="1227.38" y2="-33"></line><line class="cls-4" x1="-123.35" y1="754.86" x2="1227.38" y2="-24.69"></line><line class="cls-4" x1="-123.35" y1="763.18" x2="1227.38" y2="-16.37"></line><line class="cls-4" x1="-123.35" y1="771.5" x2="1227.38" y2="-8.05"></line><line class="cls-4" x1="-123.35" y1="779.82" x2="1227.38" y2="0.27"></line><line class="cls-4" x1="-123.35" y1="788.13" x2="1227.38" y2="8.59"></line><line class="cls-4" x1="-123.35" y1="796.45" x2="1227.38" y2="16.91"></line><line class="cls-4" x1="-123.35" y1="804.77" x2="1227.38" y2="25.22"></line><line class="cls-4" x1="-123.35" y1="813.09" x2="1227.38" y2="33.54"></line><line class="cls-4" x1="-123.35" y1="821.41" x2="1227.38" y2="41.86"></line><line class="cls-4" x1="-123.35" y1="829.73" x2="1227.38" y2="50.18"></line><line class="cls-4" x1="-123.35" y1="846.36" x2="1227.38" y2="66.82"></line><line class="cls-4" x1="-123.35" y1="838.04" x2="1227.38" y2="58.5"></line></g><g class="cls-8"><line class="cls-4" x1="-123.35" y1="330.62" x2="1227.38" y2="-448.92"></line><line class="cls-4" x1="-123.35" y1="338.94" x2="1227.38" y2="-440.61"></line><line class="cls-4" x1="-123.35" y1="347.26" x2="1227.38" y2="-432.29"></line><line class="cls-4" x1="-123.35" y1="355.58" x2="1227.38" y2="-423.97"></line><line class="cls-4" x1="-123.35" y1="363.9" x2="1227.38" y2="-415.65"></line><line class="cls-4" x1="-123.35" y1="372.21" x2="1227.38" y2="-407.33"></line><line class="cls-4" x1="-123.35" y1="380.53" x2="1227.38" y2="-399.01"></line><line class="cls-4" x1="-123.35" y1="388.85" x2="1227.38" y2="-390.69"></line><line class="cls-4" x1="-123.35" y1="397.17" x2="1227.38" y2="-382.38"></line><line class="cls-4" x1="-123.35" y1="405.49" x2="1227.38" y2="-374.06"></line><line class="cls-4" x1="-123.35" y1="413.81" x2="1227.38" y2="-365.74"></line><line class="cls-4" x1="-123.35" y1="422.12" x2="1227.38" y2="-357.42"></line><line class="cls-4" x1="-123.35" y1="430.44" x2="1227.38" y2="-349.1"></line><line class="cls-4" x1="-123.35" y1="438.76" x2="1227.38" y2="-340.78"></line><line class="cls-4" x1="-123.35" y1="447.08" x2="1227.38" y2="-332.47"></line><line class="cls-4" x1="-123.35" y1="455.4" x2="1227.38" y2="-324.15"></line><line class="cls-4" x1="-123.35" y1="463.72" x2="1227.38" y2="-315.83"></line><line class="cls-4" x1="-123.35" y1="472.04" x2="1227.38" y2="-307.51"></line><line class="cls-4" x1="-123.35" y1="480.35" x2="1227.38" y2="-299.19"></line><line class="cls-4" x1="-123.35" y1="488.67" x2="1227.38" y2="-290.87"></line><line class="cls-4" x1="-123.35" y1="496.99" x2="1227.38" y2="-282.56"></line><line class="cls-4" x1="-123.35" y1="505.31" x2="1227.38" y2="-274.24"></line><line class="cls-4" x1="-123.35" y1="513.63" x2="1227.38" y2="-265.92"></line><line class="cls-4" x1="-123.35" y1="521.95" x2="1227.38" y2="-257.6"></line><line class="cls-4" x1="-123.35" y1="530.26" x2="1227.38" y2="-249.28"></line><line class="cls-4" x1="-123.35" y1="538.58" x2="1227.38" y2="-240.96"></line><line class="cls-4" x1="-123.35" y1="546.9" x2="1227.38" y2="-232.65"></line><line class="cls-4" x1="-123.35" y1="555.22" x2="1227.38" y2="-224.33"></line><line class="cls-4" x1="-123.35" y1="563.54" x2="1227.38" y2="-216.01"></line><line class="cls-4" x1="-123.35" y1="571.86" x2="1227.38" y2="-207.69"></line><line class="cls-4" x1="-123.35" y1="580.17" x2="1227.38" y2="-199.37"></line><line class="cls-4" x1="-123.35" y1="588.49" x2="1227.38" y2="-191.05"></line><line class="cls-4" x1="-123.35" y1="596.81" x2="1227.38" y2="-182.74"></line><line class="cls-4" x1="-123.35" y1="605.13" x2="1227.38" y2="-174.42"></line><line class="cls-4" x1="-123.35" y1="613.45" x2="1227.38" y2="-166.1"></line><line class="cls-4" x1="-123.35" y1="621.77" x2="1227.38" y2="-157.78"></line><line class="cls-4" x1="-123.35" y1="630.08" x2="1227.38" y2="-149.46"></line><line class="cls-4" x1="-123.35" y1="638.4" x2="1227.38" y2="-141.14"></line><line class="cls-4" x1="-123.35" y1="646.72" x2="1227.38" y2="-132.82"></line><line class="cls-4" x1="-123.35" y1="655.04" x2="1227.38" y2="-124.51"></line><line class="cls-4" x1="-123.35" y1="663.36" x2="1227.38" y2="-116.19"></line><line class="cls-4" x1="-123.35" y1="671.68" x2="1227.38" y2="-107.87"></line><line class="cls-4" x1="-123.35" y1="679.99" x2="1227.38" y2="-99.55"></line><line class="cls-4" x1="-123.35" y1="688.31" x2="1227.38" y2="-91.23"></line><line class="cls-4" x1="-123.35" y1="696.63" x2="1227.38" y2="-82.91"></line><line class="cls-4" x1="-123.35" y1="704.95" x2="1227.38" y2="-74.6"></line><line class="cls-4" x1="-123.35" y1="713.27" x2="1227.38" y2="-66.28"></line><line class="cls-4" x1="-123.35" y1="721.59" x2="1227.38" y2="-57.96"></line><line class="cls-4" x1="-123.35" y1="729.91" x2="1227.38" y2="-49.64"></line><line class="cls-4" x1="-123.35" y1="738.22" x2="1227.38" y2="-41.32"></line><line class="cls-4" x1="-123.35" y1="746.54" x2="1227.38" y2="-33"></line><line class="cls-4" x1="-123.35" y1="754.86" x2="1227.38" y2="-24.69"></line><line class="cls-4" x1="-123.35" y1="763.18" x2="1227.38" y2="-16.37"></line><line class="cls-4" x1="-123.35" y1="771.5" x2="1227.38" y2="-8.05"></line><line class="cls-4" x1="-123.35" y1="779.82" x2="1227.38" y2="0.27"></line><line class="cls-4" x1="-123.35" y1="788.13" x2="1227.38" y2="8.59"></line><line class="cls-4" x1="-123.35" y1="796.45" x2="1227.38" y2="16.91"></line><line class="cls-4" x1="-123.35" y1="804.77" x2="1227.38" y2="25.22"></line><line class="cls-4" x1="-123.35" y1="813.09" x2="1227.38" y2="33.54"></line><line class="cls-4" x1="-123.35" y1="821.41" x2="1227.38" y2="41.86"></line><line class="cls-4" x1="-123.35" y1="829.73" x2="1227.38" y2="50.18"></line><line class="cls-4" x1="-123.35" y1="846.36" x2="1227.38" y2="66.82"></line><line class="cls-4" x1="-123.35" y1="838.04" x2="1227.38" y2="58.5"></line></g><g class="cls-9"><line class="cls-4" x1="-493.84" y1="117.27" x2="856.89" y2="-662.27"></line><line class="cls-4" x1="-493.84" y1="125.59" x2="856.89" y2="-653.96"></line><line class="cls-4" x1="-493.84" y1="133.91" x2="856.89" y2="-645.64"></line><line class="cls-4" x1="-493.84" y1="142.23" x2="856.89" y2="-637.32"></line><line class="cls-4" x1="-493.84" y1="150.55" x2="856.89" y2="-629"></line><line class="cls-4" x1="-493.84" y1="158.86" x2="856.89" y2="-620.68"></line><line class="cls-4" x1="-493.84" y1="167.18" x2="856.89" y2="-612.36"></line><line class="cls-4" x1="-493.84" y1="175.5" x2="856.89" y2="-604.05"></line><line class="cls-4" x1="-493.84" y1="183.82" x2="856.89" y2="-595.73"></line><line class="cls-4" x1="-493.84" y1="192.14" x2="856.89" y2="-587.41"></line><line class="cls-4" x1="-493.84" y1="200.46" x2="856.89" y2="-579.09"></line><line class="cls-4" x1="-493.84" y1="208.77" x2="856.89" y2="-570.77"></line><line class="cls-4" x1="-493.84" y1="217.09" x2="856.89" y2="-562.45"></line><line class="cls-4" x1="-493.84" y1="225.41" x2="856.89" y2="-554.13"></line><line class="cls-4" x1="-493.84" y1="233.73" x2="856.89" y2="-545.82"></line><line class="cls-4" x1="-493.84" y1="242.05" x2="856.89" y2="-537.5"></line><line class="cls-4" x1="-493.84" y1="250.37" x2="856.89" y2="-529.18"></line><line class="cls-4" x1="-493.84" y1="258.68" x2="856.89" y2="-520.86"></line><line class="cls-4" x1="-493.84" y1="267" x2="856.89" y2="-512.54"></line><line class="cls-4" x1="-493.84" y1="275.32" x2="856.89" y2="-504.22"></line><line class="cls-4" x1="-493.84" y1="283.64" x2="856.89" y2="-495.91"></line><line class="cls-4" x1="-493.84" y1="291.96" x2="856.89" y2="-487.59"></line><line class="cls-4" x1="-493.84" y1="300.28" x2="856.89" y2="-479.27"></line><line class="cls-4" x1="-493.84" y1="308.6" x2="856.89" y2="-470.95"></line><line class="cls-4" x1="-493.84" y1="316.91" x2="856.89" y2="-462.63"></line><line class="cls-4" x1="-493.84" y1="325.23" x2="856.89" y2="-454.31"></line><line class="cls-4" x1="-493.84" y1="333.55" x2="856.89" y2="-446"></line><line class="cls-4" x1="-493.84" y1="341.87" x2="856.89" y2="-437.68"></line><line class="cls-4" x1="-493.84" y1="350.19" x2="856.89" y2="-429.36"></line><line class="cls-4" x1="-493.84" y1="358.51" x2="856.89" y2="-421.04"></line><line class="cls-4" x1="-493.84" y1="366.82" x2="856.89" y2="-412.72"></line><line class="cls-4" x1="-493.84" y1="375.14" x2="856.89" y2="-404.4"></line><line class="cls-4" x1="-493.84" y1="383.46" x2="856.89" y2="-396.09"></line><line class="cls-4" x1="-493.84" y1="391.78" x2="856.89" y2="-387.77"></line><line class="cls-4" x1="-493.84" y1="400.1" x2="856.89" y2="-379.45"></line><line class="cls-4" x1="-493.84" y1="408.42" x2="856.89" y2="-371.13"></line><line class="cls-4" x1="-493.84" y1="416.73" x2="856.89" y2="-362.81"></line><line class="cls-4" x1="-493.84" y1="425.05" x2="856.89" y2="-354.49"></line><line class="cls-4" x1="-493.84" y1="433.37" x2="856.89" y2="-346.18"></line><line class="cls-4" x1="-493.84" y1="441.69" x2="856.89" y2="-337.86"></line><line class="cls-4" x1="-493.84" y1="450.01" x2="856.89" y2="-329.54"></line><line class="cls-4" x1="-493.84" y1="458.33" x2="856.89" y2="-321.22"></line><line class="cls-4" x1="-493.84" y1="466.64" x2="856.89" y2="-312.9"></line><line class="cls-4" x1="-493.84" y1="474.96" x2="856.89" y2="-304.58"></line><line class="cls-4" x1="-493.84" y1="483.28" x2="856.89" y2="-296.26"></line><line class="cls-4" x1="-493.84" y1="491.6" x2="856.89" y2="-287.95"></line><line class="cls-4" x1="-493.84" y1="499.92" x2="856.89" y2="-279.63"></line><line class="cls-4" x1="-493.84" y1="508.24" x2="856.89" y2="-271.31"></line><line class="cls-4" x1="-493.84" y1="516.55" x2="856.89" y2="-262.99"></line><line class="cls-4" x1="-493.84" y1="524.87" x2="856.89" y2="-254.67"></line><line class="cls-4" x1="-493.84" y1="533.19" x2="856.89" y2="-246.35"></line><line class="cls-4" x1="-493.84" y1="541.51" x2="856.89" y2="-238.04"></line><line class="cls-4" x1="-493.84" y1="549.83" x2="856.89" y2="-229.72"></line><line class="cls-4" x1="-493.84" y1="558.15" x2="856.89" y2="-221.4"></line><line class="cls-4" x1="-493.84" y1="566.47" x2="856.89" y2="-213.08"></line><line class="cls-4" x1="-493.84" y1="574.78" x2="856.89" y2="-204.76"></line><line class="cls-4" x1="-493.84" y1="583.1" x2="856.89" y2="-196.44"></line><line class="cls-4" x1="-493.84" y1="591.42" x2="856.89" y2="-188.13"></line><line class="cls-4" x1="-493.84" y1="599.74" x2="856.89" y2="-179.81"></line><line class="cls-4" x1="-493.84" y1="608.06" x2="856.89" y2="-171.49"></line><line class="cls-4" x1="-493.84" y1="616.38" x2="856.89" y2="-163.17"></line><line class="cls-4" x1="-493.84" y1="633.01" x2="856.89" y2="-146.53"></line><line class="cls-4" x1="-493.84" y1="649.65" x2="856.89" y2="-129.9"></line><line class="cls-4" x1="-493.84" y1="666.29" x2="856.89" y2="-113.26"></line><line class="cls-4" x1="-493.84" y1="682.92" x2="856.89" y2="-96.62"></line><line class="cls-4" x1="-493.84" y1="699.56" x2="856.89" y2="-79.99"></line><line class="cls-4" x1="-493.84" y1="624.69" x2="856.89" y2="-154.85"></line><line class="cls-4" x1="-493.84" y1="641.33" x2="856.89" y2="-138.22"></line><line class="cls-4" x1="-493.84" y1="657.97" x2="856.89" y2="-121.58"></line><line class="cls-4" x1="-493.84" y1="674.6" x2="856.89" y2="-104.94"></line><line class="cls-4" x1="-493.84" y1="691.24" x2="856.89" y2="-88.31"></line><line class="cls-4" x1="-493.84" y1="707.88" x2="856.89" y2="-71.67"></line><line class="cls-4" x1="-493.84" y1="716.2" x2="856.89" y2="-63.35"></line><line class="cls-4" x1="-493.84" y1="724.51" x2="856.89" y2="-55.03"></line><line class="cls-4" x1="-493.84" y1="732.83" x2="856.89" y2="-46.71"></line><line class="cls-4" x1="-493.84" y1="741.15" x2="856.89" y2="-38.39"></line><line class="cls-4" x1="-493.84" y1="749.47" x2="856.89" y2="-30.08"></line><line class="cls-4" x1="-493.84" y1="757.79" x2="856.89" y2="-21.76"></line><line class="cls-4" x1="-493.84" y1="766.11" x2="856.89" y2="-13.44"></line><line class="cls-4" x1="-493.84" y1="774.42" x2="856.89" y2="-5.12"></line><line class="cls-4" x1="-493.84" y1="782.74" x2="856.89" y2="3.2"></line><line class="cls-4" x1="-493.84" y1="799.38" x2="856.89" y2="19.83"></line><line class="cls-4" x1="-493.84" y1="816.02" x2="856.89" y2="36.47"></line><line class="cls-4" x1="-493.84" y1="832.65" x2="856.89" y2="53.11"></line><line class="cls-4" x1="-493.84" y1="849.29" x2="856.89" y2="69.74"></line><line class="cls-4" x1="-493.84" y1="791.06" x2="856.89" y2="11.52"></line><line class="cls-4" x1="-493.84" y1="807.7" x2="856.89" y2="28.15"></line><line class="cls-4" x1="-493.84" y1="824.34" x2="856.89" y2="44.79"></line><line class="cls-4" x1="-493.84" y1="840.97" x2="856.89" y2="61.43"></line></g><g class="cls-10"><line class="cls-4" x1="-124.4" y1="10.08" x2="1226.33" y2="-769.47"></line><line class="cls-4" x1="-124.4" y1="18.4" x2="1226.33" y2="-761.15"></line><line class="cls-4" x1="-124.4" y1="26.72" x2="1226.33" y2="-752.83"></line><line class="cls-4" x1="-124.4" y1="35.04" x2="1226.33" y2="-744.51"></line><line class="cls-4" x1="-124.4" y1="43.35" x2="1226.33" y2="-736.19"></line><line class="cls-4" x1="-124.4" y1="51.67" x2="1226.33" y2="-727.87"></line><line class="cls-4" x1="-124.4" y1="59.99" x2="1226.33" y2="-719.56"></line><line class="cls-4" x1="-124.4" y1="68.31" x2="1226.33" y2="-711.24"></line><line class="cls-4" x1="-124.4" y1="76.63" x2="1226.33" y2="-702.92"></line><line class="cls-4" x1="-124.4" y1="84.95" x2="1226.33" y2="-694.6"></line><line class="cls-4" x1="-124.4" y1="93.26" x2="1226.33" y2="-686.28"></line><line class="cls-4" x1="-124.4" y1="101.58" x2="1226.33" y2="-677.96"></line><line class="cls-4" x1="-124.4" y1="109.9" x2="1226.33" y2="-669.65"></line><line class="cls-4" x1="-124.4" y1="118.22" x2="1226.33" y2="-661.33"></line><line class="cls-4" x1="-124.4" y1="126.54" x2="1226.33" y2="-653.01"></line><line class="cls-4" x1="-124.4" y1="134.86" x2="1226.33" y2="-644.69"></line><line class="cls-4" x1="-124.4" y1="143.17" x2="1226.33" y2="-636.37"></line><line class="cls-4" x1="-124.4" y1="151.49" x2="1226.33" y2="-628.05"></line><line class="cls-4" x1="-124.4" y1="159.81" x2="1226.33" y2="-619.74"></line><line class="cls-4" x1="-124.4" y1="168.13" x2="1226.33" y2="-611.42"></line><line class="cls-4" x1="-124.4" y1="176.45" x2="1226.33" y2="-603.1"></line><line class="cls-4" x1="-124.4" y1="184.77" x2="1226.33" y2="-594.78"></line><line class="cls-4" x1="-124.4" y1="193.08" x2="1226.33" y2="-586.46"></line><line class="cls-4" x1="-124.4" y1="201.4" x2="1226.33" y2="-578.14"></line><line class="cls-4" x1="-124.4" y1="209.72" x2="1226.33" y2="-569.83"></line><line class="cls-4" x1="-124.4" y1="218.04" x2="1226.33" y2="-561.51"></line><line class="cls-4" x1="-124.4" y1="226.36" x2="1226.33" y2="-553.19"></line><line class="cls-4" x1="-124.4" y1="234.68" x2="1226.33" y2="-544.87"></line><line class="cls-4" x1="-124.4" y1="242.99" x2="1226.33" y2="-536.55"></line><line class="cls-4" x1="-124.4" y1="251.31" x2="1226.33" y2="-528.23"></line><line class="cls-4" x1="-124.4" y1="259.63" x2="1226.33" y2="-519.91"></line><line class="cls-4" x1="-124.4" y1="267.95" x2="1226.33" y2="-511.6"></line><line class="cls-4" x1="-124.4" y1="276.27" x2="1226.33" y2="-503.28"></line><line class="cls-4" x1="-124.4" y1="284.59" x2="1226.33" y2="-494.96"></line><line class="cls-4" x1="-124.4" y1="292.91" x2="1226.33" y2="-486.64"></line><line class="cls-4" x1="-124.4" y1="301.22" x2="1226.33" y2="-478.32"></line><line class="cls-4" x1="-124.4" y1="309.54" x2="1226.33" y2="-470"></line><line class="cls-4" x1="-124.4" y1="317.86" x2="1226.33" y2="-461.69"></line><line class="cls-4" x1="-124.4" y1="326.18" x2="1226.33" y2="-453.37"></line><line class="cls-4" x1="-124.4" y1="334.5" x2="1226.33" y2="-445.05"></line><line class="cls-4" x1="-124.4" y1="342.82" x2="1226.33" y2="-436.73"></line><line class="cls-4" x1="-124.4" y1="351.13" x2="1226.33" y2="-428.41"></line><line class="cls-4" x1="-124.4" y1="359.45" x2="1226.33" y2="-420.09"></line><line class="cls-4" x1="-124.4" y1="367.77" x2="1226.33" y2="-411.78"></line><line class="cls-4" x1="-124.4" y1="376.09" x2="1226.33" y2="-403.46"></line><line class="cls-4" x1="-124.4" y1="384.41" x2="1226.33" y2="-395.14"></line><line class="cls-4" x1="-124.4" y1="392.73" x2="1226.33" y2="-386.82"></line><line class="cls-4" x1="-124.4" y1="401.04" x2="1226.33" y2="-378.5"></line><line class="cls-4" x1="-124.4" y1="409.36" x2="1226.33" y2="-370.18"></line><line class="cls-4" x1="-124.4" y1="417.68" x2="1226.33" y2="-361.87"></line><line class="cls-4" x1="-124.4" y1="426" x2="1226.33" y2="-353.55"></line><line class="cls-4" x1="-124.4" y1="434.32" x2="1226.33" y2="-345.23"></line><line class="cls-4" x1="-124.4" y1="442.64" x2="1226.33" y2="-336.91"></line><line class="cls-4" x1="-124.4" y1="450.95" x2="1226.33" y2="-328.59"></line><line class="cls-4" x1="-124.4" y1="459.27" x2="1226.33" y2="-320.27"></line><line class="cls-4" x1="-124.4" y1="467.59" x2="1226.33" y2="-311.96"></line><line class="cls-4" x1="-124.4" y1="475.91" x2="1226.33" y2="-303.64"></line><line class="cls-4" x1="-124.4" y1="484.23" x2="1226.33" y2="-295.32"></line><line class="cls-4" x1="-124.4" y1="492.55" x2="1226.33" y2="-287"></line><line class="cls-4" x1="-124.4" y1="500.86" x2="1226.33" y2="-278.68"></line><line class="cls-4" x1="-124.4" y1="509.18" x2="1226.33" y2="-270.36"></line><line class="cls-4" x1="-124.4" y1="525.82" x2="1226.33" y2="-253.73"></line><line class="cls-4" x1="-124.4" y1="542.46" x2="1226.33" y2="-237.09"></line><line class="cls-4" x1="-124.4" y1="559.09" x2="1226.33" y2="-220.45"></line><line class="cls-4" x1="-124.4" y1="575.73" x2="1226.33" y2="-203.82"></line><line class="cls-4" x1="-124.4" y1="592.37" x2="1226.33" y2="-187.18"></line><line class="cls-4" x1="-124.4" y1="517.5" x2="1226.33" y2="-262.04"></line><line class="cls-4" x1="-124.4" y1="534.14" x2="1226.33" y2="-245.41"></line><line class="cls-4" x1="-124.4" y1="550.78" x2="1226.33" y2="-228.77"></line><line class="cls-4" x1="-124.4" y1="567.41" x2="1226.33" y2="-212.13"></line><line class="cls-4" x1="-124.4" y1="584.05" x2="1226.33" y2="-195.5"></line><line class="cls-4" x1="-124.4" y1="600.69" x2="1226.33" y2="-178.86"></line><line class="cls-4" x1="-124.4" y1="609" x2="1226.33" y2="-170.54"></line><line class="cls-4" x1="-124.4" y1="617.32" x2="1226.33" y2="-162.22"></line><line class="cls-4" x1="-124.4" y1="625.64" x2="1226.33" y2="-153.91"></line><line class="cls-4" x1="-124.4" y1="633.96" x2="1226.33" y2="-145.59"></line><line class="cls-4" x1="-124.4" y1="642.28" x2="1226.33" y2="-137.27"></line><line class="cls-4" x1="-124.4" y1="650.6" x2="1226.33" y2="-128.95"></line><line class="cls-4" x1="-124.4" y1="658.91" x2="1226.33" y2="-120.63"></line><line class="cls-4" x1="-124.4" y1="667.23" x2="1226.33" y2="-112.31"></line><line class="cls-4" x1="-124.4" y1="675.55" x2="1226.33" y2="-104"></line><line class="cls-4" x1="-124.4" y1="692.19" x2="1226.33" y2="-87.36"></line><line class="cls-4" x1="-124.4" y1="708.82" x2="1226.33" y2="-70.72"></line><line class="cls-4" x1="-124.4" y1="725.46" x2="1226.33" y2="-54.08"></line><line class="cls-4" x1="-124.4" y1="742.1" x2="1226.33" y2="-37.45"></line><line class="cls-4" x1="-124.4" y1="758.73" x2="1226.33" y2="-20.81"></line><line class="cls-4" x1="-124.4" y1="775.37" x2="1226.33" y2="-4.17"></line><line class="cls-4" x1="-124.4" y1="792.01" x2="1226.33" y2="12.46"></line><line class="cls-4" x1="-124.4" y1="683.87" x2="1226.33" y2="-95.68"></line><line class="cls-4" x1="-124.4" y1="700.51" x2="1226.33" y2="-79.04"></line><line class="cls-4" x1="-124.4" y1="717.14" x2="1226.33" y2="-62.4"></line><line class="cls-4" x1="-124.4" y1="733.78" x2="1226.33" y2="-45.77"></line><line class="cls-4" x1="-124.4" y1="750.42" x2="1226.33" y2="-29.13"></line><line class="cls-4" x1="-124.4" y1="767.05" x2="1226.33" y2="-12.49"></line><line class="cls-4" x1="-124.4" y1="783.69" x2="1226.33" y2="4.14"></line><line class="cls-4" x1="-124.4" y1="800.33" x2="1226.33" y2="20.78"></line><line class="cls-4" x1="-124.4" y1="808.65" x2="1226.33" y2="29.1"></line><line class="cls-4" x1="-124.4" y1="816.96" x2="1226.33" y2="37.42"></line><line class="cls-4" x1="-124.4" y1="825.28" x2="1226.33" y2="45.74"></line><line class="cls-4" x1="-124.4" y1="833.6" x2="1226.33" y2="54.05"></line><line class="cls-4" x1="-124.4" y1="841.92" x2="1226.33" y2="62.37"></line><line class="cls-4" x1="-124.4" y1="850.24" x2="1226.33" y2="70.69"></line></g><polygon class="cls-1" points="442.43 -305.97 394.97 -333.37 394.97 -388.18 442.43 -415.14 489.89 -388.52 489.89 -333.37 442.43 -305.97"></polygon><g class="cls-11"><line class="cls-4" x1="-111.64" y1="1.69" x2="580.69" y2="-397.87"></line><line class="cls-4" x1="-111.64" y1="5.95" x2="580.69" y2="-393.61"></line><line class="cls-4" x1="-111.64" y1="10.22" x2="580.69" y2="-389.35"></line><line class="cls-4" x1="-111.64" y1="14.48" x2="580.69" y2="-385.08"></line></g><path d="M35.27,10.42A25.07,25.07,0,0,1,59.39,28.19c.24.79.24.79-.6.8-1.52,0-1.52,0-2.06-1.43a23.81,23.81,0,0,0-2.88-5.38c-.29-.41-.52-.53-1-.26a24.35,24.35,0,0,1-5,2c-.5.15-.66.34-.52.89.28,1.16.46,2.35.71,3.52.1.5-.09.66-.56.64a6.49,6.49,0,0,0-1.08,0c-.53.06-.71-.21-.77-.67-.13-1-.37-2-.6-3.06-.08-.3-.18-.53-.56-.44a44.9,44.9,0,0,1-7.31.88c-.47,0-.61.21-.6.66,0,.7,0,1.4,0,2.1,0,.39-.15.53-.53.53-2.1,0-1.67.28-1.72-1.62,0-.1,0-.2,0-.3,0-1.57.28-1.32-1.39-1.42a46.9,46.9,0,0,1-6.35-.8c-.48-.1-.64,0-.74.49-.2.95-.46,1.9-.57,2.87-.06.59-.3.86-.92.78a5.13,5.13,0,0,0-1,0c-.49,0-.62-.17-.54-.65.21-1.2.41-2.4.72-3.58.12-.45,0-.66-.43-.79a25.44,25.44,0,0,1-5.27-2.14c-.42-.22-.57,0-.77.27a21.66,21.66,0,0,0-3.2,6.21c-.16.5-.39.74-.93.68-.33,0-.68,0-1,0-.66,0-.69-.06-.5-.7a24.4,24.4,0,0,1,4.39-8.4,24.81,24.81,0,0,1,14.85-9A19.43,19.43,0,0,1,35.27,10.42Zm-1,7.72V13.53c0-.66-.06-.7-.69-.45a6.93,6.93,0,0,0-2.22,1.39,18.48,18.48,0,0,0-4.61,7.61c-.18.5.19.48.46.54a49.19,49.19,0,0,0,6.41.77c.48,0,.67-.12.66-.63C34.29,21.22,34.31,19.68,34.31,18.14Zm2.25,0c0,1.51,0,3,0,4.55,0,.61.21.78.76.71s.88-.09,1.32-.11a40.5,40.5,0,0,0,5-.67c.4-.07.54-.2.39-.63a22.47,22.47,0,0,0-2.92-5.68,9,9,0,0,0-4-3.26c-.44-.17-.61-.1-.61.41C36.58,15,36.56,16.57,36.56,18.13Zm5.66-4.31a24.06,24.06,0,0,1,4.13,7.67c.13.37.31.4.63.3A28.86,28.86,0,0,0,51.44,20c.36-.18.37-.32.09-.6A22.13,22.13,0,0,0,42.22,13.82Zm-13.58,0a22.17,22.17,0,0,0-9.37,5.69c-.33.33-.05.42.19.54a28.76,28.76,0,0,0,4.4,1.74c.41.12.56,0,.69-.38A24,24,0,0,1,28.64,13.82Z"></path><path d="M35.65,60.44A25.1,25.1,0,0,1,11.47,42.67c-.23-.78-.23-.79.61-.79,1.51,0,1.52,0,2.06,1.43a23.52,23.52,0,0,0,2.92,5.43c.27.37.47.47.92.23a24.31,24.31,0,0,1,5.05-2c.52-.14.65-.35.52-.89-.28-1.17-.47-2.35-.71-3.53-.09-.43,0-.65.51-.62a5.68,5.68,0,0,0,1,0c.64-.09.82.24.91.8.16,1,.39,2,.59,2.94.06.31.18.52.56.44a43.84,43.84,0,0,1,7.31-.89c.49,0,.6-.23.58-.67,0-.7,0-1.4,0-2.1,0-.35.12-.49.48-.52,1.77-.12,1.77-.13,1.77,1.64v.42c0,1.18,0,1.23,1.16,1.28a43.17,43.17,0,0,1,6.71.83c.37.08.51-.09.58-.41a28.43,28.43,0,0,0,.6-3c.06-.54.27-.86.87-.75a2.16,2.16,0,0,0,.36,0c1.56,0,1.26,0,1.07,1.31-.15,1-.38,2-.61,2.94-.1.41,0,.62.41.75A26.15,26.15,0,0,1,53,49c.38.21.54,0,.73-.25a21.41,21.41,0,0,0,3.18-6.15A.93.93,0,0,1,58,41.86c1.68,0,1.72,0,1.14,1.6-3.4,9.14-9.87,14.71-19.46,16.63-.45.09-.9.17-1.36.22A15.73,15.73,0,0,1,35.65,60.44Zm.91-7.78c0,1.58,0,3.15,0,4.73,0,.55.19.61.64.43a7.32,7.32,0,0,0,2.23-1.38,18.27,18.27,0,0,0,4.65-7.65c.19-.5-.17-.48-.45-.54a49.26,49.26,0,0,0-6.4-.78c-.49,0-.68.12-.67.63C36.58,49.62,36.56,51.14,36.56,52.66Zm-2.25.08c0-1.53,0-3.07,0-4.61,0-.55-.19-.71-.7-.65s-1.08.07-1.61.12a44.32,44.32,0,0,0-4.86.66c-.42.08-.46.25-.33.62a22.38,22.38,0,0,0,2.95,5.73,9.05,9.05,0,0,0,3.94,3.22c.43.16.61.1.6-.41C34.29,55.86,34.31,54.3,34.31,52.74Zm-5.53,4.38a23.07,23.07,0,0,1-4.21-7.61c-.15-.44-.32-.56-.77-.41a30.4,30.4,0,0,0-4.3,1.68c-.45.22-.44.38-.1.71a23.48,23.48,0,0,0,4.24,3.33A22.45,22.45,0,0,0,28.78,57.12ZM42.22,57a22.15,22.15,0,0,0,9.38-5.69c.34-.34,0-.42-.2-.54A26.8,26.8,0,0,0,47,49.08c-.36-.11-.53,0-.66.33A24.06,24.06,0,0,1,42.22,57Z"></path><path d="M48.31,36.61c.39-1.07.76-2.11,1.14-3.16.2-.56.44-1.12.59-1.7A.87.87,0,0,1,51.1,31a8.65,8.65,0,0,0,1.44,0,.76.76,0,0,1,.87.62c.48,1.53,1,3,1.51,4.55.07.21.15.41.26.72.51-1.75,1-3.38,1.46-5A1,1,0,0,1,57.75,31c1.68,0,1.68,0,1.16,1.58-.72,2.22-1.45,4.44-2.16,6.67a.77.77,0,0,1-.84.65c-1.9,0-1.9,0-2.55-1.72-.54-1.48-1.06-3-1.6-4.5-.24.16-.25.4-.32.59-.6,1.67-1.2,3.34-1.78,5a.73.73,0,0,1-.82.6c-.5,0-1,0-1.5,0a.63.63,0,0,1-.69-.51c-.81-2.6-1.64-5.19-2.47-7.77-.16-.48,0-.59.46-.6,1.88-.08,1.88-.08,2.41,1.73.32,1.09.63,2.19,1,3.28C48.07,36.2,48.06,36.44,48.31,36.61Z"></path><path d="M19.07,33.71c-.63,1.78-1.29,3.56-1.88,5.36a1,1,0,0,1-1.16.82c-1.74,0-1.75,0-2.29-1.69-.69-2.15-1.37-4.3-2.06-6.46-.22-.7-.18-.76.56-.75,2.16,0,1.63-.3,2.23,1.64.41,1.34.78,2.68,1.22,4.17.36-1,.67-1.88,1-2.76s.61-1.69.89-2.54a.64.64,0,0,1,.7-.51c.58,0,1.16,0,1.74,0a.73.73,0,0,1,.82.6c.46,1.46,1,2.92,1.45,4.38.08.22.09.47.29.65.19-.11.18-.3.23-.46.44-1.5.9-3,1.31-4.49A.78.78,0,0,1,25,31c.42,0,.84,0,1.26,0s.48.13.37.48q-1.3,4-2.59,8a.51.51,0,0,1-.52.41h-.12c-2,.12-2,.12-2.68-1.77L19.2,33.7Z"></path><path d="M39,36.67c.49-1.67,1-3.33,1.45-5a.81.81,0,0,1,.93-.69c1.79,0,1.8,0,1.25,1.71-.7,2.19-1.43,4.37-2.12,6.56a.76.76,0,0,1-.85.63c-1.9,0-1.9,0-2.53-1.74l-1.32-3.73c-.08-.22-.17-.44-.33-.82-.19.5-.32.84-.44,1.18-.53,1.49-1.07,3-1.57,4.48a.79.79,0,0,1-.86.63c-2,0-2,0-2.58-1.86-.68-2.12-1.33-4.24-2-6.34-.17-.52-.05-.68.49-.7,1.82-.05,1.82-.06,2.33,1.68.39,1.3.77,2.61,1.15,3.91a.71.71,0,0,0,.09.13c.25-.71.5-1.36.73-2,.36-1,.74-2,1.07-3.06a.78.78,0,0,1,.85-.64c2.23,0,2.23-.05,2.94,2.08.4,1.21.8,2.42,1.21,3.63Z"></path></svg> 