<?xml version="1.0" encoding="UTF-8"?> <svg xmlns="http://www.w3.org/2000/svg" xmlns:xlink="http://www.w3.org/1999/xlink" id="Calque_1" data-name="Calque 1" viewBox="0 0 70.87 70.87"><defs><style>.cls-1{fill:#f1f2f2;}.cls-2{fill:#fff;}.cls-3,.cls-5{fill:none;}.cls-4{clip-path:url(#clip-path);}.cls-5{stroke:#002c39;stroke-miterlimit:10;stroke-width:0.5px;}.cls-6{clip-path:url(#clip-path-2);}.cls-7{clip-path:url(#clip-path-3);}.cls-8{clip-path:url(#clip-path-4);}.cls-9{clip-path:url(#clip-path-5);}.cls-10{clip-path:url(#clip-path-6);}.cls-11{fill:#002c39;}</style><clipPath id="clip-path"><polygon class="cls-1" points="-203.62 -451.12 -203.62 -386.06 -147.24 -418.05 -90.93 -386.06 -90.93 -451.12 -147.28 -483.65 -203.62 -451.12"></polygon></clipPath><clipPath id="clip-path-2"><polygon class="cls-1" points="-428.98 -451.45 -372.64 -418.92 -372.64 -353.87 -316.3 -386.4 -316.3 -451.45 -372.64 -483.98 -428.98 -451.45"></polygon></clipPath><clipPath id="clip-path-3"><polygon class="cls-2" points="224.33 -408.39 272.2 -380.75 272.2 -325.48 320.07 -353.12 320.07 -408.39 272.2 -436.03 224.33 -408.39"></polygon></clipPath><clipPath id="clip-path-4"><polygon class="cls-2" points="464.64 -435.49 417.18 -408.09 417.18 -353.28 465.38 -380.82 512.1 -353.28 512.1 -408.09 464.64 -435.49"></polygon></clipPath><clipPath id="clip-path-5"><polygon class="cls-2" points="609.17 -407.94 561.71 -380.54 561.71 -325.74 609.17 -325.48 656.63 -325.74 656.63 -380.54 609.17 -407.94"></polygon></clipPath><clipPath id="clip-path-6"><polygon class="cls-3" points="971.95 -72.42 879.35 -18.96 879.35 87.96 973.38 34.24 1064.54 87.96 1064.54 -18.96 971.95 -72.42"></polygon></clipPath></defs><polygon class="cls-1" points="-203.62 -451.12 -203.62 -386.06 -147.24 -418.05 -90.93 -386.06 -90.93 -451.12 -147.28 -483.65 -203.62 -451.12"></polygon><g class="cls-4"><line class="cls-5" x1="-557.86" y1="8.53" x2="264.01" y2="-465.8"></line><line class="cls-5" x1="-557.86" y1="18.65" x2="264.01" y2="-455.68"></line><line class="cls-5" x1="-557.86" y1="3.47" x2="264.01" y2="-470.86"></line><line class="cls-5" x1="-557.86" y1="13.59" x2="264.01" y2="-460.74"></line><line class="cls-5" x1="-557.86" y1="23.71" x2="264.01" y2="-450.61"></line><line class="cls-5" x1="-557.86" y1="28.77" x2="264.01" y2="-445.55"></line><line class="cls-5" x1="-557.86" y1="33.84" x2="264.01" y2="-440.49"></line><line class="cls-5" x1="-557.86" y1="38.9" x2="264.01" y2="-435.43"></line><line class="cls-5" x1="-557.86" y1="43.96" x2="264.01" y2="-430.37"></line><line class="cls-5" x1="-557.86" y1="49.02" x2="264.01" y2="-425.31"></line><line class="cls-5" x1="-557.86" y1="54.08" x2="264.01" y2="-420.25"></line><line class="cls-5" x1="-557.86" y1="59.14" x2="264.01" y2="-415.18"></line><line class="cls-5" x1="-557.86" y1="64.2" x2="264.01" y2="-410.12"></line><line class="cls-5" x1="-557.86" y1="69.27" x2="264.01" y2="-405.06"></line><line class="cls-5" x1="-557.86" y1="74.33" x2="264.01" y2="-400"></line><line class="cls-5" x1="-557.86" y1="79.39" x2="264.01" y2="-394.94"></line><line class="cls-5" x1="-557.86" y1="84.45" x2="264.01" y2="-389.88"></line><line class="cls-5" x1="-557.86" y1="89.51" x2="264.01" y2="-384.82"></line><line class="cls-5" x1="-557.86" y1="94.57" x2="264.01" y2="-379.75"></line></g><polygon class="cls-1" points="-428.98 -451.45 -372.64 -418.92 -372.64 -353.87 -316.3 -386.4 -316.3 -451.45 -372.64 -483.98 -428.98 -451.45"></polygon><g class="cls-6"><line class="cls-5" x1="-783.3" y1="7.73" x2="38.58" y2="-466.6"></line><line class="cls-5" x1="-783.3" y1="17.85" x2="38.58" y2="-456.48"></line><line class="cls-5" x1="-783.3" y1="2.67" x2="38.58" y2="-471.66"></line><line class="cls-5" x1="-783.3" y1="12.79" x2="38.58" y2="-461.54"></line><line class="cls-5" x1="-783.3" y1="22.91" x2="38.58" y2="-451.42"></line><line class="cls-5" x1="-783.3" y1="27.97" x2="38.58" y2="-446.35"></line><line class="cls-5" x1="-783.3" y1="33.03" x2="38.58" y2="-441.29"></line><line class="cls-5" x1="-783.3" y1="38.1" x2="38.58" y2="-436.23"></line><line class="cls-5" x1="-783.3" y1="43.16" x2="38.58" y2="-431.17"></line><line class="cls-5" x1="-783.3" y1="48.22" x2="38.58" y2="-426.11"></line><line class="cls-5" x1="-783.3" y1="53.28" x2="38.58" y2="-421.05"></line><line class="cls-5" x1="-783.3" y1="58.34" x2="38.58" y2="-415.99"></line><line class="cls-5" x1="-783.3" y1="63.4" x2="38.58" y2="-410.92"></line><line class="cls-5" x1="-783.3" y1="68.46" x2="38.58" y2="-405.86"></line><line class="cls-5" x1="-783.3" y1="73.53" x2="38.58" y2="-400.8"></line><line class="cls-5" x1="-783.3" y1="78.59" x2="38.58" y2="-395.74"></line><line class="cls-5" x1="-783.3" y1="83.65" x2="38.58" y2="-390.68"></line><line class="cls-5" x1="-783.3" y1="88.71" x2="38.58" y2="-385.62"></line><line class="cls-5" x1="-783.3" y1="93.77" x2="38.58" y2="-380.56"></line></g><polygon class="cls-2" points="224.33 -408.39 272.2 -380.75 272.2 -325.48 320.07 -353.12 320.07 -408.39 272.2 -436.03 224.33 -408.39"></polygon><g class="cls-7"><line class="cls-5" x1="-76.71" y1="3.25" x2="621.59" y2="-399.76"></line><line class="cls-5" x1="-76.71" y1="7.55" x2="621.59" y2="-395.46"></line><line class="cls-5" x1="-76.71" y1="11.85" x2="621.59" y2="-391.16"></line><line class="cls-5" x1="-76.71" y1="16.15" x2="621.59" y2="-386.86"></line><line class="cls-5" x1="-76.71" y1="20.45" x2="621.59" y2="-382.56"></line><line class="cls-5" x1="-76.71" y1="24.75" x2="621.59" y2="-378.26"></line><line class="cls-5" x1="-76.71" y1="29.05" x2="621.59" y2="-373.96"></line><line class="cls-5" x1="-76.71" y1="33.35" x2="621.59" y2="-369.66"></line><line class="cls-5" x1="-76.71" y1="37.65" x2="621.59" y2="-365.36"></line><line class="cls-5" x1="-76.71" y1="41.95" x2="621.59" y2="-361.06"></line><line class="cls-5" x1="-76.71" y1="46.25" x2="621.59" y2="-356.75"></line><line class="cls-5" x1="-76.71" y1="50.56" x2="621.59" y2="-352.45"></line><line class="cls-5" x1="-76.71" y1="54.86" x2="621.59" y2="-348.15"></line></g><polygon class="cls-2" points="464.64 -435.49 417.18 -408.09 417.18 -353.28 465.38 -380.82 512.1 -353.28 512.1 -408.09 464.64 -435.49"></polygon><g class="cls-8"><line class="cls-5" x1="-103.35" y1="2.83" x2="588.98" y2="-396.73"></line><line class="cls-5" x1="-103.35" y1="11.36" x2="588.98" y2="-388.2"></line><line class="cls-5" x1="-103.35" y1="19.89" x2="588.98" y2="-379.68"></line><line class="cls-5" x1="-103.35" y1="28.42" x2="588.98" y2="-371.15"></line><line class="cls-5" x1="-103.35" y1="36.94" x2="588.98" y2="-362.62"></line><line class="cls-5" x1="-103.35" y1="45.47" x2="588.98" y2="-354.09"></line><line class="cls-5" x1="-103.35" y1="54" x2="588.98" y2="-345.57"></line><line class="cls-5" x1="-103.35" y1="62.52" x2="588.98" y2="-337.04"></line><line class="cls-5" x1="-103.35" y1="7.1" x2="588.98" y2="-392.47"></line><line class="cls-5" x1="-103.35" y1="15.62" x2="588.98" y2="-383.94"></line><line class="cls-5" x1="-103.35" y1="24.15" x2="588.98" y2="-375.41"></line><line class="cls-5" x1="-103.35" y1="32.68" x2="588.98" y2="-366.89"></line><line class="cls-5" x1="-103.35" y1="41.21" x2="588.98" y2="-358.36"></line><line class="cls-5" x1="-103.35" y1="49.73" x2="588.98" y2="-349.83"></line><line class="cls-5" x1="-103.35" y1="58.26" x2="588.98" y2="-341.3"></line><line class="cls-5" x1="-103.35" y1="66.79" x2="588.98" y2="-332.78"></line><line class="cls-5" x1="-103.35" y1="71.05" x2="588.98" y2="-328.51"></line><line class="cls-5" x1="-103.35" y1="75.32" x2="588.98" y2="-324.25"></line><line class="cls-5" x1="-103.35" y1="79.58" x2="588.98" y2="-319.98"></line><line class="cls-5" x1="-103.35" y1="83.84" x2="588.98" y2="-315.72"></line><line class="cls-5" x1="-103.35" y1="88.11" x2="588.98" y2="-311.46"></line><line class="cls-5" x1="-103.35" y1="92.37" x2="588.98" y2="-307.19"></line><line class="cls-5" x1="-103.35" y1="96.63" x2="588.98" y2="-302.93"></line><line class="cls-5" x1="-103.35" y1="100.9" x2="588.98" y2="-298.67"></line><line class="cls-5" x1="-103.35" y1="105.16" x2="588.98" y2="-294.4"></line><line class="cls-5" x1="-103.35" y1="109.43" x2="588.98" y2="-290.14"></line><line class="cls-5" x1="-103.35" y1="113.69" x2="588.98" y2="-285.88"></line><line class="cls-5" x1="-103.35" y1="117.95" x2="588.98" y2="-281.61"></line><line class="cls-5" x1="-103.35" y1="122.22" x2="588.98" y2="-277.35"></line><line class="cls-5" x1="-103.35" y1="126.48" x2="588.98" y2="-273.08"></line></g><polygon class="cls-2" points="609.17 -407.94 561.71 -380.54 561.71 -325.74 609.17 -325.48 656.63 -325.74 656.63 -380.54 609.17 -407.94"></polygon><g class="cls-9"><line class="cls-5" x1="41.18" y1="0.53" x2="733.51" y2="-399.03"></line><line class="cls-5" x1="41.18" y1="4.8" x2="733.51" y2="-394.77"></line><line class="cls-5" x1="41.18" y1="9.06" x2="733.51" y2="-390.51"></line><line class="cls-5" x1="41.18" y1="13.32" x2="733.51" y2="-386.24"></line><line class="cls-5" x1="41.18" y1="17.59" x2="733.51" y2="-381.98"></line><line class="cls-5" x1="41.18" y1="21.85" x2="733.51" y2="-377.71"></line><line class="cls-5" x1="41.18" y1="26.11" x2="733.51" y2="-373.45"></line><line class="cls-5" x1="41.18" y1="30.38" x2="733.51" y2="-369.19"></line><line class="cls-5" x1="41.18" y1="38.9" x2="733.51" y2="-360.66"></line><line class="cls-5" x1="41.18" y1="47.43" x2="733.51" y2="-352.13"></line><line class="cls-5" x1="41.18" y1="55.96" x2="733.51" y2="-343.61"></line><line class="cls-5" x1="41.18" y1="64.49" x2="733.51" y2="-335.08"></line><line class="cls-5" x1="41.18" y1="73.01" x2="733.51" y2="-326.55"></line><line class="cls-5" x1="41.18" y1="81.54" x2="733.51" y2="-318.02"></line><line class="cls-5" x1="41.18" y1="90.07" x2="733.51" y2="-309.5"></line><line class="cls-5" x1="41.18" y1="34.64" x2="733.51" y2="-364.92"></line><line class="cls-5" x1="41.18" y1="43.17" x2="733.51" y2="-356.4"></line><line class="cls-5" x1="41.18" y1="51.7" x2="733.51" y2="-347.87"></line><line class="cls-5" x1="41.18" y1="60.22" x2="733.51" y2="-339.34"></line><line class="cls-5" x1="41.18" y1="68.75" x2="733.51" y2="-330.81"></line><line class="cls-5" x1="41.18" y1="77.28" x2="733.51" y2="-322.29"></line><line class="cls-5" x1="41.18" y1="85.81" x2="733.51" y2="-313.76"></line><line class="cls-5" x1="41.18" y1="94.33" x2="733.51" y2="-305.23"></line><line class="cls-5" x1="41.18" y1="98.6" x2="733.51" y2="-300.97"></line><line class="cls-5" x1="41.18" y1="102.86" x2="733.51" y2="-296.7"></line><line class="cls-5" x1="41.18" y1="107.12" x2="733.51" y2="-292.44"></line><line class="cls-5" x1="41.18" y1="111.39" x2="733.51" y2="-288.18"></line><line class="cls-5" x1="41.18" y1="115.65" x2="733.51" y2="-283.91"></line><line class="cls-5" x1="41.18" y1="119.91" x2="733.51" y2="-279.65"></line><line class="cls-5" x1="41.18" y1="124.18" x2="733.51" y2="-275.39"></line><line class="cls-5" x1="41.18" y1="128.44" x2="733.51" y2="-271.12"></line><line class="cls-5" x1="41.18" y1="132.71" x2="733.51" y2="-266.86"></line><line class="cls-5" x1="41.18" y1="136.97" x2="733.51" y2="-262.6"></line><line class="cls-5" x1="41.18" y1="141.23" x2="733.51" y2="-258.33"></line><line class="cls-5" x1="41.18" y1="145.5" x2="733.51" y2="-254.07"></line><line class="cls-5" x1="41.18" y1="149.76" x2="733.51" y2="-249.8"></line><line class="cls-5" x1="41.18" y1="154.02" x2="733.51" y2="-245.54"></line></g><g class="cls-10"><line class="cls-5" x1="-136.2" y1="117.27" x2="1214.53" y2="-662.27"></line><line class="cls-5" x1="-136.2" y1="125.59" x2="1214.53" y2="-653.96"></line><line class="cls-5" x1="-136.2" y1="133.91" x2="1214.53" y2="-645.64"></line><line class="cls-5" x1="-136.2" y1="142.23" x2="1214.53" y2="-637.32"></line><line class="cls-5" x1="-136.2" y1="150.55" x2="1214.53" y2="-629"></line><line class="cls-5" x1="-136.2" y1="158.86" x2="1214.53" y2="-620.68"></line><line class="cls-5" x1="-136.2" y1="167.18" x2="1214.53" y2="-612.36"></line><line class="cls-5" x1="-136.2" y1="175.5" x2="1214.53" y2="-604.05"></line><line class="cls-5" x1="-136.2" y1="183.82" x2="1214.53" y2="-595.73"></line><line class="cls-5" x1="-136.2" y1="192.14" x2="1214.53" y2="-587.41"></line><line class="cls-5" x1="-136.2" y1="200.46" x2="1214.53" y2="-579.09"></line><line class="cls-5" x1="-136.2" y1="208.77" x2="1214.53" y2="-570.77"></line><line class="cls-5" x1="-136.2" y1="217.09" x2="1214.53" y2="-562.45"></line><line class="cls-5" x1="-136.2" y1="225.41" x2="1214.53" y2="-554.13"></line><line class="cls-5" x1="-136.2" y1="233.73" x2="1214.53" y2="-545.82"></line><line class="cls-5" x1="-136.2" y1="242.05" x2="1214.53" y2="-537.5"></line><line class="cls-5" x1="-136.2" y1="250.37" x2="1214.53" y2="-529.18"></line><line class="cls-5" x1="-136.2" y1="258.68" x2="1214.53" y2="-520.86"></line><line class="cls-5" x1="-136.2" y1="267" x2="1214.53" y2="-512.54"></line><line class="cls-5" x1="-136.2" y1="275.32" x2="1214.53" y2="-504.22"></line><line class="cls-5" x1="-136.2" y1="283.64" x2="1214.53" y2="-495.91"></line><line class="cls-5" x1="-136.2" y1="291.96" x2="1214.53" y2="-487.59"></line><line class="cls-5" x1="-136.2" y1="300.28" x2="1214.53" y2="-479.27"></line><line class="cls-5" x1="-136.2" y1="308.6" x2="1214.53" y2="-470.95"></line><line class="cls-5" x1="-136.2" y1="316.91" x2="1214.53" y2="-462.63"></line><line class="cls-5" x1="-136.2" y1="325.23" x2="1214.53" y2="-454.31"></line><line class="cls-5" x1="-136.2" y1="333.55" x2="1214.53" y2="-446"></line><line class="cls-5" x1="-136.2" y1="341.87" x2="1214.53" y2="-437.68"></line><line class="cls-5" x1="-136.2" y1="350.19" x2="1214.53" y2="-429.36"></line><line class="cls-5" x1="-136.2" y1="358.51" x2="1214.53" y2="-421.04"></line><line class="cls-5" x1="-136.2" y1="366.82" x2="1214.53" y2="-412.72"></line><line class="cls-5" x1="-136.2" y1="375.14" x2="1214.53" y2="-404.4"></line><line class="cls-5" x1="-136.2" y1="383.46" x2="1214.53" y2="-396.09"></line><line class="cls-5" x1="-136.2" y1="391.78" x2="1214.53" y2="-387.77"></line><line class="cls-5" x1="-136.2" y1="400.1" x2="1214.53" y2="-379.45"></line><line class="cls-5" x1="-136.2" y1="408.42" x2="1214.53" y2="-371.13"></line><line class="cls-5" x1="-136.2" y1="416.73" x2="1214.53" y2="-362.81"></line><line class="cls-5" x1="-136.2" y1="425.05" x2="1214.53" y2="-354.49"></line><line class="cls-5" x1="-136.2" y1="433.37" x2="1214.53" y2="-346.18"></line><line class="cls-5" x1="-136.2" y1="441.69" x2="1214.53" y2="-337.86"></line><line class="cls-5" x1="-136.2" y1="450.01" x2="1214.53" y2="-329.54"></line><line class="cls-5" x1="-136.2" y1="458.33" x2="1214.53" y2="-321.22"></line><line class="cls-5" x1="-136.2" y1="466.64" x2="1214.53" y2="-312.9"></line><line class="cls-5" x1="-136.2" y1="474.96" x2="1214.53" y2="-304.58"></line><line class="cls-5" x1="-136.2" y1="483.28" x2="1214.53" y2="-296.26"></line><line class="cls-5" x1="-136.2" y1="491.6" x2="1214.53" y2="-287.95"></line><line class="cls-5" x1="-136.2" y1="499.92" x2="1214.53" y2="-279.63"></line><line class="cls-5" x1="-136.2" y1="508.24" x2="1214.53" y2="-271.31"></line><line class="cls-5" x1="-136.2" y1="516.55" x2="1214.53" y2="-262.99"></line><line class="cls-5" x1="-136.2" y1="524.87" x2="1214.53" y2="-254.67"></line><line class="cls-5" x1="-136.2" y1="533.19" x2="1214.53" y2="-246.35"></line><line class="cls-5" x1="-136.2" y1="541.51" x2="1214.53" y2="-238.04"></line><line class="cls-5" x1="-136.2" y1="549.83" x2="1214.53" y2="-229.72"></line><line class="cls-5" x1="-136.2" y1="558.15" x2="1214.53" y2="-221.4"></line><line class="cls-5" x1="-136.2" y1="566.47" x2="1214.53" y2="-213.08"></line><line class="cls-5" x1="-136.2" y1="574.78" x2="1214.53" y2="-204.76"></line><line class="cls-5" x1="-136.2" y1="583.1" x2="1214.53" y2="-196.44"></line><line class="cls-5" x1="-136.2" y1="591.42" x2="1214.53" y2="-188.13"></line><line class="cls-5" x1="-136.2" y1="599.74" x2="1214.53" y2="-179.81"></line><line class="cls-5" x1="-136.2" y1="608.06" x2="1214.53" y2="-171.49"></line><line class="cls-5" x1="-136.2" y1="616.38" x2="1214.53" y2="-163.17"></line><line class="cls-5" x1="-136.2" y1="633.01" x2="1214.53" y2="-146.53"></line><line class="cls-5" x1="-136.2" y1="649.65" x2="1214.53" y2="-129.9"></line><line class="cls-5" x1="-136.2" y1="666.29" x2="1214.53" y2="-113.26"></line><line class="cls-5" x1="-136.2" y1="682.92" x2="1214.53" y2="-96.62"></line><line class="cls-5" x1="-136.2" y1="699.56" x2="1214.53" y2="-79.99"></line><line class="cls-5" x1="-136.2" y1="624.69" x2="1214.53" y2="-154.85"></line><line class="cls-5" x1="-136.2" y1="641.33" x2="1214.53" y2="-138.22"></line><line class="cls-5" x1="-136.2" y1="657.97" x2="1214.53" y2="-121.58"></line><line class="cls-5" x1="-136.2" y1="674.6" x2="1214.53" y2="-104.94"></line><line class="cls-5" x1="-136.2" y1="691.24" x2="1214.53" y2="-88.31"></line><line class="cls-5" x1="-136.2" y1="707.88" x2="1214.53" y2="-71.67"></line><line class="cls-5" x1="-136.2" y1="716.2" x2="1214.53" y2="-63.35"></line><line class="cls-5" x1="-136.2" y1="724.51" x2="1214.53" y2="-55.03"></line><line class="cls-5" x1="-136.2" y1="732.83" x2="1214.53" y2="-46.71"></line><line class="cls-5" x1="-136.2" y1="741.15" x2="1214.53" y2="-38.39"></line><line class="cls-5" x1="-136.2" y1="749.47" x2="1214.53" y2="-30.08"></line><line class="cls-5" x1="-136.2" y1="757.79" x2="1214.53" y2="-21.76"></line><line class="cls-5" x1="-136.2" y1="766.11" x2="1214.53" y2="-13.44"></line><line class="cls-5" x1="-136.2" y1="774.42" x2="1214.53" y2="-5.12"></line><line class="cls-5" x1="-136.2" y1="782.74" x2="1214.53" y2="3.2"></line><line class="cls-5" x1="-136.2" y1="799.38" x2="1214.53" y2="19.83"></line><line class="cls-5" x1="-136.2" y1="816.02" x2="1214.53" y2="36.47"></line><line class="cls-5" x1="-136.2" y1="832.65" x2="1214.53" y2="53.11"></line><line class="cls-5" x1="-136.2" y1="849.29" x2="1214.53" y2="69.74"></line><line class="cls-5" x1="-136.2" y1="791.06" x2="1214.53" y2="11.52"></line><line class="cls-5" x1="-136.2" y1="807.7" x2="1214.53" y2="28.15"></line><line class="cls-5" x1="-136.2" y1="824.34" x2="1214.53" y2="44.79"></line><line class="cls-5" x1="-136.2" y1="840.97" x2="1214.53" y2="61.43"></line></g><path class="cls-11" d="M35.49,6.11a4.92,4.92,0,0,1,4.72,5.19v2.54s.65-.33.59.33-.11,2.32-1.3,2.87a4.59,4.59,0,0,1-1.35,3,6.58,6.58,0,0,1-2.55,1.65h-.44A6.51,6.51,0,0,1,32.62,20a4.63,4.63,0,0,1-1.36-3c-1.19-.55-1.25-2.21-1.3-2.87s.6-.33.6-.33V11.3a4.91,4.91,0,0,1,4.71-5.19Z"></path><path class="cls-11" d="M43.05,34.49h.23V33.22a3.63,3.63,0,0,0-.41-1.61l-.2-.3a.64.64,0,0,1-.67-.26l-2.1-3.16a.72.72,0,0,1,.23-1,.69.69,0,0,1,1,.14l2.09,3.16a.67.67,0,0,1,0,.71l.21.31v0a4.12,4.12,0,0,1,.51,2v1.27h.23v2.67a2.69,2.69,0,0,1,1.27.54h5.29S48,26.54,47.9,25.88a1.69,1.69,0,0,0-.81-1.05L39.56,22,37.33,33.67l-1.19-7.4.65-2.21-.7-1H34.68l-.71,1,.65,2.21-1.19,7.4L31.21,22l-7.54,2.82a1.72,1.72,0,0,0-.81,1.05C22.75,26.54,20,37.7,20,37.7h5.29a2.74,2.74,0,0,1,1.27-.54V34.49h.24V33.22a4.17,4.17,0,0,1,.5-2v0l.21-.31a.67.67,0,0,1,0-.71l2.1-3.16a.68.68,0,0,1,1-.14.71.71,0,0,1,.23,1l-2.09,3.16a.66.66,0,0,1-.68.26l-.19.3a3.49,3.49,0,0,0-.41,1.61v1.27h.22v2.65a2.8,2.8,0,0,1,1.38.56H41.68a2.76,2.76,0,0,1,1.37-.56Z"></path><polygon class="cls-11" points="53.16 50.01 55.28 39.08 15.59 39.08 17.7 50.01 53.16 50.01"></polygon><polygon class="cls-11" points="44.95 64.76 45.92 51.67 24.94 51.67 25.92 64.76 44.95 64.76"></polygon></svg> 